<?xml version="1.0" encoding="utf-8" standalone="no"?>
<!DOCTYPE svg PUBLIC "-//W3C//DTD SVG 1.1//EN"
  "http://www.w3.org/Graphics/SVG/1.1/DTD/svg11.dtd">
<svg xmlns:xlink="http://www.w3.org/1999/xlink" width="648pt" height="360pt" viewBox="0 0 648 360" xmlns="http://www.w3.org/2000/svg" version="1.1">
 <metadata>
  <rdf:RDF xmlns:dc="http://purl.org/dc/elements/1.1/" xmlns:cc="http://creativecommons.org/ns#" xmlns:rdf="http://www.w3.org/1999/02/22-rdf-syntax-ns#">
   <cc:Work>
    <dc:type rdf:resource="http://purl.org/dc/dcmitype/StillImage"/>
    <dc:date>2022-06-10T09:57:25.536453</dc:date>
    <dc:format>image/svg+xml</dc:format>
    <dc:creator>
     <cc:Agent>
      <dc:title>Matplotlib v3.5.2, https://matplotlib.org/</dc:title>
     </cc:Agent>
    </dc:creator>
   </cc:Work>
  </rdf:RDF>
 </metadata>
 <defs>
  <style type="text/css">*{stroke-linejoin: round; stroke-linecap: butt}</style>
 </defs>
 <g id="figure_1">
  <g id="patch_1">
   <path d="M 0 360 
L 648 360 
L 648 0 
L 0 0 
z
" style="fill: #ffffff"/>
  </g>
  <g id="axes_1">
   <g id="patch_2">
    <path d="M 49.15024 298.341022 
L 644.99976 298.341022 
L 644.99976 18.118365 
L 49.15024 18.118365 
z
" style="fill: #ffffff"/>
   </g>
   <g id="matplotlib.axis_1">
    <g id="xtick_1">
     <g id="line2d_1">
      <defs>
       <path id="md900cee447" d="M 0 0 
L 0 3.5 
" style="stroke: #000000; stroke-width: 0.8"/>
      </defs>
      <g>
       <use xlink:href="#md900cee447" x="76.234309" y="298.341022" style="stroke: #000000; stroke-width: 0.8"/>
      </g>
     </g>
     <g id="text_1">
      <!-- 0 -->
      <g transform="translate(73.053059 312.939459)scale(0.1 -0.1)">
       <defs>
        <path id="DejaVuSans-30" d="M 2034 4250 
Q 1547 4250 1301 3770 
Q 1056 3291 1056 2328 
Q 1056 1369 1301 889 
Q 1547 409 2034 409 
Q 2525 409 2770 889 
Q 3016 1369 3016 2328 
Q 3016 3291 2770 3770 
Q 2525 4250 2034 4250 
z
M 2034 4750 
Q 2819 4750 3233 4129 
Q 3647 3509 3647 2328 
Q 3647 1150 3233 529 
Q 2819 -91 2034 -91 
Q 1250 -91 836 529 
Q 422 1150 422 2328 
Q 422 3509 836 4129 
Q 1250 4750 2034 4750 
z
" transform="scale(0.015625)"/>
       </defs>
       <use xlink:href="#DejaVuSans-30"/>
      </g>
     </g>
    </g>
    <g id="xtick_2">
     <g id="line2d_2">
      <g>
       <use xlink:href="#md900cee447" x="112.346401" y="298.341022" style="stroke: #000000; stroke-width: 0.8"/>
      </g>
     </g>
     <g id="text_2">
      <!-- 1 -->
      <g transform="translate(109.165151 312.939459)scale(0.1 -0.1)">
       <defs>
        <path id="DejaVuSans-31" d="M 794 531 
L 1825 531 
L 1825 4091 
L 703 3866 
L 703 4441 
L 1819 4666 
L 2450 4666 
L 2450 531 
L 3481 531 
L 3481 0 
L 794 0 
L 794 531 
z
" transform="scale(0.015625)"/>
       </defs>
       <use xlink:href="#DejaVuSans-31"/>
      </g>
     </g>
    </g>
    <g id="xtick_3">
     <g id="line2d_3">
      <g>
       <use xlink:href="#md900cee447" x="148.458493" y="298.341022" style="stroke: #000000; stroke-width: 0.8"/>
      </g>
     </g>
     <g id="text_3">
      <!-- 2 -->
      <g transform="translate(145.277243 312.939459)scale(0.1 -0.1)">
       <defs>
        <path id="DejaVuSans-32" d="M 1228 531 
L 3431 531 
L 3431 0 
L 469 0 
L 469 531 
Q 828 903 1448 1529 
Q 2069 2156 2228 2338 
Q 2531 2678 2651 2914 
Q 2772 3150 2772 3378 
Q 2772 3750 2511 3984 
Q 2250 4219 1831 4219 
Q 1534 4219 1204 4116 
Q 875 4013 500 3803 
L 500 4441 
Q 881 4594 1212 4672 
Q 1544 4750 1819 4750 
Q 2544 4750 2975 4387 
Q 3406 4025 3406 3419 
Q 3406 3131 3298 2873 
Q 3191 2616 2906 2266 
Q 2828 2175 2409 1742 
Q 1991 1309 1228 531 
z
" transform="scale(0.015625)"/>
       </defs>
       <use xlink:href="#DejaVuSans-32"/>
      </g>
     </g>
    </g>
    <g id="xtick_4">
     <g id="line2d_4">
      <g>
       <use xlink:href="#md900cee447" x="184.570585" y="298.341022" style="stroke: #000000; stroke-width: 0.8"/>
      </g>
     </g>
     <g id="text_4">
      <!-- 3 -->
      <g transform="translate(181.389335 312.939459)scale(0.1 -0.1)">
       <defs>
        <path id="DejaVuSans-33" d="M 2597 2516 
Q 3050 2419 3304 2112 
Q 3559 1806 3559 1356 
Q 3559 666 3084 287 
Q 2609 -91 1734 -91 
Q 1441 -91 1130 -33 
Q 819 25 488 141 
L 488 750 
Q 750 597 1062 519 
Q 1375 441 1716 441 
Q 2309 441 2620 675 
Q 2931 909 2931 1356 
Q 2931 1769 2642 2001 
Q 2353 2234 1838 2234 
L 1294 2234 
L 1294 2753 
L 1863 2753 
Q 2328 2753 2575 2939 
Q 2822 3125 2822 3475 
Q 2822 3834 2567 4026 
Q 2313 4219 1838 4219 
Q 1578 4219 1281 4162 
Q 984 4106 628 3988 
L 628 4550 
Q 988 4650 1302 4700 
Q 1616 4750 1894 4750 
Q 2613 4750 3031 4423 
Q 3450 4097 3450 3541 
Q 3450 3153 3228 2886 
Q 3006 2619 2597 2516 
z
" transform="scale(0.015625)"/>
       </defs>
       <use xlink:href="#DejaVuSans-33"/>
      </g>
     </g>
    </g>
    <g id="xtick_5">
     <g id="line2d_5">
      <g>
       <use xlink:href="#md900cee447" x="220.682678" y="298.341022" style="stroke: #000000; stroke-width: 0.8"/>
      </g>
     </g>
     <g id="text_5">
      <!-- 4 -->
      <g transform="translate(217.501428 312.939459)scale(0.1 -0.1)">
       <defs>
        <path id="DejaVuSans-34" d="M 2419 4116 
L 825 1625 
L 2419 1625 
L 2419 4116 
z
M 2253 4666 
L 3047 4666 
L 3047 1625 
L 3713 1625 
L 3713 1100 
L 3047 1100 
L 3047 0 
L 2419 0 
L 2419 1100 
L 313 1100 
L 313 1709 
L 2253 4666 
z
" transform="scale(0.015625)"/>
       </defs>
       <use xlink:href="#DejaVuSans-34"/>
      </g>
     </g>
    </g>
    <g id="xtick_6">
     <g id="line2d_6">
      <g>
       <use xlink:href="#md900cee447" x="256.79477" y="298.341022" style="stroke: #000000; stroke-width: 0.8"/>
      </g>
     </g>
     <g id="text_6">
      <!-- 5 -->
      <g transform="translate(253.61352 312.939459)scale(0.1 -0.1)">
       <defs>
        <path id="DejaVuSans-35" d="M 691 4666 
L 3169 4666 
L 3169 4134 
L 1269 4134 
L 1269 2991 
Q 1406 3038 1543 3061 
Q 1681 3084 1819 3084 
Q 2600 3084 3056 2656 
Q 3513 2228 3513 1497 
Q 3513 744 3044 326 
Q 2575 -91 1722 -91 
Q 1428 -91 1123 -41 
Q 819 9 494 109 
L 494 744 
Q 775 591 1075 516 
Q 1375 441 1709 441 
Q 2250 441 2565 725 
Q 2881 1009 2881 1497 
Q 2881 1984 2565 2268 
Q 2250 2553 1709 2553 
Q 1456 2553 1204 2497 
Q 953 2441 691 2322 
L 691 4666 
z
" transform="scale(0.015625)"/>
       </defs>
       <use xlink:href="#DejaVuSans-35"/>
      </g>
     </g>
    </g>
    <g id="xtick_7">
     <g id="line2d_7">
      <g>
       <use xlink:href="#md900cee447" x="292.906862" y="298.341022" style="stroke: #000000; stroke-width: 0.8"/>
      </g>
     </g>
     <g id="text_7">
      <!-- 6 -->
      <g transform="translate(289.725612 312.939459)scale(0.1 -0.1)">
       <defs>
        <path id="DejaVuSans-36" d="M 2113 2584 
Q 1688 2584 1439 2293 
Q 1191 2003 1191 1497 
Q 1191 994 1439 701 
Q 1688 409 2113 409 
Q 2538 409 2786 701 
Q 3034 994 3034 1497 
Q 3034 2003 2786 2293 
Q 2538 2584 2113 2584 
z
M 3366 4563 
L 3366 3988 
Q 3128 4100 2886 4159 
Q 2644 4219 2406 4219 
Q 1781 4219 1451 3797 
Q 1122 3375 1075 2522 
Q 1259 2794 1537 2939 
Q 1816 3084 2150 3084 
Q 2853 3084 3261 2657 
Q 3669 2231 3669 1497 
Q 3669 778 3244 343 
Q 2819 -91 2113 -91 
Q 1303 -91 875 529 
Q 447 1150 447 2328 
Q 447 3434 972 4092 
Q 1497 4750 2381 4750 
Q 2619 4750 2861 4703 
Q 3103 4656 3366 4563 
z
" transform="scale(0.015625)"/>
       </defs>
       <use xlink:href="#DejaVuSans-36"/>
      </g>
     </g>
    </g>
    <g id="xtick_8">
     <g id="line2d_8">
      <g>
       <use xlink:href="#md900cee447" x="329.018954" y="298.341022" style="stroke: #000000; stroke-width: 0.8"/>
      </g>
     </g>
     <g id="text_8">
      <!-- 7 -->
      <g transform="translate(325.837704 312.939459)scale(0.1 -0.1)">
       <defs>
        <path id="DejaVuSans-37" d="M 525 4666 
L 3525 4666 
L 3525 4397 
L 1831 0 
L 1172 0 
L 2766 4134 
L 525 4134 
L 525 4666 
z
" transform="scale(0.015625)"/>
       </defs>
       <use xlink:href="#DejaVuSans-37"/>
      </g>
     </g>
    </g>
    <g id="xtick_9">
     <g id="line2d_9">
      <g>
       <use xlink:href="#md900cee447" x="365.131046" y="298.341022" style="stroke: #000000; stroke-width: 0.8"/>
      </g>
     </g>
     <g id="text_9">
      <!-- 8 -->
      <g transform="translate(361.949796 312.939459)scale(0.1 -0.1)">
       <defs>
        <path id="DejaVuSans-38" d="M 2034 2216 
Q 1584 2216 1326 1975 
Q 1069 1734 1069 1313 
Q 1069 891 1326 650 
Q 1584 409 2034 409 
Q 2484 409 2743 651 
Q 3003 894 3003 1313 
Q 3003 1734 2745 1975 
Q 2488 2216 2034 2216 
z
M 1403 2484 
Q 997 2584 770 2862 
Q 544 3141 544 3541 
Q 544 4100 942 4425 
Q 1341 4750 2034 4750 
Q 2731 4750 3128 4425 
Q 3525 4100 3525 3541 
Q 3525 3141 3298 2862 
Q 3072 2584 2669 2484 
Q 3125 2378 3379 2068 
Q 3634 1759 3634 1313 
Q 3634 634 3220 271 
Q 2806 -91 2034 -91 
Q 1263 -91 848 271 
Q 434 634 434 1313 
Q 434 1759 690 2068 
Q 947 2378 1403 2484 
z
M 1172 3481 
Q 1172 3119 1398 2916 
Q 1625 2713 2034 2713 
Q 2441 2713 2670 2916 
Q 2900 3119 2900 3481 
Q 2900 3844 2670 4047 
Q 2441 4250 2034 4250 
Q 1625 4250 1398 4047 
Q 1172 3844 1172 3481 
z
" transform="scale(0.015625)"/>
       </defs>
       <use xlink:href="#DejaVuSans-38"/>
      </g>
     </g>
    </g>
    <g id="xtick_10">
     <g id="line2d_10">
      <g>
       <use xlink:href="#md900cee447" x="401.243138" y="298.341022" style="stroke: #000000; stroke-width: 0.8"/>
      </g>
     </g>
     <g id="text_10">
      <!-- 9 -->
      <g transform="translate(398.061888 312.939459)scale(0.1 -0.1)">
       <defs>
        <path id="DejaVuSans-39" d="M 703 97 
L 703 672 
Q 941 559 1184 500 
Q 1428 441 1663 441 
Q 2288 441 2617 861 
Q 2947 1281 2994 2138 
Q 2813 1869 2534 1725 
Q 2256 1581 1919 1581 
Q 1219 1581 811 2004 
Q 403 2428 403 3163 
Q 403 3881 828 4315 
Q 1253 4750 1959 4750 
Q 2769 4750 3195 4129 
Q 3622 3509 3622 2328 
Q 3622 1225 3098 567 
Q 2575 -91 1691 -91 
Q 1453 -91 1209 -44 
Q 966 3 703 97 
z
M 1959 2075 
Q 2384 2075 2632 2365 
Q 2881 2656 2881 3163 
Q 2881 3666 2632 3958 
Q 2384 4250 1959 4250 
Q 1534 4250 1286 3958 
Q 1038 3666 1038 3163 
Q 1038 2656 1286 2365 
Q 1534 2075 1959 2075 
z
" transform="scale(0.015625)"/>
       </defs>
       <use xlink:href="#DejaVuSans-39"/>
      </g>
     </g>
    </g>
    <g id="xtick_11">
     <g id="line2d_11">
      <g>
       <use xlink:href="#md900cee447" x="437.35523" y="298.341022" style="stroke: #000000; stroke-width: 0.8"/>
      </g>
     </g>
     <g id="text_11">
      <!-- 10 -->
      <g transform="translate(430.99273 312.939459)scale(0.1 -0.1)">
       <use xlink:href="#DejaVuSans-31"/>
       <use xlink:href="#DejaVuSans-30" x="63.623047"/>
      </g>
     </g>
    </g>
    <g id="xtick_12">
     <g id="line2d_12">
      <g>
       <use xlink:href="#md900cee447" x="473.467322" y="298.341022" style="stroke: #000000; stroke-width: 0.8"/>
      </g>
     </g>
     <g id="text_12">
      <!-- 11 -->
      <g transform="translate(467.104822 312.939459)scale(0.1 -0.1)">
       <use xlink:href="#DejaVuSans-31"/>
       <use xlink:href="#DejaVuSans-31" x="63.623047"/>
      </g>
     </g>
    </g>
    <g id="xtick_13">
     <g id="line2d_13">
      <g>
       <use xlink:href="#md900cee447" x="509.579415" y="298.341022" style="stroke: #000000; stroke-width: 0.8"/>
      </g>
     </g>
     <g id="text_13">
      <!-- 12 -->
      <g transform="translate(503.216915 312.939459)scale(0.1 -0.1)">
       <use xlink:href="#DejaVuSans-31"/>
       <use xlink:href="#DejaVuSans-32" x="63.623047"/>
      </g>
     </g>
    </g>
    <g id="xtick_14">
     <g id="line2d_14">
      <g>
       <use xlink:href="#md900cee447" x="545.691507" y="298.341022" style="stroke: #000000; stroke-width: 0.8"/>
      </g>
     </g>
     <g id="text_14">
      <!-- 13 -->
      <g transform="translate(539.329007 312.939459)scale(0.1 -0.1)">
       <use xlink:href="#DejaVuSans-31"/>
       <use xlink:href="#DejaVuSans-33" x="63.623047"/>
      </g>
     </g>
    </g>
    <g id="xtick_15">
     <g id="line2d_15">
      <g>
       <use xlink:href="#md900cee447" x="581.803599" y="298.341022" style="stroke: #000000; stroke-width: 0.8"/>
      </g>
     </g>
     <g id="text_15">
      <!-- 14 -->
      <g transform="translate(575.441099 312.939459)scale(0.1 -0.1)">
       <use xlink:href="#DejaVuSans-31"/>
       <use xlink:href="#DejaVuSans-34" x="63.623047"/>
      </g>
     </g>
    </g>
    <g id="xtick_16">
     <g id="line2d_16">
      <g>
       <use xlink:href="#md900cee447" x="617.915691" y="298.341022" style="stroke: #000000; stroke-width: 0.8"/>
      </g>
     </g>
     <g id="text_16">
      <!-- 15 -->
      <g transform="translate(611.553191 312.939459)scale(0.1 -0.1)">
       <use xlink:href="#DejaVuSans-31"/>
       <use xlink:href="#DejaVuSans-35" x="63.623047"/>
      </g>
     </g>
    </g>
    <g id="text_17">
     <!-- Roll Pass -->
     <g transform="translate(325.335938 326.617584)scale(0.1 -0.1)">
      <defs>
       <path id="DejaVuSans-52" d="M 2841 2188 
Q 3044 2119 3236 1894 
Q 3428 1669 3622 1275 
L 4263 0 
L 3584 0 
L 2988 1197 
Q 2756 1666 2539 1819 
Q 2322 1972 1947 1972 
L 1259 1972 
L 1259 0 
L 628 0 
L 628 4666 
L 2053 4666 
Q 2853 4666 3247 4331 
Q 3641 3997 3641 3322 
Q 3641 2881 3436 2590 
Q 3231 2300 2841 2188 
z
M 1259 4147 
L 1259 2491 
L 2053 2491 
Q 2509 2491 2742 2702 
Q 2975 2913 2975 3322 
Q 2975 3731 2742 3939 
Q 2509 4147 2053 4147 
L 1259 4147 
z
" transform="scale(0.015625)"/>
       <path id="DejaVuSans-6f" d="M 1959 3097 
Q 1497 3097 1228 2736 
Q 959 2375 959 1747 
Q 959 1119 1226 758 
Q 1494 397 1959 397 
Q 2419 397 2687 759 
Q 2956 1122 2956 1747 
Q 2956 2369 2687 2733 
Q 2419 3097 1959 3097 
z
M 1959 3584 
Q 2709 3584 3137 3096 
Q 3566 2609 3566 1747 
Q 3566 888 3137 398 
Q 2709 -91 1959 -91 
Q 1206 -91 779 398 
Q 353 888 353 1747 
Q 353 2609 779 3096 
Q 1206 3584 1959 3584 
z
" transform="scale(0.015625)"/>
       <path id="DejaVuSans-6c" d="M 603 4863 
L 1178 4863 
L 1178 0 
L 603 0 
L 603 4863 
z
" transform="scale(0.015625)"/>
       <path id="DejaVuSans-20" transform="scale(0.015625)"/>
       <path id="DejaVuSans-50" d="M 1259 4147 
L 1259 2394 
L 2053 2394 
Q 2494 2394 2734 2622 
Q 2975 2850 2975 3272 
Q 2975 3691 2734 3919 
Q 2494 4147 2053 4147 
L 1259 4147 
z
M 628 4666 
L 2053 4666 
Q 2838 4666 3239 4311 
Q 3641 3956 3641 3272 
Q 3641 2581 3239 2228 
Q 2838 1875 2053 1875 
L 1259 1875 
L 1259 0 
L 628 0 
L 628 4666 
z
" transform="scale(0.015625)"/>
       <path id="DejaVuSans-61" d="M 2194 1759 
Q 1497 1759 1228 1600 
Q 959 1441 959 1056 
Q 959 750 1161 570 
Q 1363 391 1709 391 
Q 2188 391 2477 730 
Q 2766 1069 2766 1631 
L 2766 1759 
L 2194 1759 
z
M 3341 1997 
L 3341 0 
L 2766 0 
L 2766 531 
Q 2569 213 2275 61 
Q 1981 -91 1556 -91 
Q 1019 -91 701 211 
Q 384 513 384 1019 
Q 384 1609 779 1909 
Q 1175 2209 1959 2209 
L 2766 2209 
L 2766 2266 
Q 2766 2663 2505 2880 
Q 2244 3097 1772 3097 
Q 1472 3097 1187 3025 
Q 903 2953 641 2809 
L 641 3341 
Q 956 3463 1253 3523 
Q 1550 3584 1831 3584 
Q 2591 3584 2966 3190 
Q 3341 2797 3341 1997 
z
" transform="scale(0.015625)"/>
       <path id="DejaVuSans-73" d="M 2834 3397 
L 2834 2853 
Q 2591 2978 2328 3040 
Q 2066 3103 1784 3103 
Q 1356 3103 1142 2972 
Q 928 2841 928 2578 
Q 928 2378 1081 2264 
Q 1234 2150 1697 2047 
L 1894 2003 
Q 2506 1872 2764 1633 
Q 3022 1394 3022 966 
Q 3022 478 2636 193 
Q 2250 -91 1575 -91 
Q 1294 -91 989 -36 
Q 684 19 347 128 
L 347 722 
Q 666 556 975 473 
Q 1284 391 1588 391 
Q 1994 391 2212 530 
Q 2431 669 2431 922 
Q 2431 1156 2273 1281 
Q 2116 1406 1581 1522 
L 1381 1569 
Q 847 1681 609 1914 
Q 372 2147 372 2553 
Q 372 3047 722 3315 
Q 1072 3584 1716 3584 
Q 2034 3584 2315 3537 
Q 2597 3491 2834 3397 
z
" transform="scale(0.015625)"/>
      </defs>
      <use xlink:href="#DejaVuSans-52"/>
      <use xlink:href="#DejaVuSans-6f" x="64.982422"/>
      <use xlink:href="#DejaVuSans-6c" x="126.164062"/>
      <use xlink:href="#DejaVuSans-6c" x="153.947266"/>
      <use xlink:href="#DejaVuSans-20" x="181.730469"/>
      <use xlink:href="#DejaVuSans-50" x="213.517578"/>
      <use xlink:href="#DejaVuSans-61" x="269.320312"/>
      <use xlink:href="#DejaVuSans-73" x="330.599609"/>
      <use xlink:href="#DejaVuSans-73" x="382.699219"/>
     </g>
    </g>
   </g>
   <g id="matplotlib.axis_2">
    <g id="ytick_1">
     <g id="line2d_17">
      <defs>
       <path id="m8399fb673e" d="M 0 0 
L -3.5 0 
" style="stroke: #000000; stroke-width: 0.8"/>
      </defs>
      <g>
       <use xlink:href="#m8399fb673e" x="49.15024" y="281.586906" style="stroke: #000000; stroke-width: 0.8"/>
      </g>
     </g>
     <g id="text_18">
      <!-- 980 -->
      <g transform="translate(23.06274 285.386125)scale(0.1 -0.1)">
       <use xlink:href="#DejaVuSans-39"/>
       <use xlink:href="#DejaVuSans-38" x="63.623047"/>
       <use xlink:href="#DejaVuSans-30" x="127.246094"/>
      </g>
     </g>
    </g>
    <g id="ytick_2">
     <g id="line2d_18">
      <g>
       <use xlink:href="#m8399fb673e" x="49.15024" y="241.419689" style="stroke: #000000; stroke-width: 0.8"/>
      </g>
     </g>
     <g id="text_19">
      <!-- 1000 -->
      <g transform="translate(16.70024 245.218907)scale(0.1 -0.1)">
       <use xlink:href="#DejaVuSans-31"/>
       <use xlink:href="#DejaVuSans-30" x="63.623047"/>
       <use xlink:href="#DejaVuSans-30" x="127.246094"/>
       <use xlink:href="#DejaVuSans-30" x="190.869141"/>
      </g>
     </g>
    </g>
    <g id="ytick_3">
     <g id="line2d_19">
      <g>
       <use xlink:href="#m8399fb673e" x="49.15024" y="201.252471" style="stroke: #000000; stroke-width: 0.8"/>
      </g>
     </g>
     <g id="text_20">
      <!-- 1020 -->
      <g transform="translate(16.70024 205.05169)scale(0.1 -0.1)">
       <use xlink:href="#DejaVuSans-31"/>
       <use xlink:href="#DejaVuSans-30" x="63.623047"/>
       <use xlink:href="#DejaVuSans-32" x="127.246094"/>
       <use xlink:href="#DejaVuSans-30" x="190.869141"/>
      </g>
     </g>
    </g>
    <g id="ytick_4">
     <g id="line2d_20">
      <g>
       <use xlink:href="#m8399fb673e" x="49.15024" y="161.085253" style="stroke: #000000; stroke-width: 0.8"/>
      </g>
     </g>
     <g id="text_21">
      <!-- 1040 -->
      <g transform="translate(16.70024 164.884472)scale(0.1 -0.1)">
       <use xlink:href="#DejaVuSans-31"/>
       <use xlink:href="#DejaVuSans-30" x="63.623047"/>
       <use xlink:href="#DejaVuSans-34" x="127.246094"/>
       <use xlink:href="#DejaVuSans-30" x="190.869141"/>
      </g>
     </g>
    </g>
    <g id="ytick_5">
     <g id="line2d_21">
      <g>
       <use xlink:href="#m8399fb673e" x="49.15024" y="120.918035" style="stroke: #000000; stroke-width: 0.8"/>
      </g>
     </g>
     <g id="text_22">
      <!-- 1060 -->
      <g transform="translate(16.70024 124.717254)scale(0.1 -0.1)">
       <use xlink:href="#DejaVuSans-31"/>
       <use xlink:href="#DejaVuSans-30" x="63.623047"/>
       <use xlink:href="#DejaVuSans-36" x="127.246094"/>
       <use xlink:href="#DejaVuSans-30" x="190.869141"/>
      </g>
     </g>
    </g>
    <g id="ytick_6">
     <g id="line2d_22">
      <g>
       <use xlink:href="#m8399fb673e" x="49.15024" y="80.750818" style="stroke: #000000; stroke-width: 0.8"/>
      </g>
     </g>
     <g id="text_23">
      <!-- 1080 -->
      <g transform="translate(16.70024 84.550036)scale(0.1 -0.1)">
       <use xlink:href="#DejaVuSans-31"/>
       <use xlink:href="#DejaVuSans-30" x="63.623047"/>
       <use xlink:href="#DejaVuSans-38" x="127.246094"/>
       <use xlink:href="#DejaVuSans-30" x="190.869141"/>
      </g>
     </g>
    </g>
    <g id="ytick_7">
     <g id="line2d_23">
      <g>
       <use xlink:href="#m8399fb673e" x="49.15024" y="40.5836" style="stroke: #000000; stroke-width: 0.8"/>
      </g>
     </g>
     <g id="text_24">
      <!-- 1100 -->
      <g transform="translate(16.70024 44.382819)scale(0.1 -0.1)">
       <use xlink:href="#DejaVuSans-31"/>
       <use xlink:href="#DejaVuSans-31" x="63.623047"/>
       <use xlink:href="#DejaVuSans-30" x="127.246094"/>
       <use xlink:href="#DejaVuSans-30" x="190.869141"/>
      </g>
     </g>
    </g>
    <g id="text_25">
     <!-- Temperature $T$ in $\mathrm{K}$ -->
     <g transform="translate(10.60024 206.529693)rotate(-90)scale(0.1 -0.1)">
      <defs>
       <path id="DejaVuSans-54" d="M -19 4666 
L 3928 4666 
L 3928 4134 
L 2272 4134 
L 2272 0 
L 1638 0 
L 1638 4134 
L -19 4134 
L -19 4666 
z
" transform="scale(0.015625)"/>
       <path id="DejaVuSans-65" d="M 3597 1894 
L 3597 1613 
L 953 1613 
Q 991 1019 1311 708 
Q 1631 397 2203 397 
Q 2534 397 2845 478 
Q 3156 559 3463 722 
L 3463 178 
Q 3153 47 2828 -22 
Q 2503 -91 2169 -91 
Q 1331 -91 842 396 
Q 353 884 353 1716 
Q 353 2575 817 3079 
Q 1281 3584 2069 3584 
Q 2775 3584 3186 3129 
Q 3597 2675 3597 1894 
z
M 3022 2063 
Q 3016 2534 2758 2815 
Q 2500 3097 2075 3097 
Q 1594 3097 1305 2825 
Q 1016 2553 972 2059 
L 3022 2063 
z
" transform="scale(0.015625)"/>
       <path id="DejaVuSans-6d" d="M 3328 2828 
Q 3544 3216 3844 3400 
Q 4144 3584 4550 3584 
Q 5097 3584 5394 3201 
Q 5691 2819 5691 2113 
L 5691 0 
L 5113 0 
L 5113 2094 
Q 5113 2597 4934 2840 
Q 4756 3084 4391 3084 
Q 3944 3084 3684 2787 
Q 3425 2491 3425 1978 
L 3425 0 
L 2847 0 
L 2847 2094 
Q 2847 2600 2669 2842 
Q 2491 3084 2119 3084 
Q 1678 3084 1418 2786 
Q 1159 2488 1159 1978 
L 1159 0 
L 581 0 
L 581 3500 
L 1159 3500 
L 1159 2956 
Q 1356 3278 1631 3431 
Q 1906 3584 2284 3584 
Q 2666 3584 2933 3390 
Q 3200 3197 3328 2828 
z
" transform="scale(0.015625)"/>
       <path id="DejaVuSans-70" d="M 1159 525 
L 1159 -1331 
L 581 -1331 
L 581 3500 
L 1159 3500 
L 1159 2969 
Q 1341 3281 1617 3432 
Q 1894 3584 2278 3584 
Q 2916 3584 3314 3078 
Q 3713 2572 3713 1747 
Q 3713 922 3314 415 
Q 2916 -91 2278 -91 
Q 1894 -91 1617 61 
Q 1341 213 1159 525 
z
M 3116 1747 
Q 3116 2381 2855 2742 
Q 2594 3103 2138 3103 
Q 1681 3103 1420 2742 
Q 1159 2381 1159 1747 
Q 1159 1113 1420 752 
Q 1681 391 2138 391 
Q 2594 391 2855 752 
Q 3116 1113 3116 1747 
z
" transform="scale(0.015625)"/>
       <path id="DejaVuSans-72" d="M 2631 2963 
Q 2534 3019 2420 3045 
Q 2306 3072 2169 3072 
Q 1681 3072 1420 2755 
Q 1159 2438 1159 1844 
L 1159 0 
L 581 0 
L 581 3500 
L 1159 3500 
L 1159 2956 
Q 1341 3275 1631 3429 
Q 1922 3584 2338 3584 
Q 2397 3584 2469 3576 
Q 2541 3569 2628 3553 
L 2631 2963 
z
" transform="scale(0.015625)"/>
       <path id="DejaVuSans-74" d="M 1172 4494 
L 1172 3500 
L 2356 3500 
L 2356 3053 
L 1172 3053 
L 1172 1153 
Q 1172 725 1289 603 
Q 1406 481 1766 481 
L 2356 481 
L 2356 0 
L 1766 0 
Q 1100 0 847 248 
Q 594 497 594 1153 
L 594 3053 
L 172 3053 
L 172 3500 
L 594 3500 
L 594 4494 
L 1172 4494 
z
" transform="scale(0.015625)"/>
       <path id="DejaVuSans-75" d="M 544 1381 
L 544 3500 
L 1119 3500 
L 1119 1403 
Q 1119 906 1312 657 
Q 1506 409 1894 409 
Q 2359 409 2629 706 
Q 2900 1003 2900 1516 
L 2900 3500 
L 3475 3500 
L 3475 0 
L 2900 0 
L 2900 538 
Q 2691 219 2414 64 
Q 2138 -91 1772 -91 
Q 1169 -91 856 284 
Q 544 659 544 1381 
z
M 1991 3584 
L 1991 3584 
z
" transform="scale(0.015625)"/>
       <path id="DejaVuSans-Oblique-54" d="M 378 4666 
L 4325 4666 
L 4225 4134 
L 2559 4134 
L 1759 0 
L 1125 0 
L 1925 4134 
L 275 4134 
L 378 4666 
z
" transform="scale(0.015625)"/>
       <path id="DejaVuSans-69" d="M 603 3500 
L 1178 3500 
L 1178 0 
L 603 0 
L 603 3500 
z
M 603 4863 
L 1178 4863 
L 1178 4134 
L 603 4134 
L 603 4863 
z
" transform="scale(0.015625)"/>
       <path id="DejaVuSans-6e" d="M 3513 2113 
L 3513 0 
L 2938 0 
L 2938 2094 
Q 2938 2591 2744 2837 
Q 2550 3084 2163 3084 
Q 1697 3084 1428 2787 
Q 1159 2491 1159 1978 
L 1159 0 
L 581 0 
L 581 3500 
L 1159 3500 
L 1159 2956 
Q 1366 3272 1645 3428 
Q 1925 3584 2291 3584 
Q 2894 3584 3203 3211 
Q 3513 2838 3513 2113 
z
" transform="scale(0.015625)"/>
       <path id="DejaVuSans-4b" d="M 628 4666 
L 1259 4666 
L 1259 2694 
L 3353 4666 
L 4166 4666 
L 1850 2491 
L 4331 0 
L 3500 0 
L 1259 2247 
L 1259 0 
L 628 0 
L 628 4666 
z
" transform="scale(0.015625)"/>
      </defs>
      <use xlink:href="#DejaVuSans-54" transform="translate(0 0.015625)"/>
      <use xlink:href="#DejaVuSans-65" transform="translate(61.083984 0.015625)"/>
      <use xlink:href="#DejaVuSans-6d" transform="translate(122.607422 0.015625)"/>
      <use xlink:href="#DejaVuSans-70" transform="translate(220.019531 0.015625)"/>
      <use xlink:href="#DejaVuSans-65" transform="translate(283.496094 0.015625)"/>
      <use xlink:href="#DejaVuSans-72" transform="translate(345.019531 0.015625)"/>
      <use xlink:href="#DejaVuSans-61" transform="translate(386.132812 0.015625)"/>
      <use xlink:href="#DejaVuSans-74" transform="translate(447.412109 0.015625)"/>
      <use xlink:href="#DejaVuSans-75" transform="translate(486.621094 0.015625)"/>
      <use xlink:href="#DejaVuSans-72" transform="translate(550 0.015625)"/>
      <use xlink:href="#DejaVuSans-65" transform="translate(591.113281 0.015625)"/>
      <use xlink:href="#DejaVuSans-20" transform="translate(652.636719 0.015625)"/>
      <use xlink:href="#DejaVuSans-Oblique-54" transform="translate(684.423828 0.015625)"/>
      <use xlink:href="#DejaVuSans-20" transform="translate(745.507812 0.015625)"/>
      <use xlink:href="#DejaVuSans-69" transform="translate(777.294922 0.015625)"/>
      <use xlink:href="#DejaVuSans-6e" transform="translate(805.078125 0.015625)"/>
      <use xlink:href="#DejaVuSans-20" transform="translate(868.457031 0.015625)"/>
      <use xlink:href="#DejaVuSans-4b" transform="translate(900.244141 0.015625)"/>
     </g>
    </g>
   </g>
   <g id="line2d_24">
    <path d="M 76.234309 112.884592 
L 112.346401 259.494937 
L 148.458493 205.269193 
L 184.570585 207.277554 
L 220.682678 235.394606 
L 256.79477 255.478215 
L 292.906862 271.545102 
L 329.018954 231.377884 
L 365.131046 245.43641 
L 401.243138 245.43641 
L 437.35523 267.52838 
L 473.467322 235.394606 
L 509.579415 245.43641 
L 545.691507 285.603628 
L 581.803599 201.252471 
L 617.915691 199.24411 
" clip-path="url(#p4d52a76f1e)" style="fill: none; stroke: #808080; stroke-width: 1.5; stroke-linecap: square"/>
   </g>
   <g id="line2d_25">
    <path d="M 76.234309 195.227388 
L 112.346401 231.377884 
L 148.458493 201.252471 
L 184.570585 201.252471 
L 220.682678 241.419689 
L 256.79477 211.294275 
L 292.906862 251.461493 
L 329.018954 241.419689 
L 365.131046 243.42805 
L 401.243138 271.545102 
L 437.35523 271.545102 
L 473.467322 231.377884 
L 509.579415 211.294275 
L 545.691507 211.294275 
L 581.803599 145.018366 
L 617.915691 141.001644 
" clip-path="url(#p4d52a76f1e)" style="fill: none; stroke-dasharray: 5.55,2.4; stroke-dashoffset: 0; stroke: #808080; stroke-width: 1.5"/>
   </g>
   <g id="line2d_26">
    <path d="M 76.234309 40.5836 
L 112.346401 90.792622 
L 148.458493 128.951479 
L 184.570585 161.085253 
L 220.682678 187.193945 
L 256.79477 199.24411 
L 292.906862 191.210666 
L 329.018954 219.327719 
L 365.131046 233.386245 
L 401.243138 231.377884 
L 437.35523 231.377884 
L 473.467322 217.319358 
L 509.579415 201.252471 
L 545.691507 185.185584 
L 581.803599 179.160501 
L 617.915691 161.085253 
" clip-path="url(#p4d52a76f1e)" style="fill: none; stroke: #000000; stroke-width: 1.5; stroke-linecap: square"/>
   </g>
   <g id="line2d_27">
    <path d="M 76.234309 48.599853 
L 94.290355 60.066118 
L 112.346401 64.341671 
L 130.402447 73.79768 
L 148.458493 76.15122 
L 166.514539 83.70135 
L 184.570585 83.922245 
L 202.626632 90.932943 
L 220.682678 87.037899 
L 238.738724 93.313174 
L 256.79477 90.958405 
L 274.850816 98.094556 
L 292.906862 91.945549 
L 310.962908 98.361679 
L 329.018954 93.358403 
L 347.075 109.913077 
L 365.131046 99.116941 
L 383.187092 106.86677 
L 401.243138 101.012409 
L 419.299184 107.493214 
L 437.35523 92.96133 
L 455.411276 98.82722 
L 473.467322 89.083673 
L 491.523368 93.722758 
L 509.579415 81.264478 
L 527.635461 87.50524 
L 545.691507 79.13133 
L 563.747553 84.325221 
L 581.803599 70.33739 
L 599.859645 75.40612 
L 617.915691 67.217882 
" clip-path="url(#p4d52a76f1e)" style="fill: none; stroke: #1f77b4; stroke-width: 1.5; stroke-linecap: square"/>
   </g>
   <g id="line2d_28">
    <path d="M 76.234309 48.572675 
L 94.290355 60.046759 
L 112.346401 64.149418 
L 130.402447 73.629393 
L 148.458493 75.654114 
L 166.514539 83.247553 
L 184.570585 83.41166 
L 202.626632 90.437012 
L 220.682678 86.282441 
L 238.738724 92.585301 
L 256.79477 89.862558 
L 274.850816 97.066259 
L 292.906862 90.991426 
L 310.962908 97.428395 
L 329.018954 92.10295 
L 347.075 108.773914 
L 365.131046 97.707042 
L 383.187092 105.494432 
L 401.243138 99.504299 
L 419.299184 106.050655 
L 437.35523 91.382853 
L 455.411276 97.28138 
L 473.467322 87.503697 
L 491.523368 92.19065 
L 509.579415 79.954371 
L 527.635461 86.218843 
L 545.691507 77.806369 
L 563.747553 83.03178 
L 581.803599 69.033271 
L 599.859645 74.120273 
L 617.915691 65.86163 
" clip-path="url(#p4d52a76f1e)" style="fill: none; stroke: #1f77b4; stroke-width: 1.5; stroke-linecap: square"/>
   </g>
   <g id="line2d_29">
    <path d="M 76.234309 48.578859 
L 94.290355 60.051257 
L 112.346401 64.091802 
L 130.402447 73.580463 
L 148.458493 75.985981 
L 166.514539 83.511996 
L 184.570585 83.504522 
L 202.626632 90.545082 
L 220.682678 87.170582 
L 238.738724 93.437113 
L 256.79477 90.642284 
L 274.850816 97.827098 
L 292.906862 92.184556 
L 310.962908 98.586835 
L 329.018954 93.430573 
L 347.075 109.992231 
L 365.131046 100.247855 
L 383.187092 107.952067 
L 401.243138 101.368063 
L 419.299184 107.842794 
L 437.35523 95.529967 
L 455.411276 101.303798 
L 473.467322 89.852769 
L 491.523368 94.46812 
L 509.579415 83.177654 
L 527.635461 89.352431 
L 545.691507 79.873424 
L 563.747553 85.049821 
L 581.803599 72.547998 
L 599.859645 77.561774 
L 617.915691 68.200121 
" clip-path="url(#p4d52a76f1e)" style="fill: none; stroke: #1f77b4; stroke-width: 1.5; stroke-linecap: square"/>
   </g>
   <g id="line2d_30">
    <path d="M 76.234309 48.537262 
L 94.290355 60.0215 
L 112.346401 63.89427 
L 130.402447 73.412898 
L 148.458493 75.571182 
L 166.514539 83.128842 
L 184.570585 83.154764 
L 202.626632 90.195709 
L 220.682678 86.517769 
L 238.738724 92.791629 
L 256.79477 89.693606 
L 274.850816 96.93179 
L 292.906862 91.341612 
L 310.962908 97.757388 
L 329.018954 92.331597 
L 347.075 108.988377 
L 365.131046 98.875221 
L 383.187092 106.610345 
L 401.243138 99.964174 
L 419.299184 106.497346 
L 437.35523 93.871318 
L 455.411276 99.683751 
L 473.467322 88.356511 
L 491.523368 93.014651 
L 509.579415 81.842713 
L 527.635461 88.041021 
L 545.691507 78.635217 
L 563.747553 83.837854 
L 581.803599 71.232267 
L 599.859645 76.263331 
L 617.915691 66.91147 
" clip-path="url(#p4d52a76f1e)" style="fill: none; stroke: #1f77b4; stroke-width: 1.5; stroke-linecap: square"/>
   </g>
   <g id="line2d_31">
    <path d="M 76.234309 48.458748 
L 94.290355 59.966032 
L 112.346401 64.228407 
L 130.402447 73.6856 
L 148.458493 76.475342 
L 166.514539 83.958741 
L 184.570585 84.548405 
L 202.626632 91.515865 
L 220.682678 88.235904 
L 238.738724 94.507781 
L 256.79477 93.062261 
L 274.850816 100.06502 
L 292.906862 94.268793 
L 310.962908 100.677438 
L 329.018954 96.397257 
L 347.075 112.915272 
L 365.131046 104.21013 
L 383.187092 111.87261 
L 401.243138 106.26065 
L 419.299184 112.632969 
L 437.35523 101.91553 
L 455.411276 107.553286 
L 473.467322 97.470612 
L 491.523368 102.007022 
L 509.579415 91.859996 
L 527.635461 97.915742 
L 545.691507 88.491864 
L 563.747553 93.566653 
L 581.803599 81.902877 
L 599.859645 86.882928 
L 617.915691 78.313454 
" clip-path="url(#p4d52a76f1e)" style="fill: none; stroke: #1f77b4; stroke-width: 1.5; stroke-linecap: square"/>
   </g>
   <g id="line2d_32">
    <path d="M 76.234309 48.42422 
L 94.290355 59.941668 
L 112.346401 63.985003 
L 130.402447 73.473514 
L 148.458493 75.81174 
L 166.514539 83.350859 
L 184.570585 83.733868 
L 202.626632 90.72806 
L 220.682678 86.935742 
L 238.738724 93.205662 
L 256.79477 90.929729 
L 274.850816 98.052755 
L 292.906862 92.16061 
L 310.962908 98.562336 
L 329.018954 93.679306 
L 347.075 110.184797 
L 365.131046 100.163812 
L 383.187092 107.871741 
L 401.243138 102.013674 
L 419.299184 108.429152 
L 437.35523 96.210815 
L 455.411276 101.957378 
L 473.467322 92.049193 
L 491.523368 96.541962 
L 509.579415 84.633177 
L 527.635461 90.761817 
L 545.691507 81.888191 
L 563.747553 86.95776 
L 581.803599 74.189257 
L 599.859645 79.1704 
L 617.915691 70.650419 
" clip-path="url(#p4d52a76f1e)" style="fill: none; stroke: #1f77b4; stroke-width: 1.5; stroke-linecap: square"/>
   </g>
   <g id="line2d_33">
    <path d="M 76.234309 46.406062 
L 94.290355 57.904616 
L 112.346401 59.92918 
L 130.402447 69.43909 
L 148.458493 69.617494 
L 166.514539 77.23555 
L 184.570585 75.463954 
L 202.626632 82.551913 
L 220.682678 76.236222 
L 238.738724 82.600028 
L 256.79477 78.499042 
L 274.850816 85.751489 
L 292.906862 77.31993 
L 310.962908 83.859019 
L 329.018954 76.979155 
L 347.075 93.887624 
L 365.131046 80.194554 
L 383.187092 88.137189 
L 401.243138 80.57187 
L 419.299184 87.227191 
L 437.35523 68.780763 
L 455.411276 74.845024 
L 473.467322 62.598161 
L 491.523368 67.409202 
L 509.579415 52.263804 
L 527.635461 58.757343 
L 545.691507 48.542721 
L 563.747553 53.958672 
L 581.803599 36.849925 
L 599.859645 42.155624 
L 617.915691 32.111839 
" clip-path="url(#p4d52a76f1e)" style="fill: none; stroke: #ff7f0e; stroke-width: 1.5; stroke-linecap: square"/>
   </g>
   <g id="line2d_34">
    <path d="M 76.234309 46.371262 
L 94.290355 57.877769 
L 112.346401 59.68595 
L 130.402447 69.220585 
L 148.458493 69.023348 
L 166.514539 76.686109 
L 184.570585 74.843086 
L 202.626632 81.946865 
L 220.682678 75.321166 
L 238.738724 81.71425 
L 256.79477 77.166281 
L 274.850816 84.489586 
L 292.906862 76.126957 
L 310.962908 82.689281 
L 329.018954 75.44857 
L 347.075 92.481705 
L 365.131046 78.520253 
L 383.187092 86.504039 
L 401.243138 78.809982 
L 419.299184 85.534751 
L 437.35523 67.062459 
L 455.411276 73.161524 
L 473.467322 60.940576 
L 491.523368 65.801683 
L 509.579415 50.961154 
L 527.635461 57.479189 
L 545.691507 47.239122 
L 563.747553 52.687685 
L 581.803599 35.626492 
L 599.859645 40.950634 
L 617.915691 30.855758 
" clip-path="url(#p4d52a76f1e)" style="fill: none; stroke: #ff7f0e; stroke-width: 1.5; stroke-linecap: square"/>
   </g>
   <g id="line2d_35">
    <path d="M 76.234309 46.379906 
L 94.290355 57.884473 
L 112.346401 59.613415 
L 130.402447 69.156861 
L 148.458493 69.435366 
L 166.514539 77.029092 
L 184.570585 74.967529 
L 202.626632 82.086266 
L 220.682678 76.408845 
L 238.738724 82.763478 
L 256.79477 78.116318 
L 274.850816 85.418679 
L 292.906862 77.598505 
L 310.962908 84.123125 
L 329.018954 77.031423 
L 347.075 93.947263 
L 365.131046 81.496608 
L 383.187092 89.390761 
L 401.243138 80.872051 
L 419.299184 87.521481 
L 437.35523 71.688276 
L 455.411276 77.654636 
L 473.467322 63.058757 
L 491.523368 67.847089 
L 509.579415 54.05875 
L 527.635461 60.484726 
L 545.691507 48.844384 
L 563.747553 54.245227 
L 581.803599 38.855201 
L 599.859645 44.104932 
L 617.915691 32.45526 
" clip-path="url(#p4d52a76f1e)" style="fill: none; stroke: #ff7f0e; stroke-width: 1.5; stroke-linecap: square"/>
   </g>
   <g id="line2d_36">
    <path d="M 76.234309 46.326555 
L 94.290355 57.843178 
L 112.346401 59.362118 
L 130.402447 68.936354 
L 148.458493 68.934907 
L 166.514539 76.561469 
L 184.570585 74.542777 
L 202.626632 81.662621 
L 220.682678 75.619623 
L 238.738724 81.982755 
L 256.79477 76.973935 
L 274.850816 84.332391 
L 292.906862 76.558185 
L 310.962908 83.098187 
L 329.018954 75.710583 
L 347.075 92.728339 
L 365.131046 79.892989 
L 383.187092 87.821107 
L 401.243138 79.28319 
L 419.299184 85.994202 
L 437.35523 69.912715 
L 455.411276 75.919853 
L 473.467322 61.585618 
L 491.523368 66.418138 
L 509.579415 52.8178 
L 527.635461 59.267348 
L 545.691507 47.749606 
L 563.747553 53.176716 
L 581.803599 37.71588 
L 599.859645 42.982362 
L 617.915691 31.395391 
" clip-path="url(#p4d52a76f1e)" style="fill: none; stroke: #ff7f0e; stroke-width: 1.5; stroke-linecap: square"/>
   </g>
   <g id="line2d_37">
    <path d="M 76.234309 46.226126 
L 94.290355 57.765888 
L 112.346401 59.790357 
L 130.402447 69.301517 
L 148.458493 70.01408 
L 166.514539 77.563673 
L 184.570585 76.252472 
L 202.626632 83.29494 
L 220.682678 77.693766 
L 238.738724 84.052242 
L 256.79477 81.02366 
L 274.850816 88.136327 
L 292.906862 80.129581 
L 310.962908 86.657324 
L 329.018954 80.49071 
L 347.075 97.356412 
L 365.131046 85.79137 
L 383.187092 93.64035 
L 401.243138 86.001247 
L 419.299184 92.545008 
L 437.35523 77.673571 
L 455.411276 83.504084 
L 473.467322 69.548821 
L 491.523368 74.265764 
L 509.579415 60.669827 
L 527.635461 66.991793 
L 545.691507 54.581152 
L 563.747553 59.899931 
L 581.803599 43.991448 
L 599.859645 49.23878 
L 617.915691 37.553877 
" clip-path="url(#p4d52a76f1e)" style="fill: none; stroke-dasharray: 5.55,2.4; stroke-dashoffset: 0; stroke: #ff7f0e; stroke-width: 1.5"/>
   </g>
   <g id="line2d_38">
    <path d="M 76.234309 46.181777 
L 94.290355 57.731902 
L 112.346401 59.480625 
L 130.402447 69.024115 
L 148.458493 69.221635 
L 166.514539 76.828813 
L 184.570585 75.26475 
L 202.626632 82.335896 
L 220.682678 76.139469 
L 238.738724 82.497748 
L 256.79477 78.492776 
L 274.850816 85.731364 
L 292.906862 77.62104 
L 310.962908 84.144685 
L 329.018954 77.370518 
L 347.075 94.226955 
L 365.131046 81.406722 
L 383.187092 89.304685 
L 401.243138 81.659741 
L 419.299184 88.24703 
L 437.35523 72.345932 
L 455.411276 78.284147 
L 473.467322 65.415082 
L 491.523368 70.075266 
L 509.579415 55.228859 
L 527.635461 61.609323 
L 545.691507 50.553899 
L 563.747553 55.845516 
L 581.803599 39.741607 
L 599.859645 44.962575 
L 617.915691 34.140417 
" clip-path="url(#p4d52a76f1e)" style="fill: none; stroke-dasharray: 5.55,2.4; stroke-dashoffset: 0; stroke: #ff7f0e; stroke-width: 1.5"/>
   </g>
   <g id="line2d_39">
    <path d="M 76.234309 48.602384 
L 94.290355 60.068612 
L 112.346401 64.347145 
L 130.402447 73.803088 
L 148.458493 76.157303 
L 166.514539 83.70737 
L 184.570585 83.929395 
L 202.626632 90.940028 
L 220.682678 87.049135 
L 238.738724 93.324318 
L 256.79477 90.968477 
L 274.850816 98.104534 
L 292.906862 91.960695 
L 310.962908 98.376699 
L 329.018954 93.371789 
L 347.075 109.926177 
L 365.131046 99.134118 
L 383.187092 106.883773 
L 401.243138 101.027921 
L 419.299184 107.508596 
L 437.35523 92.983654 
L 455.411276 98.849364 
L 473.467322 89.106885 
L 491.523368 93.745822 
L 509.579415 81.293172 
L 527.635461 87.533688 
L 545.691507 79.159768 
L 563.747553 84.353455 
L 581.803599 70.373236 
L 599.859645 75.441716 
L 617.915691 67.25361 
" clip-path="url(#p4d52a76f1e)" style="fill: none; stroke-dasharray: 5.55,2.4; stroke-dashoffset: 0; stroke: #2ca02c; stroke-width: 1.5"/>
   </g>
   <g id="line2d_40">
    <path d="M 76.234309 48.575287 
L 94.290355 60.049332 
L 112.346401 64.153033 
L 130.402447 73.632964 
L 148.458493 75.659293 
L 166.514539 83.252678 
L 184.570585 83.421785 
L 202.626632 90.447045 
L 220.682678 86.296745 
L 238.738724 92.599489 
L 256.79477 89.877214 
L 274.850816 97.080778 
L 292.906862 91.013052 
L 310.962908 97.449841 
L 329.018954 92.123857 
L 347.075 108.794371 
L 365.131046 97.732824 
L 383.187092 105.519952 
L 401.243138 99.529591 
L 419.299184 106.075731 
L 437.35523 91.416045 
L 455.411276 97.314301 
L 473.467322 87.538933 
L 491.523368 92.225658 
L 509.579415 79.996848 
L 527.635461 86.260954 
L 545.691507 77.849904 
L 563.747553 83.075002 
L 581.803599 69.085941 
L 599.859645 74.172575 
L 617.915691 65.915526 
" clip-path="url(#p4d52a76f1e)" style="fill: none; stroke-dasharray: 5.55,2.4; stroke-dashoffset: 0; stroke: #2ca02c; stroke-width: 1.5"/>
   </g>
   <g id="line2d_41">
    <path d="M 76.234309 48.581837 
L 94.290355 60.054144 
L 112.346401 64.096759 
L 130.402447 73.585338 
L 148.458493 75.992772 
L 166.514539 83.518684 
L 184.570585 83.512142 
L 202.626632 90.552616 
L 220.682678 87.182807 
L 238.738724 93.449249 
L 256.79477 90.652698 
L 274.850816 97.837406 
L 292.906862 92.201119 
L 310.962908 98.603239 
L 329.018954 93.445152 
L 347.075 110.006472 
L 365.131046 100.267712 
L 383.187092 107.971693 
L 401.243138 101.384806 
L 419.299184 107.859385 
L 437.35523 95.556699 
L 455.411276 101.330193 
L 473.467322 89.878425 
L 491.523368 94.49352 
L 509.579415 83.21121 
L 527.635461 89.385579 
L 545.691507 79.904167 
L 563.747553 85.080257 
L 581.803599 72.589761 
L 599.859645 77.60314 
L 617.915691 68.238813 
" clip-path="url(#p4d52a76f1e)" style="fill: none; stroke-dasharray: 5.55,2.4; stroke-dashoffset: 0; stroke: #2ca02c; stroke-width: 1.5"/>
   </g>
   <g id="line2d_42">
    <path d="M 76.234309 48.540012 
L 94.290355 60.024168 
L 112.346401 63.898053 
L 130.402447 73.41662 
L 148.458493 75.577802 
L 166.514539 83.135355 
L 184.570585 83.166206 
L 202.626632 90.206997 
L 220.682678 86.533899 
L 238.738724 92.80761 
L 256.79477 89.709104 
L 274.850816 96.947132 
L 292.906862 91.36535 
L 310.962908 97.780873 
L 329.018954 92.353403 
L 347.075 109.009699 
L 365.131046 98.903261 
L 383.187092 106.638047 
L 401.243138 99.989826 
L 419.299184 106.522763 
L 437.35523 93.908116 
L 455.411276 99.720124 
L 473.467322 88.392675 
L 491.523368 93.050481 
L 509.579415 81.888477 
L 527.635461 88.086243 
L 545.691507 78.67885 
L 563.747553 83.881074 
L 581.803599 71.288226 
L 599.859645 76.318771 
L 617.915691 66.964801 
" clip-path="url(#p4d52a76f1e)" style="fill: none; stroke-dasharray: 5.55,2.4; stroke-dashoffset: 0; stroke: #2ca02c; stroke-width: 1.5"/>
   </g>
   <g id="line2d_43">
    <path d="M 76.234309 48.461241 
L 94.290355 59.968382 
L 112.346401 64.235881 
L 130.402447 73.692926 
L 148.458493 76.485259 
L 166.514539 83.968488 
L 184.570585 84.556235 
L 202.626632 91.523573 
L 220.682678 88.26131 
L 238.738724 94.533261 
L 256.79477 93.087302 
L 274.850816 100.089645 
L 292.906862 94.314834 
L 310.962908 100.72364 
L 329.018954 96.473732 
L 347.075 112.994229 
L 365.131046 104.300527 
L 383.187092 111.962671 
L 401.243138 106.347613 
L 419.299184 112.719729 
L 437.35523 102.030573 
L 455.411276 107.668117 
L 473.467322 97.585523 
L 491.523368 102.122569 
L 509.579415 91.983749 
L 527.635461 98.039009 
L 545.691507 88.611486 
L 563.747553 93.6862 
L 581.803599 82.032788 
L 599.859645 87.012921 
L 617.915691 78.44071 
" clip-path="url(#p4d52a76f1e)" style="fill: none; stroke-dasharray: 5.55,2.4; stroke-dashoffset: 0; stroke: #2ca02c; stroke-width: 1.5"/>
   </g>
   <g id="line2d_44">
    <path d="M 76.234309 48.427207 
L 94.290355 59.944517 
L 112.346401 63.98952 
L 130.402447 73.477943 
L 148.458493 75.818767 
L 166.514539 83.357745 
L 184.570585 83.746186 
L 202.626632 90.740158 
L 220.682678 86.952693 
L 238.738724 93.222443 
L 256.79477 90.946246 
L 274.850816 98.06909 
L 292.906862 92.185457 
L 310.962908 98.586928 
L 329.018954 93.701512 
L 347.075 110.206531 
L 365.131046 100.192042 
L 383.187092 107.899615 
L 401.243138 102.038404 
L 419.299184 108.453663 
L 437.35523 96.2494 
L 455.411276 101.99534 
L 473.467322 92.084922 
L 491.523368 96.577325 
L 509.579415 84.677182 
L 527.635461 90.805257 
L 545.691507 81.927969 
L 563.747553 86.997125 
L 581.803599 74.242913 
L 599.859645 79.223515 
L 617.915691 70.69803 
" clip-path="url(#p4d52a76f1e)" style="fill: none; stroke-dasharray: 5.55,2.4; stroke-dashoffset: 0; stroke: #2ca02c; stroke-width: 1.5"/>
   </g>
   <g id="patch_3">
    <path d="M 49.15024 298.341022 
L 49.15024 18.118365 
" style="fill: none; stroke: #000000; stroke-width: 0.8; stroke-linejoin: miter; stroke-linecap: square"/>
   </g>
   <g id="patch_4">
    <path d="M 644.99976 298.341022 
L 644.99976 18.118365 
" style="fill: none; stroke: #000000; stroke-width: 0.8; stroke-linejoin: miter; stroke-linecap: square"/>
   </g>
   <g id="patch_5">
    <path d="M 49.15024 298.341022 
L 644.99976 298.341022 
" style="fill: none; stroke: #000000; stroke-width: 0.8; stroke-linejoin: miter; stroke-linecap: square"/>
   </g>
   <g id="patch_6">
    <path d="M 49.15024 18.118365 
L 644.99976 18.118365 
" style="fill: none; stroke: #000000; stroke-width: 0.8; stroke-linejoin: miter; stroke-linecap: square"/>
   </g>
   <g id="text_26">
    <!-- Comparison of Force Models -->
    <g transform="translate(262.278125 12.118365)scale(0.12 -0.12)">
     <defs>
      <path id="DejaVuSans-43" d="M 4122 4306 
L 4122 3641 
Q 3803 3938 3442 4084 
Q 3081 4231 2675 4231 
Q 1875 4231 1450 3742 
Q 1025 3253 1025 2328 
Q 1025 1406 1450 917 
Q 1875 428 2675 428 
Q 3081 428 3442 575 
Q 3803 722 4122 1019 
L 4122 359 
Q 3791 134 3420 21 
Q 3050 -91 2638 -91 
Q 1578 -91 968 557 
Q 359 1206 359 2328 
Q 359 3453 968 4101 
Q 1578 4750 2638 4750 
Q 3056 4750 3426 4639 
Q 3797 4528 4122 4306 
z
" transform="scale(0.015625)"/>
      <path id="DejaVuSans-66" d="M 2375 4863 
L 2375 4384 
L 1825 4384 
Q 1516 4384 1395 4259 
Q 1275 4134 1275 3809 
L 1275 3500 
L 2222 3500 
L 2222 3053 
L 1275 3053 
L 1275 0 
L 697 0 
L 697 3053 
L 147 3053 
L 147 3500 
L 697 3500 
L 697 3744 
Q 697 4328 969 4595 
Q 1241 4863 1831 4863 
L 2375 4863 
z
" transform="scale(0.015625)"/>
      <path id="DejaVuSans-46" d="M 628 4666 
L 3309 4666 
L 3309 4134 
L 1259 4134 
L 1259 2759 
L 3109 2759 
L 3109 2228 
L 1259 2228 
L 1259 0 
L 628 0 
L 628 4666 
z
" transform="scale(0.015625)"/>
      <path id="DejaVuSans-63" d="M 3122 3366 
L 3122 2828 
Q 2878 2963 2633 3030 
Q 2388 3097 2138 3097 
Q 1578 3097 1268 2742 
Q 959 2388 959 1747 
Q 959 1106 1268 751 
Q 1578 397 2138 397 
Q 2388 397 2633 464 
Q 2878 531 3122 666 
L 3122 134 
Q 2881 22 2623 -34 
Q 2366 -91 2075 -91 
Q 1284 -91 818 406 
Q 353 903 353 1747 
Q 353 2603 823 3093 
Q 1294 3584 2113 3584 
Q 2378 3584 2631 3529 
Q 2884 3475 3122 3366 
z
" transform="scale(0.015625)"/>
      <path id="DejaVuSans-4d" d="M 628 4666 
L 1569 4666 
L 2759 1491 
L 3956 4666 
L 4897 4666 
L 4897 0 
L 4281 0 
L 4281 4097 
L 3078 897 
L 2444 897 
L 1241 4097 
L 1241 0 
L 628 0 
L 628 4666 
z
" transform="scale(0.015625)"/>
      <path id="DejaVuSans-64" d="M 2906 2969 
L 2906 4863 
L 3481 4863 
L 3481 0 
L 2906 0 
L 2906 525 
Q 2725 213 2448 61 
Q 2172 -91 1784 -91 
Q 1150 -91 751 415 
Q 353 922 353 1747 
Q 353 2572 751 3078 
Q 1150 3584 1784 3584 
Q 2172 3584 2448 3432 
Q 2725 3281 2906 2969 
z
M 947 1747 
Q 947 1113 1208 752 
Q 1469 391 1925 391 
Q 2381 391 2643 752 
Q 2906 1113 2906 1747 
Q 2906 2381 2643 2742 
Q 2381 3103 1925 3103 
Q 1469 3103 1208 2742 
Q 947 2381 947 1747 
z
" transform="scale(0.015625)"/>
     </defs>
     <use xlink:href="#DejaVuSans-43"/>
     <use xlink:href="#DejaVuSans-6f" x="69.824219"/>
     <use xlink:href="#DejaVuSans-6d" x="131.005859"/>
     <use xlink:href="#DejaVuSans-70" x="228.417969"/>
     <use xlink:href="#DejaVuSans-61" x="291.894531"/>
     <use xlink:href="#DejaVuSans-72" x="353.173828"/>
     <use xlink:href="#DejaVuSans-69" x="394.287109"/>
     <use xlink:href="#DejaVuSans-73" x="422.070312"/>
     <use xlink:href="#DejaVuSans-6f" x="474.169922"/>
     <use xlink:href="#DejaVuSans-6e" x="535.351562"/>
     <use xlink:href="#DejaVuSans-20" x="598.730469"/>
     <use xlink:href="#DejaVuSans-6f" x="630.517578"/>
     <use xlink:href="#DejaVuSans-66" x="691.699219"/>
     <use xlink:href="#DejaVuSans-20" x="726.904297"/>
     <use xlink:href="#DejaVuSans-46" x="758.691406"/>
     <use xlink:href="#DejaVuSans-6f" x="812.585938"/>
     <use xlink:href="#DejaVuSans-72" x="873.767578"/>
     <use xlink:href="#DejaVuSans-63" x="912.630859"/>
     <use xlink:href="#DejaVuSans-65" x="967.611328"/>
     <use xlink:href="#DejaVuSans-20" x="1029.134766"/>
     <use xlink:href="#DejaVuSans-4d" x="1060.921875"/>
     <use xlink:href="#DejaVuSans-6f" x="1147.201172"/>
     <use xlink:href="#DejaVuSans-64" x="1208.382812"/>
     <use xlink:href="#DejaVuSans-65" x="1271.859375"/>
     <use xlink:href="#DejaVuSans-6c" x="1333.382812"/>
     <use xlink:href="#DejaVuSans-73" x="1361.166016"/>
    </g>
   </g>
  </g>
  <g id="legend_1">
   <g id="patch_7">
    <path d="M 28.26875 354.64 
L 619.73125 354.64 
Q 621.73125 354.64 621.73125 352.64 
L 621.73125 338.961875 
Q 621.73125 336.961875 619.73125 336.961875 
L 28.26875 336.961875 
Q 26.26875 336.961875 26.26875 338.961875 
L 26.26875 352.64 
Q 26.26875 354.64 28.26875 354.64 
z
" style="fill: #ffffff; opacity: 0.8; stroke: #cccccc; stroke-linejoin: miter"/>
   </g>
   <g id="line2d_45">
    <path d="M 30.26875 345.060313 
L 40.26875 345.060313 
L 50.26875 345.060313 
" style="fill: none; stroke: #808080; stroke-width: 1.5; stroke-linecap: square"/>
   </g>
   <g id="text_27">
    <!-- Exp. Set 1 -->
    <g transform="translate(58.26875 348.560313)scale(0.1 -0.1)">
     <defs>
      <path id="DejaVuSans-45" d="M 628 4666 
L 3578 4666 
L 3578 4134 
L 1259 4134 
L 1259 2753 
L 3481 2753 
L 3481 2222 
L 1259 2222 
L 1259 531 
L 3634 531 
L 3634 0 
L 628 0 
L 628 4666 
z
" transform="scale(0.015625)"/>
      <path id="DejaVuSans-78" d="M 3513 3500 
L 2247 1797 
L 3578 0 
L 2900 0 
L 1881 1375 
L 863 0 
L 184 0 
L 1544 1831 
L 300 3500 
L 978 3500 
L 1906 2253 
L 2834 3500 
L 3513 3500 
z
" transform="scale(0.015625)"/>
      <path id="DejaVuSans-2e" d="M 684 794 
L 1344 794 
L 1344 0 
L 684 0 
L 684 794 
z
" transform="scale(0.015625)"/>
      <path id="DejaVuSans-53" d="M 3425 4513 
L 3425 3897 
Q 3066 4069 2747 4153 
Q 2428 4238 2131 4238 
Q 1616 4238 1336 4038 
Q 1056 3838 1056 3469 
Q 1056 3159 1242 3001 
Q 1428 2844 1947 2747 
L 2328 2669 
Q 3034 2534 3370 2195 
Q 3706 1856 3706 1288 
Q 3706 609 3251 259 
Q 2797 -91 1919 -91 
Q 1588 -91 1214 -16 
Q 841 59 441 206 
L 441 856 
Q 825 641 1194 531 
Q 1563 422 1919 422 
Q 2459 422 2753 634 
Q 3047 847 3047 1241 
Q 3047 1584 2836 1778 
Q 2625 1972 2144 2069 
L 1759 2144 
Q 1053 2284 737 2584 
Q 422 2884 422 3419 
Q 422 4038 858 4394 
Q 1294 4750 2059 4750 
Q 2388 4750 2728 4690 
Q 3069 4631 3425 4513 
z
" transform="scale(0.015625)"/>
     </defs>
     <use xlink:href="#DejaVuSans-45"/>
     <use xlink:href="#DejaVuSans-78" x="63.183594"/>
     <use xlink:href="#DejaVuSans-70" x="122.363281"/>
     <use xlink:href="#DejaVuSans-2e" x="185.839844"/>
     <use xlink:href="#DejaVuSans-20" x="217.626953"/>
     <use xlink:href="#DejaVuSans-53" x="249.414062"/>
     <use xlink:href="#DejaVuSans-65" x="312.890625"/>
     <use xlink:href="#DejaVuSans-74" x="374.414062"/>
     <use xlink:href="#DejaVuSans-20" x="413.623047"/>
     <use xlink:href="#DejaVuSans-31" x="445.410156"/>
    </g>
   </g>
   <g id="line2d_46">
    <path d="M 129.173437 345.060313 
L 139.173437 345.060313 
L 149.173437 345.060313 
" style="fill: none; stroke-dasharray: 5.55,2.4; stroke-dashoffset: 0; stroke: #808080; stroke-width: 1.5"/>
   </g>
   <g id="text_28">
    <!-- Exp. Set 2 -->
    <g transform="translate(157.173437 348.560313)scale(0.1 -0.1)">
     <use xlink:href="#DejaVuSans-45"/>
     <use xlink:href="#DejaVuSans-78" x="63.183594"/>
     <use xlink:href="#DejaVuSans-70" x="122.363281"/>
     <use xlink:href="#DejaVuSans-2e" x="185.839844"/>
     <use xlink:href="#DejaVuSans-20" x="217.626953"/>
     <use xlink:href="#DejaVuSans-53" x="249.414062"/>
     <use xlink:href="#DejaVuSans-65" x="312.890625"/>
     <use xlink:href="#DejaVuSans-74" x="374.414062"/>
     <use xlink:href="#DejaVuSans-20" x="413.623047"/>
     <use xlink:href="#DejaVuSans-32" x="445.410156"/>
    </g>
   </g>
   <g id="line2d_47">
    <path d="M 228.078125 345.060313 
L 238.078125 345.060313 
L 248.078125 345.060313 
" style="fill: none; stroke: #000000; stroke-width: 1.5; stroke-linecap: square"/>
   </g>
   <g id="text_29">
    <!-- WICON -->
    <g transform="translate(256.078125 348.560313)scale(0.1 -0.1)">
     <defs>
      <path id="DejaVuSans-57" d="M 213 4666 
L 850 4666 
L 1831 722 
L 2809 4666 
L 3519 4666 
L 4500 722 
L 5478 4666 
L 6119 4666 
L 4947 0 
L 4153 0 
L 3169 4050 
L 2175 0 
L 1381 0 
L 213 4666 
z
" transform="scale(0.015625)"/>
      <path id="DejaVuSans-49" d="M 628 4666 
L 1259 4666 
L 1259 0 
L 628 0 
L 628 4666 
z
" transform="scale(0.015625)"/>
      <path id="DejaVuSans-4f" d="M 2522 4238 
Q 1834 4238 1429 3725 
Q 1025 3213 1025 2328 
Q 1025 1447 1429 934 
Q 1834 422 2522 422 
Q 3209 422 3611 934 
Q 4013 1447 4013 2328 
Q 4013 3213 3611 3725 
Q 3209 4238 2522 4238 
z
M 2522 4750 
Q 3503 4750 4090 4092 
Q 4678 3434 4678 2328 
Q 4678 1225 4090 567 
Q 3503 -91 2522 -91 
Q 1538 -91 948 565 
Q 359 1222 359 2328 
Q 359 3434 948 4092 
Q 1538 4750 2522 4750 
z
" transform="scale(0.015625)"/>
      <path id="DejaVuSans-4e" d="M 628 4666 
L 1478 4666 
L 3547 763 
L 3547 4666 
L 4159 4666 
L 4159 0 
L 3309 0 
L 1241 3903 
L 1241 0 
L 628 0 
L 628 4666 
z
" transform="scale(0.015625)"/>
     </defs>
     <use xlink:href="#DejaVuSans-57"/>
     <use xlink:href="#DejaVuSans-49" x="98.876953"/>
     <use xlink:href="#DejaVuSans-43" x="128.369141"/>
     <use xlink:href="#DejaVuSans-4f" x="198.193359"/>
     <use xlink:href="#DejaVuSans-4e" x="276.904297"/>
    </g>
   </g>
   <g id="line2d_48">
    <path d="M 311.251562 345.060313 
L 321.251562 345.060313 
L 331.251562 345.060313 
" style="fill: none; stroke: #1f77b4; stroke-width: 1.5; stroke-linecap: square"/>
   </g>
   <g id="text_30">
    <!-- PyRoll Base -->
    <g transform="translate(339.251562 348.560313)scale(0.1 -0.1)">
     <defs>
      <path id="DejaVuSans-79" d="M 2059 -325 
Q 1816 -950 1584 -1140 
Q 1353 -1331 966 -1331 
L 506 -1331 
L 506 -850 
L 844 -850 
Q 1081 -850 1212 -737 
Q 1344 -625 1503 -206 
L 1606 56 
L 191 3500 
L 800 3500 
L 1894 763 
L 2988 3500 
L 3597 3500 
L 2059 -325 
z
" transform="scale(0.015625)"/>
      <path id="DejaVuSans-42" d="M 1259 2228 
L 1259 519 
L 2272 519 
Q 2781 519 3026 730 
Q 3272 941 3272 1375 
Q 3272 1813 3026 2020 
Q 2781 2228 2272 2228 
L 1259 2228 
z
M 1259 4147 
L 1259 2741 
L 2194 2741 
Q 2656 2741 2882 2914 
Q 3109 3088 3109 3444 
Q 3109 3797 2882 3972 
Q 2656 4147 2194 4147 
L 1259 4147 
z
M 628 4666 
L 2241 4666 
Q 2963 4666 3353 4366 
Q 3744 4066 3744 3513 
Q 3744 3084 3544 2831 
Q 3344 2578 2956 2516 
Q 3422 2416 3680 2098 
Q 3938 1781 3938 1306 
Q 3938 681 3513 340 
Q 3088 0 2303 0 
L 628 0 
L 628 4666 
z
" transform="scale(0.015625)"/>
     </defs>
     <use xlink:href="#DejaVuSans-50"/>
     <use xlink:href="#DejaVuSans-79" x="60.302734"/>
     <use xlink:href="#DejaVuSans-52" x="119.482422"/>
     <use xlink:href="#DejaVuSans-6f" x="184.464844"/>
     <use xlink:href="#DejaVuSans-6c" x="245.646484"/>
     <use xlink:href="#DejaVuSans-6c" x="273.429688"/>
     <use xlink:href="#DejaVuSans-20" x="301.212891"/>
     <use xlink:href="#DejaVuSans-42" x="333"/>
     <use xlink:href="#DejaVuSans-61" x="401.603516"/>
     <use xlink:href="#DejaVuSans-73" x="462.882812"/>
     <use xlink:href="#DejaVuSans-65" x="514.982422"/>
    </g>
   </g>
   <g id="line2d_49">
    <path d="M 416.903125 345.060313 
L 426.903125 345.060313 
L 436.903125 345.060313 
" style="fill: none; stroke: #ff7f0e; stroke-width: 1.5; stroke-linecap: square"/>
   </g>
   <g id="text_31">
    <!-- PyRoll Hensel -->
    <g transform="translate(444.903125 348.560313)scale(0.1 -0.1)">
     <defs>
      <path id="DejaVuSans-48" d="M 628 4666 
L 1259 4666 
L 1259 2753 
L 3553 2753 
L 3553 4666 
L 4184 4666 
L 4184 0 
L 3553 0 
L 3553 2222 
L 1259 2222 
L 1259 0 
L 628 0 
L 628 4666 
z
" transform="scale(0.015625)"/>
     </defs>
     <use xlink:href="#DejaVuSans-50"/>
     <use xlink:href="#DejaVuSans-79" x="60.302734"/>
     <use xlink:href="#DejaVuSans-52" x="119.482422"/>
     <use xlink:href="#DejaVuSans-6f" x="184.464844"/>
     <use xlink:href="#DejaVuSans-6c" x="245.646484"/>
     <use xlink:href="#DejaVuSans-6c" x="273.429688"/>
     <use xlink:href="#DejaVuSans-20" x="301.212891"/>
     <use xlink:href="#DejaVuSans-48" x="333"/>
     <use xlink:href="#DejaVuSans-65" x="408.195312"/>
     <use xlink:href="#DejaVuSans-6e" x="469.71875"/>
     <use xlink:href="#DejaVuSans-73" x="533.097656"/>
     <use xlink:href="#DejaVuSans-65" x="585.197266"/>
     <use xlink:href="#DejaVuSans-6c" x="646.720703"/>
    </g>
   </g>
   <g id="line2d_50">
    <path d="M 532.354687 345.060313 
L 542.354687 345.060313 
L 552.354687 345.060313 
" style="fill: none; stroke: #2ca02c; stroke-width: 1.5; stroke-linecap: square"/>
   </g>
   <g id="text_32">
    <!-- PyRoll Sims -->
    <g transform="translate(560.354687 348.560313)scale(0.1 -0.1)">
     <use xlink:href="#DejaVuSans-50"/>
     <use xlink:href="#DejaVuSans-79" x="60.302734"/>
     <use xlink:href="#DejaVuSans-52" x="119.482422"/>
     <use xlink:href="#DejaVuSans-6f" x="184.464844"/>
     <use xlink:href="#DejaVuSans-6c" x="245.646484"/>
     <use xlink:href="#DejaVuSans-6c" x="273.429688"/>
     <use xlink:href="#DejaVuSans-20" x="301.212891"/>
     <use xlink:href="#DejaVuSans-53" x="333"/>
     <use xlink:href="#DejaVuSans-69" x="396.476562"/>
     <use xlink:href="#DejaVuSans-6d" x="424.259766"/>
     <use xlink:href="#DejaVuSans-73" x="521.671875"/>
    </g>
   </g>
  </g>
 </g>
 <defs>
  <clipPath id="p4d52a76f1e">
   <rect x="49.15024" y="18.118365" width="595.84952" height="280.222657"/>
  </clipPath>
 </defs>
</svg>
