<?xml version="1.0" encoding="utf-8" standalone="no"?>
<!DOCTYPE svg PUBLIC "-//W3C//DTD SVG 1.1//EN"
  "http://www.w3.org/Graphics/SVG/1.1/DTD/svg11.dtd">
<svg xmlns:xlink="http://www.w3.org/1999/xlink" width="648pt" height="576pt" viewBox="0 0 648 576" xmlns="http://www.w3.org/2000/svg" version="1.1">
 <metadata>
  <rdf:RDF xmlns:dc="http://purl.org/dc/elements/1.1/" xmlns:cc="http://creativecommons.org/ns#" xmlns:rdf="http://www.w3.org/1999/02/22-rdf-syntax-ns#">
   <cc:Work>
    <dc:type rdf:resource="http://purl.org/dc/dcmitype/StillImage"/>
    <dc:date>2022-06-09T10:14:03.024858</dc:date>
    <dc:format>image/svg+xml</dc:format>
    <dc:creator>
     <cc:Agent>
      <dc:title>Matplotlib v3.5.2, https://matplotlib.org/</dc:title>
     </cc:Agent>
    </dc:creator>
   </cc:Work>
  </rdf:RDF>
 </metadata>
 <defs>
  <style type="text/css">*{stroke-linejoin: round; stroke-linecap: butt}</style>
 </defs>
 <g id="figure_1">
  <g id="patch_1">
   <path d="M 0 576 
L 648 576 
L 648 0 
L 0 0 
z
" style="fill: #ffffff"/>
  </g>
  <g id="axes_1">
   <g id="patch_2">
    <path d="M 49.15024 362.522738 
L 644.99976 362.522738 
L 644.99976 3.00024 
L 49.15024 3.00024 
z
" style="fill: #ffffff"/>
   </g>
   <g id="matplotlib.axis_1">
    <g id="xtick_1">
     <g id="line2d_1">
      <defs>
       <path id="mebdc361dbd" d="M 0 0 
L 0 3.5 
" style="stroke: #000000; stroke-width: 0.8"/>
      </defs>
      <g>
       <use xlink:href="#mebdc361dbd" x="76.234309" y="362.522738" style="stroke: #000000; stroke-width: 0.8"/>
      </g>
     </g>
     <g id="text_1">
      <!-- 0 -->
      <g transform="translate(73.053059 377.121176)scale(0.1 -0.1)">
       <defs>
        <path id="DejaVuSans-30" d="M 2034 4250 
Q 1547 4250 1301 3770 
Q 1056 3291 1056 2328 
Q 1056 1369 1301 889 
Q 1547 409 2034 409 
Q 2525 409 2770 889 
Q 3016 1369 3016 2328 
Q 3016 3291 2770 3770 
Q 2525 4250 2034 4250 
z
M 2034 4750 
Q 2819 4750 3233 4129 
Q 3647 3509 3647 2328 
Q 3647 1150 3233 529 
Q 2819 -91 2034 -91 
Q 1250 -91 836 529 
Q 422 1150 422 2328 
Q 422 3509 836 4129 
Q 1250 4750 2034 4750 
z
" transform="scale(0.015625)"/>
       </defs>
       <use xlink:href="#DejaVuSans-30"/>
      </g>
     </g>
    </g>
    <g id="xtick_2">
     <g id="line2d_2">
      <g>
       <use xlink:href="#mebdc361dbd" x="112.346401" y="362.522738" style="stroke: #000000; stroke-width: 0.8"/>
      </g>
     </g>
     <g id="text_2">
      <!-- 1 -->
      <g transform="translate(109.165151 377.121176)scale(0.1 -0.1)">
       <defs>
        <path id="DejaVuSans-31" d="M 794 531 
L 1825 531 
L 1825 4091 
L 703 3866 
L 703 4441 
L 1819 4666 
L 2450 4666 
L 2450 531 
L 3481 531 
L 3481 0 
L 794 0 
L 794 531 
z
" transform="scale(0.015625)"/>
       </defs>
       <use xlink:href="#DejaVuSans-31"/>
      </g>
     </g>
    </g>
    <g id="xtick_3">
     <g id="line2d_3">
      <g>
       <use xlink:href="#mebdc361dbd" x="148.458493" y="362.522738" style="stroke: #000000; stroke-width: 0.8"/>
      </g>
     </g>
     <g id="text_3">
      <!-- 2 -->
      <g transform="translate(145.277243 377.121176)scale(0.1 -0.1)">
       <defs>
        <path id="DejaVuSans-32" d="M 1228 531 
L 3431 531 
L 3431 0 
L 469 0 
L 469 531 
Q 828 903 1448 1529 
Q 2069 2156 2228 2338 
Q 2531 2678 2651 2914 
Q 2772 3150 2772 3378 
Q 2772 3750 2511 3984 
Q 2250 4219 1831 4219 
Q 1534 4219 1204 4116 
Q 875 4013 500 3803 
L 500 4441 
Q 881 4594 1212 4672 
Q 1544 4750 1819 4750 
Q 2544 4750 2975 4387 
Q 3406 4025 3406 3419 
Q 3406 3131 3298 2873 
Q 3191 2616 2906 2266 
Q 2828 2175 2409 1742 
Q 1991 1309 1228 531 
z
" transform="scale(0.015625)"/>
       </defs>
       <use xlink:href="#DejaVuSans-32"/>
      </g>
     </g>
    </g>
    <g id="xtick_4">
     <g id="line2d_4">
      <g>
       <use xlink:href="#mebdc361dbd" x="184.570585" y="362.522738" style="stroke: #000000; stroke-width: 0.8"/>
      </g>
     </g>
     <g id="text_4">
      <!-- 3 -->
      <g transform="translate(181.389335 377.121176)scale(0.1 -0.1)">
       <defs>
        <path id="DejaVuSans-33" d="M 2597 2516 
Q 3050 2419 3304 2112 
Q 3559 1806 3559 1356 
Q 3559 666 3084 287 
Q 2609 -91 1734 -91 
Q 1441 -91 1130 -33 
Q 819 25 488 141 
L 488 750 
Q 750 597 1062 519 
Q 1375 441 1716 441 
Q 2309 441 2620 675 
Q 2931 909 2931 1356 
Q 2931 1769 2642 2001 
Q 2353 2234 1838 2234 
L 1294 2234 
L 1294 2753 
L 1863 2753 
Q 2328 2753 2575 2939 
Q 2822 3125 2822 3475 
Q 2822 3834 2567 4026 
Q 2313 4219 1838 4219 
Q 1578 4219 1281 4162 
Q 984 4106 628 3988 
L 628 4550 
Q 988 4650 1302 4700 
Q 1616 4750 1894 4750 
Q 2613 4750 3031 4423 
Q 3450 4097 3450 3541 
Q 3450 3153 3228 2886 
Q 3006 2619 2597 2516 
z
" transform="scale(0.015625)"/>
       </defs>
       <use xlink:href="#DejaVuSans-33"/>
      </g>
     </g>
    </g>
    <g id="xtick_5">
     <g id="line2d_5">
      <g>
       <use xlink:href="#mebdc361dbd" x="220.682678" y="362.522738" style="stroke: #000000; stroke-width: 0.8"/>
      </g>
     </g>
     <g id="text_5">
      <!-- 4 -->
      <g transform="translate(217.501428 377.121176)scale(0.1 -0.1)">
       <defs>
        <path id="DejaVuSans-34" d="M 2419 4116 
L 825 1625 
L 2419 1625 
L 2419 4116 
z
M 2253 4666 
L 3047 4666 
L 3047 1625 
L 3713 1625 
L 3713 1100 
L 3047 1100 
L 3047 0 
L 2419 0 
L 2419 1100 
L 313 1100 
L 313 1709 
L 2253 4666 
z
" transform="scale(0.015625)"/>
       </defs>
       <use xlink:href="#DejaVuSans-34"/>
      </g>
     </g>
    </g>
    <g id="xtick_6">
     <g id="line2d_6">
      <g>
       <use xlink:href="#mebdc361dbd" x="256.79477" y="362.522738" style="stroke: #000000; stroke-width: 0.8"/>
      </g>
     </g>
     <g id="text_6">
      <!-- 5 -->
      <g transform="translate(253.61352 377.121176)scale(0.1 -0.1)">
       <defs>
        <path id="DejaVuSans-35" d="M 691 4666 
L 3169 4666 
L 3169 4134 
L 1269 4134 
L 1269 2991 
Q 1406 3038 1543 3061 
Q 1681 3084 1819 3084 
Q 2600 3084 3056 2656 
Q 3513 2228 3513 1497 
Q 3513 744 3044 326 
Q 2575 -91 1722 -91 
Q 1428 -91 1123 -41 
Q 819 9 494 109 
L 494 744 
Q 775 591 1075 516 
Q 1375 441 1709 441 
Q 2250 441 2565 725 
Q 2881 1009 2881 1497 
Q 2881 1984 2565 2268 
Q 2250 2553 1709 2553 
Q 1456 2553 1204 2497 
Q 953 2441 691 2322 
L 691 4666 
z
" transform="scale(0.015625)"/>
       </defs>
       <use xlink:href="#DejaVuSans-35"/>
      </g>
     </g>
    </g>
    <g id="xtick_7">
     <g id="line2d_7">
      <g>
       <use xlink:href="#mebdc361dbd" x="292.906862" y="362.522738" style="stroke: #000000; stroke-width: 0.8"/>
      </g>
     </g>
     <g id="text_7">
      <!-- 6 -->
      <g transform="translate(289.725612 377.121176)scale(0.1 -0.1)">
       <defs>
        <path id="DejaVuSans-36" d="M 2113 2584 
Q 1688 2584 1439 2293 
Q 1191 2003 1191 1497 
Q 1191 994 1439 701 
Q 1688 409 2113 409 
Q 2538 409 2786 701 
Q 3034 994 3034 1497 
Q 3034 2003 2786 2293 
Q 2538 2584 2113 2584 
z
M 3366 4563 
L 3366 3988 
Q 3128 4100 2886 4159 
Q 2644 4219 2406 4219 
Q 1781 4219 1451 3797 
Q 1122 3375 1075 2522 
Q 1259 2794 1537 2939 
Q 1816 3084 2150 3084 
Q 2853 3084 3261 2657 
Q 3669 2231 3669 1497 
Q 3669 778 3244 343 
Q 2819 -91 2113 -91 
Q 1303 -91 875 529 
Q 447 1150 447 2328 
Q 447 3434 972 4092 
Q 1497 4750 2381 4750 
Q 2619 4750 2861 4703 
Q 3103 4656 3366 4563 
z
" transform="scale(0.015625)"/>
       </defs>
       <use xlink:href="#DejaVuSans-36"/>
      </g>
     </g>
    </g>
    <g id="xtick_8">
     <g id="line2d_8">
      <g>
       <use xlink:href="#mebdc361dbd" x="329.018954" y="362.522738" style="stroke: #000000; stroke-width: 0.8"/>
      </g>
     </g>
     <g id="text_8">
      <!-- 7 -->
      <g transform="translate(325.837704 377.121176)scale(0.1 -0.1)">
       <defs>
        <path id="DejaVuSans-37" d="M 525 4666 
L 3525 4666 
L 3525 4397 
L 1831 0 
L 1172 0 
L 2766 4134 
L 525 4134 
L 525 4666 
z
" transform="scale(0.015625)"/>
       </defs>
       <use xlink:href="#DejaVuSans-37"/>
      </g>
     </g>
    </g>
    <g id="xtick_9">
     <g id="line2d_9">
      <g>
       <use xlink:href="#mebdc361dbd" x="365.131046" y="362.522738" style="stroke: #000000; stroke-width: 0.8"/>
      </g>
     </g>
     <g id="text_9">
      <!-- 8 -->
      <g transform="translate(361.949796 377.121176)scale(0.1 -0.1)">
       <defs>
        <path id="DejaVuSans-38" d="M 2034 2216 
Q 1584 2216 1326 1975 
Q 1069 1734 1069 1313 
Q 1069 891 1326 650 
Q 1584 409 2034 409 
Q 2484 409 2743 651 
Q 3003 894 3003 1313 
Q 3003 1734 2745 1975 
Q 2488 2216 2034 2216 
z
M 1403 2484 
Q 997 2584 770 2862 
Q 544 3141 544 3541 
Q 544 4100 942 4425 
Q 1341 4750 2034 4750 
Q 2731 4750 3128 4425 
Q 3525 4100 3525 3541 
Q 3525 3141 3298 2862 
Q 3072 2584 2669 2484 
Q 3125 2378 3379 2068 
Q 3634 1759 3634 1313 
Q 3634 634 3220 271 
Q 2806 -91 2034 -91 
Q 1263 -91 848 271 
Q 434 634 434 1313 
Q 434 1759 690 2068 
Q 947 2378 1403 2484 
z
M 1172 3481 
Q 1172 3119 1398 2916 
Q 1625 2713 2034 2713 
Q 2441 2713 2670 2916 
Q 2900 3119 2900 3481 
Q 2900 3844 2670 4047 
Q 2441 4250 2034 4250 
Q 1625 4250 1398 4047 
Q 1172 3844 1172 3481 
z
" transform="scale(0.015625)"/>
       </defs>
       <use xlink:href="#DejaVuSans-38"/>
      </g>
     </g>
    </g>
    <g id="xtick_10">
     <g id="line2d_10">
      <g>
       <use xlink:href="#mebdc361dbd" x="401.243138" y="362.522738" style="stroke: #000000; stroke-width: 0.8"/>
      </g>
     </g>
     <g id="text_10">
      <!-- 9 -->
      <g transform="translate(398.061888 377.121176)scale(0.1 -0.1)">
       <defs>
        <path id="DejaVuSans-39" d="M 703 97 
L 703 672 
Q 941 559 1184 500 
Q 1428 441 1663 441 
Q 2288 441 2617 861 
Q 2947 1281 2994 2138 
Q 2813 1869 2534 1725 
Q 2256 1581 1919 1581 
Q 1219 1581 811 2004 
Q 403 2428 403 3163 
Q 403 3881 828 4315 
Q 1253 4750 1959 4750 
Q 2769 4750 3195 4129 
Q 3622 3509 3622 2328 
Q 3622 1225 3098 567 
Q 2575 -91 1691 -91 
Q 1453 -91 1209 -44 
Q 966 3 703 97 
z
M 1959 2075 
Q 2384 2075 2632 2365 
Q 2881 2656 2881 3163 
Q 2881 3666 2632 3958 
Q 2384 4250 1959 4250 
Q 1534 4250 1286 3958 
Q 1038 3666 1038 3163 
Q 1038 2656 1286 2365 
Q 1534 2075 1959 2075 
z
" transform="scale(0.015625)"/>
       </defs>
       <use xlink:href="#DejaVuSans-39"/>
      </g>
     </g>
    </g>
    <g id="xtick_11">
     <g id="line2d_11">
      <g>
       <use xlink:href="#mebdc361dbd" x="437.35523" y="362.522738" style="stroke: #000000; stroke-width: 0.8"/>
      </g>
     </g>
     <g id="text_11">
      <!-- 10 -->
      <g transform="translate(430.99273 377.121176)scale(0.1 -0.1)">
       <use xlink:href="#DejaVuSans-31"/>
       <use xlink:href="#DejaVuSans-30" x="63.623047"/>
      </g>
     </g>
    </g>
    <g id="xtick_12">
     <g id="line2d_12">
      <g>
       <use xlink:href="#mebdc361dbd" x="473.467322" y="362.522738" style="stroke: #000000; stroke-width: 0.8"/>
      </g>
     </g>
     <g id="text_12">
      <!-- 11 -->
      <g transform="translate(467.104822 377.121176)scale(0.1 -0.1)">
       <use xlink:href="#DejaVuSans-31"/>
       <use xlink:href="#DejaVuSans-31" x="63.623047"/>
      </g>
     </g>
    </g>
    <g id="xtick_13">
     <g id="line2d_13">
      <g>
       <use xlink:href="#mebdc361dbd" x="509.579415" y="362.522738" style="stroke: #000000; stroke-width: 0.8"/>
      </g>
     </g>
     <g id="text_13">
      <!-- 12 -->
      <g transform="translate(503.216915 377.121176)scale(0.1 -0.1)">
       <use xlink:href="#DejaVuSans-31"/>
       <use xlink:href="#DejaVuSans-32" x="63.623047"/>
      </g>
     </g>
    </g>
    <g id="xtick_14">
     <g id="line2d_14">
      <g>
       <use xlink:href="#mebdc361dbd" x="545.691507" y="362.522738" style="stroke: #000000; stroke-width: 0.8"/>
      </g>
     </g>
     <g id="text_14">
      <!-- 13 -->
      <g transform="translate(539.329007 377.121176)scale(0.1 -0.1)">
       <use xlink:href="#DejaVuSans-31"/>
       <use xlink:href="#DejaVuSans-33" x="63.623047"/>
      </g>
     </g>
    </g>
    <g id="xtick_15">
     <g id="line2d_15">
      <g>
       <use xlink:href="#mebdc361dbd" x="581.803599" y="362.522738" style="stroke: #000000; stroke-width: 0.8"/>
      </g>
     </g>
     <g id="text_15">
      <!-- 14 -->
      <g transform="translate(575.441099 377.121176)scale(0.1 -0.1)">
       <use xlink:href="#DejaVuSans-31"/>
       <use xlink:href="#DejaVuSans-34" x="63.623047"/>
      </g>
     </g>
    </g>
    <g id="xtick_16">
     <g id="line2d_16">
      <g>
       <use xlink:href="#mebdc361dbd" x="617.915691" y="362.522738" style="stroke: #000000; stroke-width: 0.8"/>
      </g>
     </g>
     <g id="text_16">
      <!-- 15 -->
      <g transform="translate(611.553191 377.121176)scale(0.1 -0.1)">
       <use xlink:href="#DejaVuSans-31"/>
       <use xlink:href="#DejaVuSans-35" x="63.623047"/>
      </g>
     </g>
    </g>
    <g id="text_17">
     <!-- Roll Pass -->
     <g transform="translate(325.335938 390.799301)scale(0.1 -0.1)">
      <defs>
       <path id="DejaVuSans-52" d="M 2841 2188 
Q 3044 2119 3236 1894 
Q 3428 1669 3622 1275 
L 4263 0 
L 3584 0 
L 2988 1197 
Q 2756 1666 2539 1819 
Q 2322 1972 1947 1972 
L 1259 1972 
L 1259 0 
L 628 0 
L 628 4666 
L 2053 4666 
Q 2853 4666 3247 4331 
Q 3641 3997 3641 3322 
Q 3641 2881 3436 2590 
Q 3231 2300 2841 2188 
z
M 1259 4147 
L 1259 2491 
L 2053 2491 
Q 2509 2491 2742 2702 
Q 2975 2913 2975 3322 
Q 2975 3731 2742 3939 
Q 2509 4147 2053 4147 
L 1259 4147 
z
" transform="scale(0.015625)"/>
       <path id="DejaVuSans-6f" d="M 1959 3097 
Q 1497 3097 1228 2736 
Q 959 2375 959 1747 
Q 959 1119 1226 758 
Q 1494 397 1959 397 
Q 2419 397 2687 759 
Q 2956 1122 2956 1747 
Q 2956 2369 2687 2733 
Q 2419 3097 1959 3097 
z
M 1959 3584 
Q 2709 3584 3137 3096 
Q 3566 2609 3566 1747 
Q 3566 888 3137 398 
Q 2709 -91 1959 -91 
Q 1206 -91 779 398 
Q 353 888 353 1747 
Q 353 2609 779 3096 
Q 1206 3584 1959 3584 
z
" transform="scale(0.015625)"/>
       <path id="DejaVuSans-6c" d="M 603 4863 
L 1178 4863 
L 1178 0 
L 603 0 
L 603 4863 
z
" transform="scale(0.015625)"/>
       <path id="DejaVuSans-20" transform="scale(0.015625)"/>
       <path id="DejaVuSans-50" d="M 1259 4147 
L 1259 2394 
L 2053 2394 
Q 2494 2394 2734 2622 
Q 2975 2850 2975 3272 
Q 2975 3691 2734 3919 
Q 2494 4147 2053 4147 
L 1259 4147 
z
M 628 4666 
L 2053 4666 
Q 2838 4666 3239 4311 
Q 3641 3956 3641 3272 
Q 3641 2581 3239 2228 
Q 2838 1875 2053 1875 
L 1259 1875 
L 1259 0 
L 628 0 
L 628 4666 
z
" transform="scale(0.015625)"/>
       <path id="DejaVuSans-61" d="M 2194 1759 
Q 1497 1759 1228 1600 
Q 959 1441 959 1056 
Q 959 750 1161 570 
Q 1363 391 1709 391 
Q 2188 391 2477 730 
Q 2766 1069 2766 1631 
L 2766 1759 
L 2194 1759 
z
M 3341 1997 
L 3341 0 
L 2766 0 
L 2766 531 
Q 2569 213 2275 61 
Q 1981 -91 1556 -91 
Q 1019 -91 701 211 
Q 384 513 384 1019 
Q 384 1609 779 1909 
Q 1175 2209 1959 2209 
L 2766 2209 
L 2766 2266 
Q 2766 2663 2505 2880 
Q 2244 3097 1772 3097 
Q 1472 3097 1187 3025 
Q 903 2953 641 2809 
L 641 3341 
Q 956 3463 1253 3523 
Q 1550 3584 1831 3584 
Q 2591 3584 2966 3190 
Q 3341 2797 3341 1997 
z
" transform="scale(0.015625)"/>
       <path id="DejaVuSans-73" d="M 2834 3397 
L 2834 2853 
Q 2591 2978 2328 3040 
Q 2066 3103 1784 3103 
Q 1356 3103 1142 2972 
Q 928 2841 928 2578 
Q 928 2378 1081 2264 
Q 1234 2150 1697 2047 
L 1894 2003 
Q 2506 1872 2764 1633 
Q 3022 1394 3022 966 
Q 3022 478 2636 193 
Q 2250 -91 1575 -91 
Q 1294 -91 989 -36 
Q 684 19 347 128 
L 347 722 
Q 666 556 975 473 
Q 1284 391 1588 391 
Q 1994 391 2212 530 
Q 2431 669 2431 922 
Q 2431 1156 2273 1281 
Q 2116 1406 1581 1522 
L 1381 1569 
Q 847 1681 609 1914 
Q 372 2147 372 2553 
Q 372 3047 722 3315 
Q 1072 3584 1716 3584 
Q 2034 3584 2315 3537 
Q 2597 3491 2834 3397 
z
" transform="scale(0.015625)"/>
      </defs>
      <use xlink:href="#DejaVuSans-52"/>
      <use xlink:href="#DejaVuSans-6f" x="64.982422"/>
      <use xlink:href="#DejaVuSans-6c" x="126.164062"/>
      <use xlink:href="#DejaVuSans-6c" x="153.947266"/>
      <use xlink:href="#DejaVuSans-20" x="181.730469"/>
      <use xlink:href="#DejaVuSans-50" x="213.517578"/>
      <use xlink:href="#DejaVuSans-61" x="269.320312"/>
      <use xlink:href="#DejaVuSans-73" x="330.599609"/>
      <use xlink:href="#DejaVuSans-73" x="382.699219"/>
     </g>
    </g>
   </g>
   <g id="matplotlib.axis_2">
    <g id="ytick_1">
     <g id="line2d_17">
      <defs>
       <path id="m7e2569a05e" d="M 0 0 
L -3.5 0 
" style="stroke: #000000; stroke-width: 0.8"/>
      </defs>
      <g>
       <use xlink:href="#m7e2569a05e" x="49.15024" y="341.027398" style="stroke: #000000; stroke-width: 0.8"/>
      </g>
     </g>
     <g id="text_18">
      <!-- 980 -->
      <g transform="translate(23.06274 344.826617)scale(0.1 -0.1)">
       <use xlink:href="#DejaVuSans-39"/>
       <use xlink:href="#DejaVuSans-38" x="63.623047"/>
       <use xlink:href="#DejaVuSans-30" x="127.246094"/>
      </g>
     </g>
    </g>
    <g id="ytick_2">
     <g id="line2d_18">
      <g>
       <use xlink:href="#m7e2569a05e" x="49.15024" y="289.493312" style="stroke: #000000; stroke-width: 0.8"/>
      </g>
     </g>
     <g id="text_19">
      <!-- 1000 -->
      <g transform="translate(16.70024 293.292531)scale(0.1 -0.1)">
       <use xlink:href="#DejaVuSans-31"/>
       <use xlink:href="#DejaVuSans-30" x="63.623047"/>
       <use xlink:href="#DejaVuSans-30" x="127.246094"/>
       <use xlink:href="#DejaVuSans-30" x="190.869141"/>
      </g>
     </g>
    </g>
    <g id="ytick_3">
     <g id="line2d_19">
      <g>
       <use xlink:href="#m7e2569a05e" x="49.15024" y="237.959226" style="stroke: #000000; stroke-width: 0.8"/>
      </g>
     </g>
     <g id="text_20">
      <!-- 1020 -->
      <g transform="translate(16.70024 241.758445)scale(0.1 -0.1)">
       <use xlink:href="#DejaVuSans-31"/>
       <use xlink:href="#DejaVuSans-30" x="63.623047"/>
       <use xlink:href="#DejaVuSans-32" x="127.246094"/>
       <use xlink:href="#DejaVuSans-30" x="190.869141"/>
      </g>
     </g>
    </g>
    <g id="ytick_4">
     <g id="line2d_20">
      <g>
       <use xlink:href="#m7e2569a05e" x="49.15024" y="186.42514" style="stroke: #000000; stroke-width: 0.8"/>
      </g>
     </g>
     <g id="text_21">
      <!-- 1040 -->
      <g transform="translate(16.70024 190.224359)scale(0.1 -0.1)">
       <use xlink:href="#DejaVuSans-31"/>
       <use xlink:href="#DejaVuSans-30" x="63.623047"/>
       <use xlink:href="#DejaVuSans-34" x="127.246094"/>
       <use xlink:href="#DejaVuSans-30" x="190.869141"/>
      </g>
     </g>
    </g>
    <g id="ytick_5">
     <g id="line2d_21">
      <g>
       <use xlink:href="#m7e2569a05e" x="49.15024" y="134.891054" style="stroke: #000000; stroke-width: 0.8"/>
      </g>
     </g>
     <g id="text_22">
      <!-- 1060 -->
      <g transform="translate(16.70024 138.690273)scale(0.1 -0.1)">
       <use xlink:href="#DejaVuSans-31"/>
       <use xlink:href="#DejaVuSans-30" x="63.623047"/>
       <use xlink:href="#DejaVuSans-36" x="127.246094"/>
       <use xlink:href="#DejaVuSans-30" x="190.869141"/>
      </g>
     </g>
    </g>
    <g id="ytick_6">
     <g id="line2d_22">
      <g>
       <use xlink:href="#m7e2569a05e" x="49.15024" y="83.356968" style="stroke: #000000; stroke-width: 0.8"/>
      </g>
     </g>
     <g id="text_23">
      <!-- 1080 -->
      <g transform="translate(16.70024 87.156187)scale(0.1 -0.1)">
       <use xlink:href="#DejaVuSans-31"/>
       <use xlink:href="#DejaVuSans-30" x="63.623047"/>
       <use xlink:href="#DejaVuSans-38" x="127.246094"/>
       <use xlink:href="#DejaVuSans-30" x="190.869141"/>
      </g>
     </g>
    </g>
    <g id="ytick_7">
     <g id="line2d_23">
      <g>
       <use xlink:href="#m7e2569a05e" x="49.15024" y="31.822882" style="stroke: #000000; stroke-width: 0.8"/>
      </g>
     </g>
     <g id="text_24">
      <!-- 1100 -->
      <g transform="translate(16.70024 35.622101)scale(0.1 -0.1)">
       <use xlink:href="#DejaVuSans-31"/>
       <use xlink:href="#DejaVuSans-31" x="63.623047"/>
       <use xlink:href="#DejaVuSans-30" x="127.246094"/>
       <use xlink:href="#DejaVuSans-30" x="190.869141"/>
      </g>
     </g>
    </g>
    <g id="text_25">
     <!-- Temperature $T$ in $\mathrm{K}$ -->
     <g transform="translate(10.60024 231.061489)rotate(-90)scale(0.1 -0.1)">
      <defs>
       <path id="DejaVuSans-54" d="M -19 4666 
L 3928 4666 
L 3928 4134 
L 2272 4134 
L 2272 0 
L 1638 0 
L 1638 4134 
L -19 4134 
L -19 4666 
z
" transform="scale(0.015625)"/>
       <path id="DejaVuSans-65" d="M 3597 1894 
L 3597 1613 
L 953 1613 
Q 991 1019 1311 708 
Q 1631 397 2203 397 
Q 2534 397 2845 478 
Q 3156 559 3463 722 
L 3463 178 
Q 3153 47 2828 -22 
Q 2503 -91 2169 -91 
Q 1331 -91 842 396 
Q 353 884 353 1716 
Q 353 2575 817 3079 
Q 1281 3584 2069 3584 
Q 2775 3584 3186 3129 
Q 3597 2675 3597 1894 
z
M 3022 2063 
Q 3016 2534 2758 2815 
Q 2500 3097 2075 3097 
Q 1594 3097 1305 2825 
Q 1016 2553 972 2059 
L 3022 2063 
z
" transform="scale(0.015625)"/>
       <path id="DejaVuSans-6d" d="M 3328 2828 
Q 3544 3216 3844 3400 
Q 4144 3584 4550 3584 
Q 5097 3584 5394 3201 
Q 5691 2819 5691 2113 
L 5691 0 
L 5113 0 
L 5113 2094 
Q 5113 2597 4934 2840 
Q 4756 3084 4391 3084 
Q 3944 3084 3684 2787 
Q 3425 2491 3425 1978 
L 3425 0 
L 2847 0 
L 2847 2094 
Q 2847 2600 2669 2842 
Q 2491 3084 2119 3084 
Q 1678 3084 1418 2786 
Q 1159 2488 1159 1978 
L 1159 0 
L 581 0 
L 581 3500 
L 1159 3500 
L 1159 2956 
Q 1356 3278 1631 3431 
Q 1906 3584 2284 3584 
Q 2666 3584 2933 3390 
Q 3200 3197 3328 2828 
z
" transform="scale(0.015625)"/>
       <path id="DejaVuSans-70" d="M 1159 525 
L 1159 -1331 
L 581 -1331 
L 581 3500 
L 1159 3500 
L 1159 2969 
Q 1341 3281 1617 3432 
Q 1894 3584 2278 3584 
Q 2916 3584 3314 3078 
Q 3713 2572 3713 1747 
Q 3713 922 3314 415 
Q 2916 -91 2278 -91 
Q 1894 -91 1617 61 
Q 1341 213 1159 525 
z
M 3116 1747 
Q 3116 2381 2855 2742 
Q 2594 3103 2138 3103 
Q 1681 3103 1420 2742 
Q 1159 2381 1159 1747 
Q 1159 1113 1420 752 
Q 1681 391 2138 391 
Q 2594 391 2855 752 
Q 3116 1113 3116 1747 
z
" transform="scale(0.015625)"/>
       <path id="DejaVuSans-72" d="M 2631 2963 
Q 2534 3019 2420 3045 
Q 2306 3072 2169 3072 
Q 1681 3072 1420 2755 
Q 1159 2438 1159 1844 
L 1159 0 
L 581 0 
L 581 3500 
L 1159 3500 
L 1159 2956 
Q 1341 3275 1631 3429 
Q 1922 3584 2338 3584 
Q 2397 3584 2469 3576 
Q 2541 3569 2628 3553 
L 2631 2963 
z
" transform="scale(0.015625)"/>
       <path id="DejaVuSans-74" d="M 1172 4494 
L 1172 3500 
L 2356 3500 
L 2356 3053 
L 1172 3053 
L 1172 1153 
Q 1172 725 1289 603 
Q 1406 481 1766 481 
L 2356 481 
L 2356 0 
L 1766 0 
Q 1100 0 847 248 
Q 594 497 594 1153 
L 594 3053 
L 172 3053 
L 172 3500 
L 594 3500 
L 594 4494 
L 1172 4494 
z
" transform="scale(0.015625)"/>
       <path id="DejaVuSans-75" d="M 544 1381 
L 544 3500 
L 1119 3500 
L 1119 1403 
Q 1119 906 1312 657 
Q 1506 409 1894 409 
Q 2359 409 2629 706 
Q 2900 1003 2900 1516 
L 2900 3500 
L 3475 3500 
L 3475 0 
L 2900 0 
L 2900 538 
Q 2691 219 2414 64 
Q 2138 -91 1772 -91 
Q 1169 -91 856 284 
Q 544 659 544 1381 
z
M 1991 3584 
L 1991 3584 
z
" transform="scale(0.015625)"/>
       <path id="DejaVuSans-Oblique-54" d="M 378 4666 
L 4325 4666 
L 4225 4134 
L 2559 4134 
L 1759 0 
L 1125 0 
L 1925 4134 
L 275 4134 
L 378 4666 
z
" transform="scale(0.015625)"/>
       <path id="DejaVuSans-69" d="M 603 3500 
L 1178 3500 
L 1178 0 
L 603 0 
L 603 3500 
z
M 603 4863 
L 1178 4863 
L 1178 4134 
L 603 4134 
L 603 4863 
z
" transform="scale(0.015625)"/>
       <path id="DejaVuSans-6e" d="M 3513 2113 
L 3513 0 
L 2938 0 
L 2938 2094 
Q 2938 2591 2744 2837 
Q 2550 3084 2163 3084 
Q 1697 3084 1428 2787 
Q 1159 2491 1159 1978 
L 1159 0 
L 581 0 
L 581 3500 
L 1159 3500 
L 1159 2956 
Q 1366 3272 1645 3428 
Q 1925 3584 2291 3584 
Q 2894 3584 3203 3211 
Q 3513 2838 3513 2113 
z
" transform="scale(0.015625)"/>
       <path id="DejaVuSans-4b" d="M 628 4666 
L 1259 4666 
L 1259 2694 
L 3353 4666 
L 4166 4666 
L 1850 2491 
L 4331 0 
L 3500 0 
L 1259 2247 
L 1259 0 
L 628 0 
L 628 4666 
z
" transform="scale(0.015625)"/>
      </defs>
      <use xlink:href="#DejaVuSans-54" transform="translate(0 0.015625)"/>
      <use xlink:href="#DejaVuSans-65" transform="translate(61.083984 0.015625)"/>
      <use xlink:href="#DejaVuSans-6d" transform="translate(122.607422 0.015625)"/>
      <use xlink:href="#DejaVuSans-70" transform="translate(220.019531 0.015625)"/>
      <use xlink:href="#DejaVuSans-65" transform="translate(283.496094 0.015625)"/>
      <use xlink:href="#DejaVuSans-72" transform="translate(345.019531 0.015625)"/>
      <use xlink:href="#DejaVuSans-61" transform="translate(386.132812 0.015625)"/>
      <use xlink:href="#DejaVuSans-74" transform="translate(447.412109 0.015625)"/>
      <use xlink:href="#DejaVuSans-75" transform="translate(486.621094 0.015625)"/>
      <use xlink:href="#DejaVuSans-72" transform="translate(550 0.015625)"/>
      <use xlink:href="#DejaVuSans-65" transform="translate(591.113281 0.015625)"/>
      <use xlink:href="#DejaVuSans-20" transform="translate(652.636719 0.015625)"/>
      <use xlink:href="#DejaVuSans-Oblique-54" transform="translate(684.423828 0.015625)"/>
      <use xlink:href="#DejaVuSans-20" transform="translate(745.507812 0.015625)"/>
      <use xlink:href="#DejaVuSans-69" transform="translate(777.294922 0.015625)"/>
      <use xlink:href="#DejaVuSans-6e" transform="translate(805.078125 0.015625)"/>
      <use xlink:href="#DejaVuSans-20" transform="translate(868.457031 0.015625)"/>
      <use xlink:href="#DejaVuSans-4b" transform="translate(900.244141 0.015625)"/>
     </g>
    </g>
   </g>
   <g id="line2d_24">
    <path d="M 76.234309 124.584237 
L 112.346401 312.683651 
L 148.458493 243.112635 
L 184.570585 245.689339 
L 220.682678 281.763199 
L 256.79477 307.530242 
L 292.906862 328.143877 
L 329.018954 276.609791 
L 365.131046 294.646721 
L 401.243138 294.646721 
L 437.35523 322.990468 
L 473.467322 281.763199 
L 509.579415 294.646721 
L 545.691507 346.180807 
L 581.803599 237.959226 
L 617.915691 235.382522 
" clip-path="url(#p56326804e7)" style="fill: none; stroke: #808080; stroke-width: 1.5; stroke-linecap: square"/>
   </g>
   <g id="line2d_25">
    <path d="M 76.234309 230.229113 
L 112.346401 276.609791 
L 148.458493 237.959226 
L 184.570585 237.959226 
L 220.682678 289.493312 
L 256.79477 250.842748 
L 292.906862 302.376834 
L 329.018954 289.493312 
L 365.131046 292.070016 
L 401.243138 328.143877 
L 437.35523 328.143877 
L 473.467322 276.609791 
L 509.579415 250.842748 
L 545.691507 250.842748 
L 581.803599 165.811506 
L 617.915691 160.658097 
" clip-path="url(#p56326804e7)" style="fill: none; stroke-dasharray: 5.55,2.4; stroke-dashoffset: 0; stroke: #808080; stroke-width: 1.5"/>
   </g>
   <g id="line2d_26">
    <path d="M 76.234309 31.822882 
L 112.346401 96.24049 
L 148.458493 145.197871 
L 184.570585 186.42514 
L 220.682678 219.922296 
L 256.79477 235.382522 
L 292.906862 225.075705 
L 329.018954 261.149565 
L 365.131046 279.186495 
L 401.243138 276.609791 
L 437.35523 276.609791 
L 473.467322 258.57286 
L 509.579415 237.959226 
L 545.691507 217.345592 
L 581.803599 209.615479 
L 617.915691 186.42514 
" clip-path="url(#p56326804e7)" style="fill: none; stroke: #000000; stroke-width: 1.5; stroke-linecap: square"/>
   </g>
   <g id="line2d_27">
    <path d="M 76.234309 42.107644 
L 94.290355 56.818732 
L 112.346401 62.304218 
L 130.402447 74.436172 
L 148.458493 77.455737 
L 166.514539 87.142468 
L 184.570585 87.425874 
L 202.626632 96.420519 
L 220.682678 91.423223 
L 238.738724 99.474329 
L 256.79477 96.453187 
L 274.850816 105.608788 
L 292.906862 97.719682 
L 310.962908 105.951505 
L 329.018954 99.532357 
L 347.075 120.771817 
L 365.131046 106.920497 
L 383.187092 116.863439 
L 401.243138 109.35236 
L 419.299184 117.667161 
L 437.35523 99.022917 
L 455.411276 106.548788 
L 473.467322 94.047927 
L 491.523368 99.999821 
L 509.579415 84.015989 
L 527.635461 92.022816 
L 545.691507 81.279184 
L 563.747553 87.942887 
L 581.803599 69.996659 
L 599.859645 76.499782 
L 617.915691 65.994364 
" clip-path="url(#p56326804e7)" style="fill: none; stroke: #1f77b4; stroke-width: 1.5; stroke-linecap: square"/>
   </g>
   <g id="line2d_28">
    <path d="M 76.234309 42.072776 
L 94.290355 56.793895 
L 112.346401 62.057561 
L 130.402447 74.220261 
L 148.458493 76.817955 
L 166.514539 86.560252 
L 184.570585 86.770798 
L 202.626632 95.784246 
L 220.682678 90.453978 
L 238.738724 98.540477 
L 256.79477 95.047228 
L 274.850816 104.289495 
L 292.906862 96.495552 
L 310.962908 104.754111 
L 329.018954 97.921626 
L 347.075 119.310284 
L 365.131046 105.111612 
L 383.187092 115.102745 
L 401.243138 107.417473 
L 419.299184 115.816373 
L 437.35523 96.99775 
L 455.411276 104.565492 
L 473.467322 92.020837 
L 491.523368 98.034144 
L 509.579415 82.335137 
L 527.635461 90.372383 
L 545.691507 79.579274 
L 563.747553 86.283417 
L 581.803599 68.323488 
L 599.859645 74.850054 
L 617.915691 64.254309 
" clip-path="url(#p56326804e7)" style="fill: none; stroke: #ff7f0e; stroke-width: 1.5; stroke-linecap: square"/>
   </g>
   <g id="line2d_29">
    <path d="M 76.234309 42.08071 
L 94.290355 56.799666 
L 112.346401 61.98364 
L 130.402447 74.157485 
L 148.458493 77.243737 
L 166.514539 86.899529 
L 184.570585 86.889939 
L 202.626632 95.922899 
L 220.682678 91.593453 
L 238.738724 99.633342 
L 256.79477 96.047608 
L 274.850816 105.265642 
L 292.906862 98.026325 
L 310.962908 106.240377 
L 329.018954 99.624951 
L 347.075 120.873371 
L 365.131046 108.371447 
L 383.187092 118.255863 
L 401.243138 109.80866 
L 419.299184 118.115667 
L 437.35523 102.31845 
L 455.411276 109.72621 
L 473.467322 95.034668 
L 491.523368 100.956112 
L 509.579415 86.470572 
L 527.635461 94.39274 
L 545.691507 82.231282 
L 563.747553 88.872541 
L 581.803599 72.832843 
L 599.859645 79.265462 
L 617.915691 67.254567 
" clip-path="url(#p56326804e7)" style="fill: none; stroke: #2ca02c; stroke-width: 1.5; stroke-linecap: square"/>
   </g>
   <g id="line2d_30">
    <path d="M 76.234309 42.027341 
L 94.290355 56.761488 
L 112.346401 61.730208 
L 130.402447 73.9425 
L 148.458493 76.711554 
L 166.514539 86.407947 
L 184.570585 86.441204 
L 202.626632 95.474657 
L 220.682678 90.755902 
L 238.738724 98.805193 
L 256.79477 94.830464 
L 274.850816 104.116973 
L 292.906862 96.944837 
L 310.962908 105.176206 
L 329.018954 98.214978 
L 347.075 119.585438 
L 365.131046 106.610372 
L 383.187092 116.53445 
L 401.243138 108.007487 
L 419.299184 116.389473 
L 437.35523 100.190422 
L 455.411276 107.647708 
L 473.467322 93.114987 
L 491.523368 99.091328 
L 509.579415 84.757857 
L 527.635461 92.710216 
L 545.691507 80.642676 
L 563.747553 87.317601 
L 581.803599 71.144775 
L 599.859645 77.599574 
L 617.915691 65.601242 
" clip-path="url(#p56326804e7)" style="fill: none; stroke: #d62728; stroke-width: 1.5; stroke-linecap: square"/>
   </g>
   <g id="line2d_31">
    <path d="M 76.234309 41.926608 
L 94.290355 56.690324 
L 112.346401 62.158902 
L 130.402447 74.292374 
L 148.458493 77.871582 
L 166.514539 87.472697 
L 184.570585 88.229229 
L 202.626632 97.168402 
L 220.682678 92.960249 
L 238.738724 101.006997 
L 256.79477 99.15241 
L 274.850816 108.136872 
L 292.906862 100.700377 
L 310.962908 108.922596 
L 329.018954 103.431173 
L 347.075 124.623599 
L 365.131046 113.455 
L 383.187092 123.285876 
L 401.243138 116.085795 
L 419.299184 124.261407 
L 437.35523 110.511054 
L 455.411276 117.744232 
L 473.467322 104.808275 
L 491.523368 110.628437 
L 509.579415 97.609918 
L 527.635461 105.379371 
L 545.691507 93.288643 
L 563.747553 99.79954 
L 581.803599 84.835047 
L 599.859645 91.224397 
L 617.915691 80.229859 
" clip-path="url(#p56326804e7)" style="fill: none; stroke: #9467bd; stroke-width: 1.5; stroke-linecap: square"/>
   </g>
   <g id="line2d_32">
    <path d="M 76.234309 41.882309 
L 94.290355 56.659065 
L 112.346401 61.846617 
L 130.402447 74.02027 
L 148.458493 77.020187 
L 166.514539 86.692792 
L 184.570585 87.184188 
L 202.626632 96.157657 
L 220.682678 91.292157 
L 238.738724 99.336393 
L 256.79477 96.416396 
L 274.850816 105.555158 
L 292.906862 97.995603 
L 310.962908 106.208945 
L 329.018954 99.944073 
L 347.075 121.12043 
L 365.131046 108.26362 
L 383.187092 118.152806 
L 401.243138 110.636972 
L 419.299184 118.867958 
L 437.35523 103.19197 
L 455.411276 110.564745 
L 473.467322 97.852656 
L 491.523368 103.616828 
L 509.579415 88.337991 
L 527.635461 96.200967 
L 545.691507 84.816206 
L 563.747553 91.320406 
L 581.803599 74.93856 
L 599.859645 81.32931 
L 617.915691 70.398271 
" clip-path="url(#p56326804e7)" style="fill: none; stroke: #8c564b; stroke-width: 1.5; stroke-linecap: square"/>
   </g>
   <g id="line2d_33">
    <path d="M 76.234309 39.293035 
L 94.290355 54.045551 
L 112.346401 56.643042 
L 130.402447 68.84415 
L 148.458493 69.07304 
L 166.514539 78.84692 
L 184.570585 76.573982 
L 202.626632 85.667754 
L 220.682678 77.564793 
L 238.738724 85.729484 
L 256.79477 80.467966 
L 274.850816 89.772773 
L 292.906862 78.955179 
L 310.962908 87.344755 
L 329.018954 78.517967 
L 347.075 100.211342 
L 365.131046 82.643288 
L 383.187092 92.833599 
L 401.243138 83.12738 
L 419.299184 91.666083 
L 437.35523 67.999524 
L 455.411276 75.779901 
L 473.467322 60.067316 
L 491.523368 66.239826 
L 509.579415 46.808452 
L 527.635461 55.139589 
L 545.691507 42.034344 
L 563.747553 48.982949 
L 581.803599 27.032619 
L 599.859645 33.839771 
L 617.915691 20.953709 
" clip-path="url(#p56326804e7)" style="fill: none; stroke: #e377c2; stroke-width: 1.5; stroke-linecap: square"/>
   </g>
   <g id="line2d_34">
    <path d="M 76.234309 39.248387 
L 94.290355 54.011106 
L 112.346401 56.330981 
L 130.402447 68.56381 
L 148.458493 68.310757 
L 166.514539 78.141993 
L 184.570585 75.777415 
L 202.626632 84.891483 
L 220.682678 76.390787 
L 238.738724 84.593041 
L 256.79477 78.758048 
L 274.850816 88.153766 
L 292.906862 77.424608 
L 310.962908 85.843994 
L 329.018954 76.554244 
L 347.075 98.407564 
L 365.131046 80.495179 
L 383.187092 90.738287 
L 401.243138 80.866898 
L 419.299184 89.494701 
L 437.35523 65.794959 
L 455.411276 73.619991 
L 473.467322 57.940652 
L 491.523368 64.177397 
L 509.579415 45.137166 
L 527.635461 53.499732 
L 545.691507 40.361841 
L 563.747553 47.352287 
L 581.803599 25.462969 
L 599.859645 32.293783 
L 617.915691 19.342172 
" clip-path="url(#p56326804e7)" style="fill: none; stroke: #7f7f7f; stroke-width: 1.5; stroke-linecap: square"/>
   </g>
   <g id="line2d_35">
    <path d="M 76.234309 39.259478 
L 94.290355 54.019707 
L 112.346401 56.23792 
L 130.402447 68.482054 
L 148.458493 68.839372 
L 166.514539 78.582037 
L 184.570585 75.937074 
L 202.626632 85.070333 
L 220.682678 77.786266 
L 238.738724 85.939189 
L 256.79477 79.976935 
L 274.850816 89.345781 
L 292.906862 79.312586 
L 310.962908 87.6836 
L 329.018954 78.585027 
L 347.075 100.287858 
L 365.131046 84.313808 
L 383.187092 94.441918 
L 401.243138 83.51251 
L 419.299184 92.043653 
L 437.35523 71.72983 
L 455.411276 79.384602 
L 473.467322 60.658255 
L 491.523368 66.80163 
L 509.579415 49.111347 
L 527.635461 57.355802 
L 545.691507 42.421375 
L 563.747553 49.350595 
L 581.803599 29.605366 
L 599.859645 36.340711 
L 617.915691 21.394314 
" clip-path="url(#p56326804e7)" style="fill: none; stroke: #bcbd22; stroke-width: 1.5; stroke-linecap: square"/>
   </g>
   <g id="line2d_36">
    <path d="M 76.234309 39.191029 
L 94.290355 53.966726 
L 112.346401 55.915509 
L 130.402447 68.199146 
L 148.458493 68.197289 
L 166.514539 77.982081 
L 184.570585 75.392123 
L 202.626632 84.526802 
L 220.682678 76.773703 
L 238.738724 84.93753 
L 256.79477 78.51127 
L 274.850816 87.952086 
L 292.906862 77.977867 
L 310.962908 86.368617 
L 329.018954 76.890405 
L 347.075 98.723992 
L 365.131046 82.256384 
L 383.187092 92.428069 
L 401.243138 81.474019 
L 419.299184 90.084171 
L 437.35523 69.451805 
L 455.411276 77.158895 
L 473.467322 58.768234 
L 491.523368 64.968302 
L 509.579415 47.519223 
L 527.635461 55.793919 
L 545.691507 41.016787 
L 563.747553 47.979707 
L 581.803599 28.14363 
L 599.859645 34.900467 
L 617.915691 20.034514 
" clip-path="url(#p56326804e7)" style="fill: none; stroke: #17becf; stroke-width: 1.5; stroke-linecap: square"/>
   </g>
   <g id="line2d_37">
    <path d="M 76.234309 39.062179 
L 94.290355 53.867563 
L 112.346401 56.464934 
L 130.402447 68.667645 
L 148.458493 69.581855 
L 166.514539 79.267897 
L 184.570585 77.585642 
L 202.626632 86.621049 
L 220.682678 79.434805 
L 238.738724 87.592658 
L 256.79477 83.707022 
L 274.850816 92.832493 
L 292.906862 82.559928 
L 310.962908 90.934949 
L 329.018954 83.023253 
L 347.075 104.661757 
L 365.131046 89.82394 
L 383.187092 99.894093 
L 401.243138 90.093209 
L 419.299184 98.488781 
L 437.35523 79.408896 
L 455.411276 86.889377 
L 473.467322 68.984933 
L 491.523368 75.036718 
L 509.579415 57.593285 
L 527.635461 65.704295 
L 545.691507 49.781584 
L 563.747553 56.605516 
L 581.803599 36.195113 
L 599.859645 42.92738 
L 617.915691 27.935782 
" clip-path="url(#p56326804e7)" style="fill: none; stroke: #1f77b4; stroke-width: 1.5; stroke-linecap: square"/>
   </g>
   <g id="line2d_38">
    <path d="M 76.234309 39.005281 
L 94.290355 53.82396 
L 112.346401 56.067551 
L 130.402447 68.311742 
L 148.458493 68.565158 
L 166.514539 78.325081 
L 184.570585 76.318406 
L 202.626632 85.390606 
L 220.682678 77.44066 
L 238.738724 85.59826 
L 256.79477 80.459926 
L 274.850816 89.746952 
L 292.906862 79.341499 
L 310.962908 87.711261 
L 329.018954 79.020081 
L 347.075 100.6467 
L 365.131046 84.198486 
L 383.187092 94.331483 
L 401.243138 84.523106 
L 419.299184 92.974524 
L 437.35523 72.573594 
L 455.411276 80.192257 
L 473.467322 63.681393 
L 491.523368 69.660356 
L 509.579415 50.612584 
L 527.635461 58.798647 
L 545.691507 44.614664 
L 563.747553 51.403747 
L 581.803599 30.742615 
L 599.859645 37.441057 
L 617.915691 23.556352 
" clip-path="url(#p56326804e7)" style="fill: none; stroke: #ff7f0e; stroke-width: 1.5; stroke-linecap: square"/>
   </g>
   <g id="line2d_39">
    <path d="M 76.234309 42.111251 
L 94.290355 56.822286 
L 112.346401 62.310524 
L 130.402447 74.4424 
L 148.458493 77.463126 
L 166.514539 87.14978 
L 184.570585 87.43485 
L 202.626632 96.429414 
L 220.682678 91.437148 
L 238.738724 99.488141 
L 256.79477 96.465849 
L 274.850816 105.621332 
L 292.906862 97.738869 
L 310.962908 105.970532 
L 329.018954 99.549805 
L 347.075 120.788891 
L 365.131046 106.942817 
L 383.187092 116.885534 
L 401.243138 109.372615 
L 419.299184 117.687244 
L 437.35523 99.051904 
L 455.411276 106.57754 
L 473.467322 94.078131 
L 491.523368 100.029831 
L 509.579415 84.053221 
L 527.635461 92.059729 
L 545.691507 81.316117 
L 563.747553 87.979556 
L 581.803599 70.04309 
L 599.859645 76.545889 
L 617.915691 66.040665 
" clip-path="url(#p56326804e7)" style="fill: none; stroke: #2ca02c; stroke-width: 1.5; stroke-linecap: square"/>
   </g>
   <g id="line2d_40">
    <path d="M 76.234309 42.076126 
L 94.290355 56.797196 
L 112.346401 62.062198 
L 130.402447 74.224842 
L 148.458493 76.824599 
L 166.514539 86.566827 
L 184.570585 86.783788 
L 202.626632 95.797118 
L 220.682678 90.47233 
L 238.738724 98.558679 
L 256.79477 95.066031 
L 274.850816 104.308123 
L 292.906862 96.523299 
L 310.962908 104.781626 
L 329.018954 97.94845 
L 347.075 119.336529 
L 365.131046 105.14469 
L 383.187092 115.135487 
L 401.243138 107.449922 
L 419.299184 115.848546 
L 437.35523 97.040334 
L 455.411276 104.60773 
L 473.467322 92.066043 
L 491.523368 98.079058 
L 509.579415 82.389633 
L 527.635461 90.426411 
L 545.691507 79.635129 
L 563.747553 86.338871 
L 581.803599 68.391064 
L 599.859645 74.917158 
L 617.915691 64.323457 
" clip-path="url(#p56326804e7)" style="fill: none; stroke: #d62728; stroke-width: 1.5; stroke-linecap: square"/>
   </g>
   <g id="line2d_41">
    <path d="M 76.234309 42.08453 
L 94.290355 56.803369 
L 112.346401 61.989999 
L 130.402447 74.163738 
L 148.458493 77.252449 
L 166.514539 86.90811 
L 184.570585 86.899716 
L 202.626632 95.932564 
L 220.682678 91.609138 
L 238.738724 99.648912 
L 256.79477 96.060968 
L 274.850816 105.278868 
L 292.906862 98.047575 
L 310.962908 106.261423 
L 329.018954 99.643655 
L 347.075 120.891641 
L 365.131046 108.396923 
L 383.187092 118.281043 
L 401.243138 109.830142 
L 419.299184 118.136953 
L 437.35523 102.352746 
L 455.411276 109.760074 
L 473.467322 95.067585 
L 491.523368 100.988699 
L 509.579415 86.513623 
L 527.635461 94.435269 
L 545.691507 82.270724 
L 563.747553 88.91159 
L 581.803599 72.886425 
L 599.859645 79.318534 
L 617.915691 67.304208 
" clip-path="url(#p56326804e7)" style="fill: none; stroke: #9467bd; stroke-width: 1.5; stroke-linecap: square"/>
   </g>
   <g id="line2d_42">
    <path d="M 76.234309 42.030869 
L 94.290355 56.764911 
L 112.346401 61.735062 
L 130.402447 73.947276 
L 148.458493 76.720048 
L 166.514539 86.416302 
L 184.570585 86.455884 
L 202.626632 95.48914 
L 220.682678 90.776596 
L 238.738724 98.825697 
L 256.79477 94.850348 
L 274.850816 104.136657 
L 292.906862 96.975294 
L 310.962908 105.206337 
L 329.018954 98.242954 
L 347.075 119.612793 
L 365.131046 106.646348 
L 383.187092 116.56999 
L 401.243138 108.040398 
L 419.299184 116.422082 
L 437.35523 100.237633 
L 455.411276 107.694374 
L 473.467322 93.161384 
L 491.523368 99.137297 
L 509.579415 84.816572 
L 527.635461 92.768235 
L 545.691507 80.698657 
L 563.747553 87.373051 
L 581.803599 71.21657 
L 599.859645 77.670702 
L 617.915691 65.669664 
" clip-path="url(#p56326804e7)" style="fill: none; stroke: #8c564b; stroke-width: 1.5; stroke-linecap: square"/>
   </g>
   <g id="line2d_43">
    <path d="M 76.234309 41.930577 
L 94.290355 56.694098 
L 112.346401 62.166122 
L 130.402447 74.299433 
L 148.458493 77.881209 
L 166.514539 87.482139 
L 184.570585 88.240887 
L 202.626632 97.179889 
L 220.682678 92.993312 
L 238.738724 101.04015 
L 256.79477 99.185926 
L 274.850816 108.16984 
L 292.906862 100.759781 
L 310.962908 108.982204 
L 329.018954 103.526784 
L 347.075 124.722447 
L 365.131046 113.566408 
L 383.187092 123.396897 
L 401.243138 116.190559 
L 419.299184 124.365969 
L 437.35523 110.65119 
L 455.411276 117.884153 
L 473.467322 104.944413 
L 491.523368 110.765461 
L 509.579415 97.755603 
L 527.635461 105.524541 
L 545.691507 93.427577 
L 563.747553 99.938479 
L 581.803599 84.986913 
L 599.859645 91.376468 
L 617.915691 80.377116 
" clip-path="url(#p56326804e7)" style="fill: none; stroke: #e377c2; stroke-width: 1.5; stroke-linecap: square"/>
   </g>
   <g id="line2d_44">
    <path d="M 76.234309 41.886033 
L 94.290355 56.662613 
L 112.346401 61.852134 
L 130.402447 74.025677 
L 148.458493 77.028778 
L 166.514539 86.701206 
L 184.570585 87.19952 
L 202.626632 96.172711 
L 220.682678 91.31317 
L 238.738724 99.357194 
L 256.79477 96.43687 
L 274.850816 105.575405 
L 292.906862 98.026586 
L 310.962908 106.239608 
L 329.018954 99.971586 
L 347.075 121.14736 
L 365.131046 108.298891 
L 383.187092 118.18763 
L 401.243138 110.667711 
L 419.299184 118.898424 
L 437.35523 103.240453 
L 455.411276 110.612437 
L 473.467322 97.897454 
L 491.523368 103.661163 
L 509.579415 88.39341 
L 527.635461 96.25567 
L 545.691507 84.866184 
L 563.747553 91.369861 
L 581.803599 75.006316 
L 599.859645 81.39638 
L 617.915691 70.458257 
" clip-path="url(#p56326804e7)" style="fill: none; stroke: #7f7f7f; stroke-width: 1.5; stroke-linecap: square"/>
   </g>
   <g id="patch_3">
    <path d="M 49.15024 362.522738 
L 49.15024 3.00024 
" style="fill: none; stroke: #000000; stroke-width: 0.8; stroke-linejoin: miter; stroke-linecap: square"/>
   </g>
   <g id="patch_4">
    <path d="M 644.99976 362.522738 
L 644.99976 3.00024 
" style="fill: none; stroke: #000000; stroke-width: 0.8; stroke-linejoin: miter; stroke-linecap: square"/>
   </g>
   <g id="patch_5">
    <path d="M 49.15024 362.522738 
L 644.99976 362.522738 
" style="fill: none; stroke: #000000; stroke-width: 0.8; stroke-linejoin: miter; stroke-linecap: square"/>
   </g>
   <g id="patch_6">
    <path d="M 49.15024 3.00024 
L 644.99976 3.00024 
" style="fill: none; stroke: #000000; stroke-width: 0.8; stroke-linejoin: miter; stroke-linecap: square"/>
   </g>
  </g>
  <g id="legend_1">
   <g id="patch_7">
    <path d="M 43.055469 570.424 
L 604.944531 570.424 
Q 606.944531 570.424 606.944531 568.424 
L 606.944531 466.677125 
Q 606.944531 464.677125 604.944531 464.677125 
L 43.055469 464.677125 
Q 41.055469 464.677125 41.055469 466.677125 
L 41.055469 568.424 
Q 41.055469 570.424 43.055469 570.424 
z
" style="fill: #ffffff; opacity: 0.8; stroke: #cccccc; stroke-linejoin: miter"/>
   </g>
   <g id="line2d_45">
    <path d="M 45.055469 472.775562 
L 55.055469 472.775562 
L 65.055469 472.775562 
" style="fill: none; stroke: #808080; stroke-width: 1.5; stroke-linecap: square"/>
   </g>
   <g id="text_26">
    <!-- Exp. Set 1 -->
    <g transform="translate(73.055469 476.275562)scale(0.1 -0.1)">
     <defs>
      <path id="DejaVuSans-45" d="M 628 4666 
L 3578 4666 
L 3578 4134 
L 1259 4134 
L 1259 2753 
L 3481 2753 
L 3481 2222 
L 1259 2222 
L 1259 531 
L 3634 531 
L 3634 0 
L 628 0 
L 628 4666 
z
" transform="scale(0.015625)"/>
      <path id="DejaVuSans-78" d="M 3513 3500 
L 2247 1797 
L 3578 0 
L 2900 0 
L 1881 1375 
L 863 0 
L 184 0 
L 1544 1831 
L 300 3500 
L 978 3500 
L 1906 2253 
L 2834 3500 
L 3513 3500 
z
" transform="scale(0.015625)"/>
      <path id="DejaVuSans-2e" d="M 684 794 
L 1344 794 
L 1344 0 
L 684 0 
L 684 794 
z
" transform="scale(0.015625)"/>
      <path id="DejaVuSans-53" d="M 3425 4513 
L 3425 3897 
Q 3066 4069 2747 4153 
Q 2428 4238 2131 4238 
Q 1616 4238 1336 4038 
Q 1056 3838 1056 3469 
Q 1056 3159 1242 3001 
Q 1428 2844 1947 2747 
L 2328 2669 
Q 3034 2534 3370 2195 
Q 3706 1856 3706 1288 
Q 3706 609 3251 259 
Q 2797 -91 1919 -91 
Q 1588 -91 1214 -16 
Q 841 59 441 206 
L 441 856 
Q 825 641 1194 531 
Q 1563 422 1919 422 
Q 2459 422 2753 634 
Q 3047 847 3047 1241 
Q 3047 1584 2836 1778 
Q 2625 1972 2144 2069 
L 1759 2144 
Q 1053 2284 737 2584 
Q 422 2884 422 3419 
Q 422 4038 858 4394 
Q 1294 4750 2059 4750 
Q 2388 4750 2728 4690 
Q 3069 4631 3425 4513 
z
" transform="scale(0.015625)"/>
     </defs>
     <use xlink:href="#DejaVuSans-45"/>
     <use xlink:href="#DejaVuSans-78" x="63.183594"/>
     <use xlink:href="#DejaVuSans-70" x="122.363281"/>
     <use xlink:href="#DejaVuSans-2e" x="185.839844"/>
     <use xlink:href="#DejaVuSans-20" x="217.626953"/>
     <use xlink:href="#DejaVuSans-53" x="249.414062"/>
     <use xlink:href="#DejaVuSans-65" x="312.890625"/>
     <use xlink:href="#DejaVuSans-74" x="374.414062"/>
     <use xlink:href="#DejaVuSans-20" x="413.623047"/>
     <use xlink:href="#DejaVuSans-31" x="445.410156"/>
    </g>
   </g>
   <g id="line2d_46">
    <path d="M 45.055469 487.453688 
L 55.055469 487.453688 
L 65.055469 487.453688 
" style="fill: none; stroke-dasharray: 5.55,2.4; stroke-dashoffset: 0; stroke: #808080; stroke-width: 1.5"/>
   </g>
   <g id="text_27">
    <!-- Exp. Set 2 -->
    <g transform="translate(73.055469 490.953688)scale(0.1 -0.1)">
     <use xlink:href="#DejaVuSans-45"/>
     <use xlink:href="#DejaVuSans-78" x="63.183594"/>
     <use xlink:href="#DejaVuSans-70" x="122.363281"/>
     <use xlink:href="#DejaVuSans-2e" x="185.839844"/>
     <use xlink:href="#DejaVuSans-20" x="217.626953"/>
     <use xlink:href="#DejaVuSans-53" x="249.414062"/>
     <use xlink:href="#DejaVuSans-65" x="312.890625"/>
     <use xlink:href="#DejaVuSans-74" x="374.414062"/>
     <use xlink:href="#DejaVuSans-20" x="413.623047"/>
     <use xlink:href="#DejaVuSans-32" x="445.410156"/>
    </g>
   </g>
   <g id="line2d_47">
    <path d="M 45.055469 502.131813 
L 55.055469 502.131813 
L 65.055469 502.131813 
" style="fill: none; stroke: #000000; stroke-width: 1.5; stroke-linecap: square"/>
   </g>
   <g id="text_28">
    <!-- WICON -->
    <g transform="translate(73.055469 505.631813)scale(0.1 -0.1)">
     <defs>
      <path id="DejaVuSans-57" d="M 213 4666 
L 850 4666 
L 1831 722 
L 2809 4666 
L 3519 4666 
L 4500 722 
L 5478 4666 
L 6119 4666 
L 4947 0 
L 4153 0 
L 3169 4050 
L 2175 0 
L 1381 0 
L 213 4666 
z
" transform="scale(0.015625)"/>
      <path id="DejaVuSans-49" d="M 628 4666 
L 1259 4666 
L 1259 0 
L 628 0 
L 628 4666 
z
" transform="scale(0.015625)"/>
      <path id="DejaVuSans-43" d="M 4122 4306 
L 4122 3641 
Q 3803 3938 3442 4084 
Q 3081 4231 2675 4231 
Q 1875 4231 1450 3742 
Q 1025 3253 1025 2328 
Q 1025 1406 1450 917 
Q 1875 428 2675 428 
Q 3081 428 3442 575 
Q 3803 722 4122 1019 
L 4122 359 
Q 3791 134 3420 21 
Q 3050 -91 2638 -91 
Q 1578 -91 968 557 
Q 359 1206 359 2328 
Q 359 3453 968 4101 
Q 1578 4750 2638 4750 
Q 3056 4750 3426 4639 
Q 3797 4528 4122 4306 
z
" transform="scale(0.015625)"/>
      <path id="DejaVuSans-4f" d="M 2522 4238 
Q 1834 4238 1429 3725 
Q 1025 3213 1025 2328 
Q 1025 1447 1429 934 
Q 1834 422 2522 422 
Q 3209 422 3611 934 
Q 4013 1447 4013 2328 
Q 4013 3213 3611 3725 
Q 3209 4238 2522 4238 
z
M 2522 4750 
Q 3503 4750 4090 4092 
Q 4678 3434 4678 2328 
Q 4678 1225 4090 567 
Q 3503 -91 2522 -91 
Q 1538 -91 948 565 
Q 359 1222 359 2328 
Q 359 3434 948 4092 
Q 1538 4750 2522 4750 
z
" transform="scale(0.015625)"/>
      <path id="DejaVuSans-4e" d="M 628 4666 
L 1478 4666 
L 3547 763 
L 3547 4666 
L 4159 4666 
L 4159 0 
L 3309 0 
L 1241 3903 
L 1241 0 
L 628 0 
L 628 4666 
z
" transform="scale(0.015625)"/>
     </defs>
     <use xlink:href="#DejaVuSans-57"/>
     <use xlink:href="#DejaVuSans-49" x="98.876953"/>
     <use xlink:href="#DejaVuSans-43" x="128.369141"/>
     <use xlink:href="#DejaVuSans-4f" x="198.193359"/>
     <use xlink:href="#DejaVuSans-4e" x="276.904297"/>
    </g>
   </g>
   <g id="line2d_48">
    <path d="M 45.055469 516.809938 
L 55.055469 516.809938 
L 65.055469 516.809938 
" style="fill: none; stroke: #1f77b4; stroke-width: 1.5; stroke-linecap: square"/>
   </g>
   <g id="text_29">
    <!-- PyRoll Base/Base/Base -->
    <g transform="translate(73.055469 520.309938)scale(0.1 -0.1)">
     <defs>
      <path id="DejaVuSans-79" d="M 2059 -325 
Q 1816 -950 1584 -1140 
Q 1353 -1331 966 -1331 
L 506 -1331 
L 506 -850 
L 844 -850 
Q 1081 -850 1212 -737 
Q 1344 -625 1503 -206 
L 1606 56 
L 191 3500 
L 800 3500 
L 1894 763 
L 2988 3500 
L 3597 3500 
L 2059 -325 
z
" transform="scale(0.015625)"/>
      <path id="DejaVuSans-42" d="M 1259 2228 
L 1259 519 
L 2272 519 
Q 2781 519 3026 730 
Q 3272 941 3272 1375 
Q 3272 1813 3026 2020 
Q 2781 2228 2272 2228 
L 1259 2228 
z
M 1259 4147 
L 1259 2741 
L 2194 2741 
Q 2656 2741 2882 2914 
Q 3109 3088 3109 3444 
Q 3109 3797 2882 3972 
Q 2656 4147 2194 4147 
L 1259 4147 
z
M 628 4666 
L 2241 4666 
Q 2963 4666 3353 4366 
Q 3744 4066 3744 3513 
Q 3744 3084 3544 2831 
Q 3344 2578 2956 2516 
Q 3422 2416 3680 2098 
Q 3938 1781 3938 1306 
Q 3938 681 3513 340 
Q 3088 0 2303 0 
L 628 0 
L 628 4666 
z
" transform="scale(0.015625)"/>
      <path id="DejaVuSans-2f" d="M 1625 4666 
L 2156 4666 
L 531 -594 
L 0 -594 
L 1625 4666 
z
" transform="scale(0.015625)"/>
     </defs>
     <use xlink:href="#DejaVuSans-50"/>
     <use xlink:href="#DejaVuSans-79" x="60.302734"/>
     <use xlink:href="#DejaVuSans-52" x="119.482422"/>
     <use xlink:href="#DejaVuSans-6f" x="184.464844"/>
     <use xlink:href="#DejaVuSans-6c" x="245.646484"/>
     <use xlink:href="#DejaVuSans-6c" x="273.429688"/>
     <use xlink:href="#DejaVuSans-20" x="301.212891"/>
     <use xlink:href="#DejaVuSans-42" x="333"/>
     <use xlink:href="#DejaVuSans-61" x="401.603516"/>
     <use xlink:href="#DejaVuSans-73" x="462.882812"/>
     <use xlink:href="#DejaVuSans-65" x="514.982422"/>
     <use xlink:href="#DejaVuSans-2f" x="576.505859"/>
     <use xlink:href="#DejaVuSans-42" x="610.197266"/>
     <use xlink:href="#DejaVuSans-61" x="678.800781"/>
     <use xlink:href="#DejaVuSans-73" x="740.080078"/>
     <use xlink:href="#DejaVuSans-65" x="792.179688"/>
     <use xlink:href="#DejaVuSans-2f" x="853.703125"/>
     <use xlink:href="#DejaVuSans-42" x="887.394531"/>
     <use xlink:href="#DejaVuSans-61" x="955.998047"/>
     <use xlink:href="#DejaVuSans-73" x="1017.277344"/>
     <use xlink:href="#DejaVuSans-65" x="1069.376953"/>
    </g>
   </g>
   <g id="line2d_49">
    <path d="M 45.055469 531.488063 
L 55.055469 531.488063 
L 65.055469 531.488063 
" style="fill: none; stroke: #ff7f0e; stroke-width: 1.5; stroke-linecap: square"/>
   </g>
   <g id="text_30">
    <!-- PyRoll Base/Base/Lendl -->
    <g transform="translate(73.055469 534.988063)scale(0.1 -0.1)">
     <defs>
      <path id="DejaVuSans-4c" d="M 628 4666 
L 1259 4666 
L 1259 531 
L 3531 531 
L 3531 0 
L 628 0 
L 628 4666 
z
" transform="scale(0.015625)"/>
      <path id="DejaVuSans-64" d="M 2906 2969 
L 2906 4863 
L 3481 4863 
L 3481 0 
L 2906 0 
L 2906 525 
Q 2725 213 2448 61 
Q 2172 -91 1784 -91 
Q 1150 -91 751 415 
Q 353 922 353 1747 
Q 353 2572 751 3078 
Q 1150 3584 1784 3584 
Q 2172 3584 2448 3432 
Q 2725 3281 2906 2969 
z
M 947 1747 
Q 947 1113 1208 752 
Q 1469 391 1925 391 
Q 2381 391 2643 752 
Q 2906 1113 2906 1747 
Q 2906 2381 2643 2742 
Q 2381 3103 1925 3103 
Q 1469 3103 1208 2742 
Q 947 2381 947 1747 
z
" transform="scale(0.015625)"/>
     </defs>
     <use xlink:href="#DejaVuSans-50"/>
     <use xlink:href="#DejaVuSans-79" x="60.302734"/>
     <use xlink:href="#DejaVuSans-52" x="119.482422"/>
     <use xlink:href="#DejaVuSans-6f" x="184.464844"/>
     <use xlink:href="#DejaVuSans-6c" x="245.646484"/>
     <use xlink:href="#DejaVuSans-6c" x="273.429688"/>
     <use xlink:href="#DejaVuSans-20" x="301.212891"/>
     <use xlink:href="#DejaVuSans-42" x="333"/>
     <use xlink:href="#DejaVuSans-61" x="401.603516"/>
     <use xlink:href="#DejaVuSans-73" x="462.882812"/>
     <use xlink:href="#DejaVuSans-65" x="514.982422"/>
     <use xlink:href="#DejaVuSans-2f" x="576.505859"/>
     <use xlink:href="#DejaVuSans-42" x="610.197266"/>
     <use xlink:href="#DejaVuSans-61" x="678.800781"/>
     <use xlink:href="#DejaVuSans-73" x="740.080078"/>
     <use xlink:href="#DejaVuSans-65" x="792.179688"/>
     <use xlink:href="#DejaVuSans-2f" x="853.703125"/>
     <use xlink:href="#DejaVuSans-4c" x="887.394531"/>
     <use xlink:href="#DejaVuSans-65" x="941.357422"/>
     <use xlink:href="#DejaVuSans-6e" x="1002.880859"/>
     <use xlink:href="#DejaVuSans-64" x="1066.259766"/>
     <use xlink:href="#DejaVuSans-6c" x="1129.736328"/>
    </g>
   </g>
   <g id="line2d_50">
    <path d="M 45.055469 546.166187 
L 55.055469 546.166187 
L 65.055469 546.166187 
" style="fill: none; stroke: #2ca02c; stroke-width: 1.5; stroke-linecap: square"/>
   </g>
   <g id="text_31">
    <!-- PyRoll Base/Hill/Base -->
    <g transform="translate(73.055469 549.666187)scale(0.1 -0.1)">
     <defs>
      <path id="DejaVuSans-48" d="M 628 4666 
L 1259 4666 
L 1259 2753 
L 3553 2753 
L 3553 4666 
L 4184 4666 
L 4184 0 
L 3553 0 
L 3553 2222 
L 1259 2222 
L 1259 0 
L 628 0 
L 628 4666 
z
" transform="scale(0.015625)"/>
     </defs>
     <use xlink:href="#DejaVuSans-50"/>
     <use xlink:href="#DejaVuSans-79" x="60.302734"/>
     <use xlink:href="#DejaVuSans-52" x="119.482422"/>
     <use xlink:href="#DejaVuSans-6f" x="184.464844"/>
     <use xlink:href="#DejaVuSans-6c" x="245.646484"/>
     <use xlink:href="#DejaVuSans-6c" x="273.429688"/>
     <use xlink:href="#DejaVuSans-20" x="301.212891"/>
     <use xlink:href="#DejaVuSans-42" x="333"/>
     <use xlink:href="#DejaVuSans-61" x="401.603516"/>
     <use xlink:href="#DejaVuSans-73" x="462.882812"/>
     <use xlink:href="#DejaVuSans-65" x="514.982422"/>
     <use xlink:href="#DejaVuSans-2f" x="576.505859"/>
     <use xlink:href="#DejaVuSans-48" x="610.197266"/>
     <use xlink:href="#DejaVuSans-69" x="685.392578"/>
     <use xlink:href="#DejaVuSans-6c" x="713.175781"/>
     <use xlink:href="#DejaVuSans-6c" x="740.958984"/>
     <use xlink:href="#DejaVuSans-2f" x="768.742188"/>
     <use xlink:href="#DejaVuSans-42" x="802.433594"/>
     <use xlink:href="#DejaVuSans-61" x="871.037109"/>
     <use xlink:href="#DejaVuSans-73" x="932.316406"/>
     <use xlink:href="#DejaVuSans-65" x="984.416016"/>
    </g>
   </g>
   <g id="line2d_51">
    <path d="M 45.055469 560.844313 
L 55.055469 560.844313 
L 65.055469 560.844313 
" style="fill: none; stroke: #d62728; stroke-width: 1.5; stroke-linecap: square"/>
   </g>
   <g id="text_32">
    <!-- PyRoll Base/Hill/Lendl -->
    <g transform="translate(73.055469 564.344313)scale(0.1 -0.1)">
     <use xlink:href="#DejaVuSans-50"/>
     <use xlink:href="#DejaVuSans-79" x="60.302734"/>
     <use xlink:href="#DejaVuSans-52" x="119.482422"/>
     <use xlink:href="#DejaVuSans-6f" x="184.464844"/>
     <use xlink:href="#DejaVuSans-6c" x="245.646484"/>
     <use xlink:href="#DejaVuSans-6c" x="273.429688"/>
     <use xlink:href="#DejaVuSans-20" x="301.212891"/>
     <use xlink:href="#DejaVuSans-42" x="333"/>
     <use xlink:href="#DejaVuSans-61" x="401.603516"/>
     <use xlink:href="#DejaVuSans-73" x="462.882812"/>
     <use xlink:href="#DejaVuSans-65" x="514.982422"/>
     <use xlink:href="#DejaVuSans-2f" x="576.505859"/>
     <use xlink:href="#DejaVuSans-48" x="610.197266"/>
     <use xlink:href="#DejaVuSans-69" x="685.392578"/>
     <use xlink:href="#DejaVuSans-6c" x="713.175781"/>
     <use xlink:href="#DejaVuSans-6c" x="740.958984"/>
     <use xlink:href="#DejaVuSans-2f" x="768.742188"/>
     <use xlink:href="#DejaVuSans-4c" x="802.433594"/>
     <use xlink:href="#DejaVuSans-65" x="856.396484"/>
     <use xlink:href="#DejaVuSans-6e" x="917.919922"/>
     <use xlink:href="#DejaVuSans-64" x="981.298828"/>
     <use xlink:href="#DejaVuSans-6c" x="1044.775391"/>
    </g>
   </g>
   <g id="line2d_52">
    <path d="M 208.810156 472.775562 
L 218.810156 472.775562 
L 228.810156 472.775562 
" style="fill: none; stroke: #9467bd; stroke-width: 1.5; stroke-linecap: square"/>
   </g>
   <g id="text_33">
    <!-- PyRoll Base/Wusatowski/Base -->
    <g transform="translate(236.810156 476.275562)scale(0.1 -0.1)">
     <defs>
      <path id="DejaVuSans-77" d="M 269 3500 
L 844 3500 
L 1563 769 
L 2278 3500 
L 2956 3500 
L 3675 769 
L 4391 3500 
L 4966 3500 
L 4050 0 
L 3372 0 
L 2619 2869 
L 1863 0 
L 1184 0 
L 269 3500 
z
" transform="scale(0.015625)"/>
      <path id="DejaVuSans-6b" d="M 581 4863 
L 1159 4863 
L 1159 1991 
L 2875 3500 
L 3609 3500 
L 1753 1863 
L 3688 0 
L 2938 0 
L 1159 1709 
L 1159 0 
L 581 0 
L 581 4863 
z
" transform="scale(0.015625)"/>
     </defs>
     <use xlink:href="#DejaVuSans-50"/>
     <use xlink:href="#DejaVuSans-79" x="60.302734"/>
     <use xlink:href="#DejaVuSans-52" x="119.482422"/>
     <use xlink:href="#DejaVuSans-6f" x="184.464844"/>
     <use xlink:href="#DejaVuSans-6c" x="245.646484"/>
     <use xlink:href="#DejaVuSans-6c" x="273.429688"/>
     <use xlink:href="#DejaVuSans-20" x="301.212891"/>
     <use xlink:href="#DejaVuSans-42" x="333"/>
     <use xlink:href="#DejaVuSans-61" x="401.603516"/>
     <use xlink:href="#DejaVuSans-73" x="462.882812"/>
     <use xlink:href="#DejaVuSans-65" x="514.982422"/>
     <use xlink:href="#DejaVuSans-2f" x="576.505859"/>
     <use xlink:href="#DejaVuSans-57" x="610.197266"/>
     <use xlink:href="#DejaVuSans-75" x="705.449219"/>
     <use xlink:href="#DejaVuSans-73" x="768.828125"/>
     <use xlink:href="#DejaVuSans-61" x="820.927734"/>
     <use xlink:href="#DejaVuSans-74" x="882.207031"/>
     <use xlink:href="#DejaVuSans-6f" x="921.416016"/>
     <use xlink:href="#DejaVuSans-77" x="982.597656"/>
     <use xlink:href="#DejaVuSans-73" x="1064.384766"/>
     <use xlink:href="#DejaVuSans-6b" x="1116.484375"/>
     <use xlink:href="#DejaVuSans-69" x="1174.394531"/>
     <use xlink:href="#DejaVuSans-2f" x="1202.177734"/>
     <use xlink:href="#DejaVuSans-42" x="1235.869141"/>
     <use xlink:href="#DejaVuSans-61" x="1304.472656"/>
     <use xlink:href="#DejaVuSans-73" x="1365.751953"/>
     <use xlink:href="#DejaVuSans-65" x="1417.851562"/>
    </g>
   </g>
   <g id="line2d_53">
    <path d="M 208.810156 487.453688 
L 218.810156 487.453688 
L 228.810156 487.453688 
" style="fill: none; stroke: #8c564b; stroke-width: 1.5; stroke-linecap: square"/>
   </g>
   <g id="text_34">
    <!-- PyRoll Base/Wusatowski/Lendl -->
    <g transform="translate(236.810156 490.953688)scale(0.1 -0.1)">
     <use xlink:href="#DejaVuSans-50"/>
     <use xlink:href="#DejaVuSans-79" x="60.302734"/>
     <use xlink:href="#DejaVuSans-52" x="119.482422"/>
     <use xlink:href="#DejaVuSans-6f" x="184.464844"/>
     <use xlink:href="#DejaVuSans-6c" x="245.646484"/>
     <use xlink:href="#DejaVuSans-6c" x="273.429688"/>
     <use xlink:href="#DejaVuSans-20" x="301.212891"/>
     <use xlink:href="#DejaVuSans-42" x="333"/>
     <use xlink:href="#DejaVuSans-61" x="401.603516"/>
     <use xlink:href="#DejaVuSans-73" x="462.882812"/>
     <use xlink:href="#DejaVuSans-65" x="514.982422"/>
     <use xlink:href="#DejaVuSans-2f" x="576.505859"/>
     <use xlink:href="#DejaVuSans-57" x="610.197266"/>
     <use xlink:href="#DejaVuSans-75" x="705.449219"/>
     <use xlink:href="#DejaVuSans-73" x="768.828125"/>
     <use xlink:href="#DejaVuSans-61" x="820.927734"/>
     <use xlink:href="#DejaVuSans-74" x="882.207031"/>
     <use xlink:href="#DejaVuSans-6f" x="921.416016"/>
     <use xlink:href="#DejaVuSans-77" x="982.597656"/>
     <use xlink:href="#DejaVuSans-73" x="1064.384766"/>
     <use xlink:href="#DejaVuSans-6b" x="1116.484375"/>
     <use xlink:href="#DejaVuSans-69" x="1174.394531"/>
     <use xlink:href="#DejaVuSans-2f" x="1202.177734"/>
     <use xlink:href="#DejaVuSans-4c" x="1235.869141"/>
     <use xlink:href="#DejaVuSans-65" x="1289.832031"/>
     <use xlink:href="#DejaVuSans-6e" x="1351.355469"/>
     <use xlink:href="#DejaVuSans-64" x="1414.734375"/>
     <use xlink:href="#DejaVuSans-6c" x="1478.210938"/>
    </g>
   </g>
   <g id="line2d_54">
    <path d="M 208.810156 502.131813 
L 218.810156 502.131813 
L 228.810156 502.131813 
" style="fill: none; stroke: #e377c2; stroke-width: 1.5; stroke-linecap: square"/>
   </g>
   <g id="text_35">
    <!-- PyRoll Hensel/Base/Base -->
    <g transform="translate(236.810156 505.631813)scale(0.1 -0.1)">
     <use xlink:href="#DejaVuSans-50"/>
     <use xlink:href="#DejaVuSans-79" x="60.302734"/>
     <use xlink:href="#DejaVuSans-52" x="119.482422"/>
     <use xlink:href="#DejaVuSans-6f" x="184.464844"/>
     <use xlink:href="#DejaVuSans-6c" x="245.646484"/>
     <use xlink:href="#DejaVuSans-6c" x="273.429688"/>
     <use xlink:href="#DejaVuSans-20" x="301.212891"/>
     <use xlink:href="#DejaVuSans-48" x="333"/>
     <use xlink:href="#DejaVuSans-65" x="408.195312"/>
     <use xlink:href="#DejaVuSans-6e" x="469.71875"/>
     <use xlink:href="#DejaVuSans-73" x="533.097656"/>
     <use xlink:href="#DejaVuSans-65" x="585.197266"/>
     <use xlink:href="#DejaVuSans-6c" x="646.720703"/>
     <use xlink:href="#DejaVuSans-2f" x="674.503906"/>
     <use xlink:href="#DejaVuSans-42" x="708.195312"/>
     <use xlink:href="#DejaVuSans-61" x="776.798828"/>
     <use xlink:href="#DejaVuSans-73" x="838.078125"/>
     <use xlink:href="#DejaVuSans-65" x="890.177734"/>
     <use xlink:href="#DejaVuSans-2f" x="951.701172"/>
     <use xlink:href="#DejaVuSans-42" x="985.392578"/>
     <use xlink:href="#DejaVuSans-61" x="1053.996094"/>
     <use xlink:href="#DejaVuSans-73" x="1115.275391"/>
     <use xlink:href="#DejaVuSans-65" x="1167.375"/>
    </g>
   </g>
   <g id="line2d_55">
    <path d="M 208.810156 516.809938 
L 218.810156 516.809938 
L 228.810156 516.809938 
" style="fill: none; stroke: #7f7f7f; stroke-width: 1.5; stroke-linecap: square"/>
   </g>
   <g id="text_36">
    <!-- PyRoll Hensel/Base/Lendl -->
    <g transform="translate(236.810156 520.309938)scale(0.1 -0.1)">
     <use xlink:href="#DejaVuSans-50"/>
     <use xlink:href="#DejaVuSans-79" x="60.302734"/>
     <use xlink:href="#DejaVuSans-52" x="119.482422"/>
     <use xlink:href="#DejaVuSans-6f" x="184.464844"/>
     <use xlink:href="#DejaVuSans-6c" x="245.646484"/>
     <use xlink:href="#DejaVuSans-6c" x="273.429688"/>
     <use xlink:href="#DejaVuSans-20" x="301.212891"/>
     <use xlink:href="#DejaVuSans-48" x="333"/>
     <use xlink:href="#DejaVuSans-65" x="408.195312"/>
     <use xlink:href="#DejaVuSans-6e" x="469.71875"/>
     <use xlink:href="#DejaVuSans-73" x="533.097656"/>
     <use xlink:href="#DejaVuSans-65" x="585.197266"/>
     <use xlink:href="#DejaVuSans-6c" x="646.720703"/>
     <use xlink:href="#DejaVuSans-2f" x="674.503906"/>
     <use xlink:href="#DejaVuSans-42" x="708.195312"/>
     <use xlink:href="#DejaVuSans-61" x="776.798828"/>
     <use xlink:href="#DejaVuSans-73" x="838.078125"/>
     <use xlink:href="#DejaVuSans-65" x="890.177734"/>
     <use xlink:href="#DejaVuSans-2f" x="951.701172"/>
     <use xlink:href="#DejaVuSans-4c" x="985.392578"/>
     <use xlink:href="#DejaVuSans-65" x="1039.355469"/>
     <use xlink:href="#DejaVuSans-6e" x="1100.878906"/>
     <use xlink:href="#DejaVuSans-64" x="1164.257812"/>
     <use xlink:href="#DejaVuSans-6c" x="1227.734375"/>
    </g>
   </g>
   <g id="line2d_56">
    <path d="M 208.810156 531.488063 
L 218.810156 531.488063 
L 228.810156 531.488063 
" style="fill: none; stroke: #bcbd22; stroke-width: 1.5; stroke-linecap: square"/>
   </g>
   <g id="text_37">
    <!-- PyRoll Hensel/Hill/Base -->
    <g transform="translate(236.810156 534.988063)scale(0.1 -0.1)">
     <use xlink:href="#DejaVuSans-50"/>
     <use xlink:href="#DejaVuSans-79" x="60.302734"/>
     <use xlink:href="#DejaVuSans-52" x="119.482422"/>
     <use xlink:href="#DejaVuSans-6f" x="184.464844"/>
     <use xlink:href="#DejaVuSans-6c" x="245.646484"/>
     <use xlink:href="#DejaVuSans-6c" x="273.429688"/>
     <use xlink:href="#DejaVuSans-20" x="301.212891"/>
     <use xlink:href="#DejaVuSans-48" x="333"/>
     <use xlink:href="#DejaVuSans-65" x="408.195312"/>
     <use xlink:href="#DejaVuSans-6e" x="469.71875"/>
     <use xlink:href="#DejaVuSans-73" x="533.097656"/>
     <use xlink:href="#DejaVuSans-65" x="585.197266"/>
     <use xlink:href="#DejaVuSans-6c" x="646.720703"/>
     <use xlink:href="#DejaVuSans-2f" x="674.503906"/>
     <use xlink:href="#DejaVuSans-48" x="708.195312"/>
     <use xlink:href="#DejaVuSans-69" x="783.390625"/>
     <use xlink:href="#DejaVuSans-6c" x="811.173828"/>
     <use xlink:href="#DejaVuSans-6c" x="838.957031"/>
     <use xlink:href="#DejaVuSans-2f" x="866.740234"/>
     <use xlink:href="#DejaVuSans-42" x="900.431641"/>
     <use xlink:href="#DejaVuSans-61" x="969.035156"/>
     <use xlink:href="#DejaVuSans-73" x="1030.314453"/>
     <use xlink:href="#DejaVuSans-65" x="1082.414062"/>
    </g>
   </g>
   <g id="line2d_57">
    <path d="M 208.810156 546.166187 
L 218.810156 546.166187 
L 228.810156 546.166187 
" style="fill: none; stroke: #17becf; stroke-width: 1.5; stroke-linecap: square"/>
   </g>
   <g id="text_38">
    <!-- PyRoll Hensel/Hill/Lendl -->
    <g transform="translate(236.810156 549.666187)scale(0.1 -0.1)">
     <use xlink:href="#DejaVuSans-50"/>
     <use xlink:href="#DejaVuSans-79" x="60.302734"/>
     <use xlink:href="#DejaVuSans-52" x="119.482422"/>
     <use xlink:href="#DejaVuSans-6f" x="184.464844"/>
     <use xlink:href="#DejaVuSans-6c" x="245.646484"/>
     <use xlink:href="#DejaVuSans-6c" x="273.429688"/>
     <use xlink:href="#DejaVuSans-20" x="301.212891"/>
     <use xlink:href="#DejaVuSans-48" x="333"/>
     <use xlink:href="#DejaVuSans-65" x="408.195312"/>
     <use xlink:href="#DejaVuSans-6e" x="469.71875"/>
     <use xlink:href="#DejaVuSans-73" x="533.097656"/>
     <use xlink:href="#DejaVuSans-65" x="585.197266"/>
     <use xlink:href="#DejaVuSans-6c" x="646.720703"/>
     <use xlink:href="#DejaVuSans-2f" x="674.503906"/>
     <use xlink:href="#DejaVuSans-48" x="708.195312"/>
     <use xlink:href="#DejaVuSans-69" x="783.390625"/>
     <use xlink:href="#DejaVuSans-6c" x="811.173828"/>
     <use xlink:href="#DejaVuSans-6c" x="838.957031"/>
     <use xlink:href="#DejaVuSans-2f" x="866.740234"/>
     <use xlink:href="#DejaVuSans-4c" x="900.431641"/>
     <use xlink:href="#DejaVuSans-65" x="954.394531"/>
     <use xlink:href="#DejaVuSans-6e" x="1015.917969"/>
     <use xlink:href="#DejaVuSans-64" x="1079.296875"/>
     <use xlink:href="#DejaVuSans-6c" x="1142.773438"/>
    </g>
   </g>
   <g id="line2d_58">
    <path d="M 208.810156 560.844313 
L 218.810156 560.844313 
L 228.810156 560.844313 
" style="fill: none; stroke: #1f77b4; stroke-width: 1.5; stroke-linecap: square"/>
   </g>
   <g id="text_39">
    <!-- PyRoll Hensel/Wusatowski/Base -->
    <g transform="translate(236.810156 564.344313)scale(0.1 -0.1)">
     <use xlink:href="#DejaVuSans-50"/>
     <use xlink:href="#DejaVuSans-79" x="60.302734"/>
     <use xlink:href="#DejaVuSans-52" x="119.482422"/>
     <use xlink:href="#DejaVuSans-6f" x="184.464844"/>
     <use xlink:href="#DejaVuSans-6c" x="245.646484"/>
     <use xlink:href="#DejaVuSans-6c" x="273.429688"/>
     <use xlink:href="#DejaVuSans-20" x="301.212891"/>
     <use xlink:href="#DejaVuSans-48" x="333"/>
     <use xlink:href="#DejaVuSans-65" x="408.195312"/>
     <use xlink:href="#DejaVuSans-6e" x="469.71875"/>
     <use xlink:href="#DejaVuSans-73" x="533.097656"/>
     <use xlink:href="#DejaVuSans-65" x="585.197266"/>
     <use xlink:href="#DejaVuSans-6c" x="646.720703"/>
     <use xlink:href="#DejaVuSans-2f" x="674.503906"/>
     <use xlink:href="#DejaVuSans-57" x="708.195312"/>
     <use xlink:href="#DejaVuSans-75" x="803.447266"/>
     <use xlink:href="#DejaVuSans-73" x="866.826172"/>
     <use xlink:href="#DejaVuSans-61" x="918.925781"/>
     <use xlink:href="#DejaVuSans-74" x="980.205078"/>
     <use xlink:href="#DejaVuSans-6f" x="1019.414062"/>
     <use xlink:href="#DejaVuSans-77" x="1080.595703"/>
     <use xlink:href="#DejaVuSans-73" x="1162.382812"/>
     <use xlink:href="#DejaVuSans-6b" x="1214.482422"/>
     <use xlink:href="#DejaVuSans-69" x="1272.392578"/>
     <use xlink:href="#DejaVuSans-2f" x="1300.175781"/>
     <use xlink:href="#DejaVuSans-42" x="1333.867188"/>
     <use xlink:href="#DejaVuSans-61" x="1402.470703"/>
     <use xlink:href="#DejaVuSans-73" x="1463.75"/>
     <use xlink:href="#DejaVuSans-65" x="1515.849609"/>
    </g>
   </g>
   <g id="line2d_59">
    <path d="M 414.546094 472.775562 
L 424.546094 472.775562 
L 434.546094 472.775562 
" style="fill: none; stroke: #ff7f0e; stroke-width: 1.5; stroke-linecap: square"/>
   </g>
   <g id="text_40">
    <!-- PyRoll Hensel/Wusatowski/Lendl -->
    <g transform="translate(442.546094 476.275562)scale(0.1 -0.1)">
     <use xlink:href="#DejaVuSans-50"/>
     <use xlink:href="#DejaVuSans-79" x="60.302734"/>
     <use xlink:href="#DejaVuSans-52" x="119.482422"/>
     <use xlink:href="#DejaVuSans-6f" x="184.464844"/>
     <use xlink:href="#DejaVuSans-6c" x="245.646484"/>
     <use xlink:href="#DejaVuSans-6c" x="273.429688"/>
     <use xlink:href="#DejaVuSans-20" x="301.212891"/>
     <use xlink:href="#DejaVuSans-48" x="333"/>
     <use xlink:href="#DejaVuSans-65" x="408.195312"/>
     <use xlink:href="#DejaVuSans-6e" x="469.71875"/>
     <use xlink:href="#DejaVuSans-73" x="533.097656"/>
     <use xlink:href="#DejaVuSans-65" x="585.197266"/>
     <use xlink:href="#DejaVuSans-6c" x="646.720703"/>
     <use xlink:href="#DejaVuSans-2f" x="674.503906"/>
     <use xlink:href="#DejaVuSans-57" x="708.195312"/>
     <use xlink:href="#DejaVuSans-75" x="803.447266"/>
     <use xlink:href="#DejaVuSans-73" x="866.826172"/>
     <use xlink:href="#DejaVuSans-61" x="918.925781"/>
     <use xlink:href="#DejaVuSans-74" x="980.205078"/>
     <use xlink:href="#DejaVuSans-6f" x="1019.414062"/>
     <use xlink:href="#DejaVuSans-77" x="1080.595703"/>
     <use xlink:href="#DejaVuSans-73" x="1162.382812"/>
     <use xlink:href="#DejaVuSans-6b" x="1214.482422"/>
     <use xlink:href="#DejaVuSans-69" x="1272.392578"/>
     <use xlink:href="#DejaVuSans-2f" x="1300.175781"/>
     <use xlink:href="#DejaVuSans-4c" x="1333.867188"/>
     <use xlink:href="#DejaVuSans-65" x="1387.830078"/>
     <use xlink:href="#DejaVuSans-6e" x="1449.353516"/>
     <use xlink:href="#DejaVuSans-64" x="1512.732422"/>
     <use xlink:href="#DejaVuSans-6c" x="1576.208984"/>
    </g>
   </g>
   <g id="line2d_60">
    <path d="M 414.546094 487.453688 
L 424.546094 487.453688 
L 434.546094 487.453688 
" style="fill: none; stroke: #2ca02c; stroke-width: 1.5; stroke-linecap: square"/>
   </g>
   <g id="text_41">
    <!-- PyRoll Sims/Base/Base -->
    <g transform="translate(442.546094 490.953688)scale(0.1 -0.1)">
     <use xlink:href="#DejaVuSans-50"/>
     <use xlink:href="#DejaVuSans-79" x="60.302734"/>
     <use xlink:href="#DejaVuSans-52" x="119.482422"/>
     <use xlink:href="#DejaVuSans-6f" x="184.464844"/>
     <use xlink:href="#DejaVuSans-6c" x="245.646484"/>
     <use xlink:href="#DejaVuSans-6c" x="273.429688"/>
     <use xlink:href="#DejaVuSans-20" x="301.212891"/>
     <use xlink:href="#DejaVuSans-53" x="333"/>
     <use xlink:href="#DejaVuSans-69" x="396.476562"/>
     <use xlink:href="#DejaVuSans-6d" x="424.259766"/>
     <use xlink:href="#DejaVuSans-73" x="521.671875"/>
     <use xlink:href="#DejaVuSans-2f" x="573.771484"/>
     <use xlink:href="#DejaVuSans-42" x="607.462891"/>
     <use xlink:href="#DejaVuSans-61" x="676.066406"/>
     <use xlink:href="#DejaVuSans-73" x="737.345703"/>
     <use xlink:href="#DejaVuSans-65" x="789.445312"/>
     <use xlink:href="#DejaVuSans-2f" x="850.96875"/>
     <use xlink:href="#DejaVuSans-42" x="884.660156"/>
     <use xlink:href="#DejaVuSans-61" x="953.263672"/>
     <use xlink:href="#DejaVuSans-73" x="1014.542969"/>
     <use xlink:href="#DejaVuSans-65" x="1066.642578"/>
    </g>
   </g>
   <g id="line2d_61">
    <path d="M 414.546094 502.131813 
L 424.546094 502.131813 
L 434.546094 502.131813 
" style="fill: none; stroke: #d62728; stroke-width: 1.5; stroke-linecap: square"/>
   </g>
   <g id="text_42">
    <!-- PyRoll Sims/Base/Lendl -->
    <g transform="translate(442.546094 505.631813)scale(0.1 -0.1)">
     <use xlink:href="#DejaVuSans-50"/>
     <use xlink:href="#DejaVuSans-79" x="60.302734"/>
     <use xlink:href="#DejaVuSans-52" x="119.482422"/>
     <use xlink:href="#DejaVuSans-6f" x="184.464844"/>
     <use xlink:href="#DejaVuSans-6c" x="245.646484"/>
     <use xlink:href="#DejaVuSans-6c" x="273.429688"/>
     <use xlink:href="#DejaVuSans-20" x="301.212891"/>
     <use xlink:href="#DejaVuSans-53" x="333"/>
     <use xlink:href="#DejaVuSans-69" x="396.476562"/>
     <use xlink:href="#DejaVuSans-6d" x="424.259766"/>
     <use xlink:href="#DejaVuSans-73" x="521.671875"/>
     <use xlink:href="#DejaVuSans-2f" x="573.771484"/>
     <use xlink:href="#DejaVuSans-42" x="607.462891"/>
     <use xlink:href="#DejaVuSans-61" x="676.066406"/>
     <use xlink:href="#DejaVuSans-73" x="737.345703"/>
     <use xlink:href="#DejaVuSans-65" x="789.445312"/>
     <use xlink:href="#DejaVuSans-2f" x="850.96875"/>
     <use xlink:href="#DejaVuSans-4c" x="884.660156"/>
     <use xlink:href="#DejaVuSans-65" x="938.623047"/>
     <use xlink:href="#DejaVuSans-6e" x="1000.146484"/>
     <use xlink:href="#DejaVuSans-64" x="1063.525391"/>
     <use xlink:href="#DejaVuSans-6c" x="1127.001953"/>
    </g>
   </g>
   <g id="line2d_62">
    <path d="M 414.546094 516.809938 
L 424.546094 516.809938 
L 434.546094 516.809938 
" style="fill: none; stroke: #9467bd; stroke-width: 1.5; stroke-linecap: square"/>
   </g>
   <g id="text_43">
    <!-- PyRoll Sims/Hill/Base -->
    <g transform="translate(442.546094 520.309938)scale(0.1 -0.1)">
     <use xlink:href="#DejaVuSans-50"/>
     <use xlink:href="#DejaVuSans-79" x="60.302734"/>
     <use xlink:href="#DejaVuSans-52" x="119.482422"/>
     <use xlink:href="#DejaVuSans-6f" x="184.464844"/>
     <use xlink:href="#DejaVuSans-6c" x="245.646484"/>
     <use xlink:href="#DejaVuSans-6c" x="273.429688"/>
     <use xlink:href="#DejaVuSans-20" x="301.212891"/>
     <use xlink:href="#DejaVuSans-53" x="333"/>
     <use xlink:href="#DejaVuSans-69" x="396.476562"/>
     <use xlink:href="#DejaVuSans-6d" x="424.259766"/>
     <use xlink:href="#DejaVuSans-73" x="521.671875"/>
     <use xlink:href="#DejaVuSans-2f" x="573.771484"/>
     <use xlink:href="#DejaVuSans-48" x="607.462891"/>
     <use xlink:href="#DejaVuSans-69" x="682.658203"/>
     <use xlink:href="#DejaVuSans-6c" x="710.441406"/>
     <use xlink:href="#DejaVuSans-6c" x="738.224609"/>
     <use xlink:href="#DejaVuSans-2f" x="766.007812"/>
     <use xlink:href="#DejaVuSans-42" x="799.699219"/>
     <use xlink:href="#DejaVuSans-61" x="868.302734"/>
     <use xlink:href="#DejaVuSans-73" x="929.582031"/>
     <use xlink:href="#DejaVuSans-65" x="981.681641"/>
    </g>
   </g>
   <g id="line2d_63">
    <path d="M 414.546094 531.488063 
L 424.546094 531.488063 
L 434.546094 531.488063 
" style="fill: none; stroke: #8c564b; stroke-width: 1.5; stroke-linecap: square"/>
   </g>
   <g id="text_44">
    <!-- PyRoll Sims/Hill/Lendl -->
    <g transform="translate(442.546094 534.988063)scale(0.1 -0.1)">
     <use xlink:href="#DejaVuSans-50"/>
     <use xlink:href="#DejaVuSans-79" x="60.302734"/>
     <use xlink:href="#DejaVuSans-52" x="119.482422"/>
     <use xlink:href="#DejaVuSans-6f" x="184.464844"/>
     <use xlink:href="#DejaVuSans-6c" x="245.646484"/>
     <use xlink:href="#DejaVuSans-6c" x="273.429688"/>
     <use xlink:href="#DejaVuSans-20" x="301.212891"/>
     <use xlink:href="#DejaVuSans-53" x="333"/>
     <use xlink:href="#DejaVuSans-69" x="396.476562"/>
     <use xlink:href="#DejaVuSans-6d" x="424.259766"/>
     <use xlink:href="#DejaVuSans-73" x="521.671875"/>
     <use xlink:href="#DejaVuSans-2f" x="573.771484"/>
     <use xlink:href="#DejaVuSans-48" x="607.462891"/>
     <use xlink:href="#DejaVuSans-69" x="682.658203"/>
     <use xlink:href="#DejaVuSans-6c" x="710.441406"/>
     <use xlink:href="#DejaVuSans-6c" x="738.224609"/>
     <use xlink:href="#DejaVuSans-2f" x="766.007812"/>
     <use xlink:href="#DejaVuSans-4c" x="799.699219"/>
     <use xlink:href="#DejaVuSans-65" x="853.662109"/>
     <use xlink:href="#DejaVuSans-6e" x="915.185547"/>
     <use xlink:href="#DejaVuSans-64" x="978.564453"/>
     <use xlink:href="#DejaVuSans-6c" x="1042.041016"/>
    </g>
   </g>
   <g id="line2d_64">
    <path d="M 414.546094 546.166187 
L 424.546094 546.166187 
L 434.546094 546.166187 
" style="fill: none; stroke: #e377c2; stroke-width: 1.5; stroke-linecap: square"/>
   </g>
   <g id="text_45">
    <!-- PyRoll Sims/Wusatowski/Base -->
    <g transform="translate(442.546094 549.666187)scale(0.1 -0.1)">
     <use xlink:href="#DejaVuSans-50"/>
     <use xlink:href="#DejaVuSans-79" x="60.302734"/>
     <use xlink:href="#DejaVuSans-52" x="119.482422"/>
     <use xlink:href="#DejaVuSans-6f" x="184.464844"/>
     <use xlink:href="#DejaVuSans-6c" x="245.646484"/>
     <use xlink:href="#DejaVuSans-6c" x="273.429688"/>
     <use xlink:href="#DejaVuSans-20" x="301.212891"/>
     <use xlink:href="#DejaVuSans-53" x="333"/>
     <use xlink:href="#DejaVuSans-69" x="396.476562"/>
     <use xlink:href="#DejaVuSans-6d" x="424.259766"/>
     <use xlink:href="#DejaVuSans-73" x="521.671875"/>
     <use xlink:href="#DejaVuSans-2f" x="573.771484"/>
     <use xlink:href="#DejaVuSans-57" x="607.462891"/>
     <use xlink:href="#DejaVuSans-75" x="702.714844"/>
     <use xlink:href="#DejaVuSans-73" x="766.09375"/>
     <use xlink:href="#DejaVuSans-61" x="818.193359"/>
     <use xlink:href="#DejaVuSans-74" x="879.472656"/>
     <use xlink:href="#DejaVuSans-6f" x="918.681641"/>
     <use xlink:href="#DejaVuSans-77" x="979.863281"/>
     <use xlink:href="#DejaVuSans-73" x="1061.650391"/>
     <use xlink:href="#DejaVuSans-6b" x="1113.75"/>
     <use xlink:href="#DejaVuSans-69" x="1171.660156"/>
     <use xlink:href="#DejaVuSans-2f" x="1199.443359"/>
     <use xlink:href="#DejaVuSans-42" x="1233.134766"/>
     <use xlink:href="#DejaVuSans-61" x="1301.738281"/>
     <use xlink:href="#DejaVuSans-73" x="1363.017578"/>
     <use xlink:href="#DejaVuSans-65" x="1415.117188"/>
    </g>
   </g>
   <g id="line2d_65">
    <path d="M 414.546094 560.844313 
L 424.546094 560.844313 
L 434.546094 560.844313 
" style="fill: none; stroke: #7f7f7f; stroke-width: 1.5; stroke-linecap: square"/>
   </g>
   <g id="text_46">
    <!-- PyRoll Sims/Wusatowski/Lendl -->
    <g transform="translate(442.546094 564.344313)scale(0.1 -0.1)">
     <use xlink:href="#DejaVuSans-50"/>
     <use xlink:href="#DejaVuSans-79" x="60.302734"/>
     <use xlink:href="#DejaVuSans-52" x="119.482422"/>
     <use xlink:href="#DejaVuSans-6f" x="184.464844"/>
     <use xlink:href="#DejaVuSans-6c" x="245.646484"/>
     <use xlink:href="#DejaVuSans-6c" x="273.429688"/>
     <use xlink:href="#DejaVuSans-20" x="301.212891"/>
     <use xlink:href="#DejaVuSans-53" x="333"/>
     <use xlink:href="#DejaVuSans-69" x="396.476562"/>
     <use xlink:href="#DejaVuSans-6d" x="424.259766"/>
     <use xlink:href="#DejaVuSans-73" x="521.671875"/>
     <use xlink:href="#DejaVuSans-2f" x="573.771484"/>
     <use xlink:href="#DejaVuSans-57" x="607.462891"/>
     <use xlink:href="#DejaVuSans-75" x="702.714844"/>
     <use xlink:href="#DejaVuSans-73" x="766.09375"/>
     <use xlink:href="#DejaVuSans-61" x="818.193359"/>
     <use xlink:href="#DejaVuSans-74" x="879.472656"/>
     <use xlink:href="#DejaVuSans-6f" x="918.681641"/>
     <use xlink:href="#DejaVuSans-77" x="979.863281"/>
     <use xlink:href="#DejaVuSans-73" x="1061.650391"/>
     <use xlink:href="#DejaVuSans-6b" x="1113.75"/>
     <use xlink:href="#DejaVuSans-69" x="1171.660156"/>
     <use xlink:href="#DejaVuSans-2f" x="1199.443359"/>
     <use xlink:href="#DejaVuSans-4c" x="1233.134766"/>
     <use xlink:href="#DejaVuSans-65" x="1287.097656"/>
     <use xlink:href="#DejaVuSans-6e" x="1348.621094"/>
     <use xlink:href="#DejaVuSans-64" x="1412"/>
     <use xlink:href="#DejaVuSans-6c" x="1475.476562"/>
    </g>
   </g>
  </g>
 </g>
 <defs>
  <clipPath id="p56326804e7">
   <rect x="49.15024" y="3.00024" width="595.84952" height="359.522498"/>
  </clipPath>
 </defs>
</svg>
