<?xml version="1.0" encoding="utf-8" standalone="no"?>
<!DOCTYPE svg PUBLIC "-//W3C//DTD SVG 1.1//EN"
  "http://www.w3.org/Graphics/SVG/1.1/DTD/svg11.dtd">
<svg xmlns:xlink="http://www.w3.org/1999/xlink" width="648pt" height="576pt" viewBox="0 0 648 576" xmlns="http://www.w3.org/2000/svg" version="1.1">
 <metadata>
  <rdf:RDF xmlns:dc="http://purl.org/dc/elements/1.1/" xmlns:cc="http://creativecommons.org/ns#" xmlns:rdf="http://www.w3.org/1999/02/22-rdf-syntax-ns#">
   <cc:Work>
    <dc:type rdf:resource="http://purl.org/dc/dcmitype/StillImage"/>
    <dc:date>2022-06-09T16:09:27.307835</dc:date>
    <dc:format>image/svg+xml</dc:format>
    <dc:creator>
     <cc:Agent>
      <dc:title>Matplotlib v3.5.2, https://matplotlib.org/</dc:title>
     </cc:Agent>
    </dc:creator>
   </cc:Work>
  </rdf:RDF>
 </metadata>
 <defs>
  <style type="text/css">*{stroke-linejoin: round; stroke-linecap: butt}</style>
 </defs>
 <g id="figure_1">
  <g id="patch_1">
   <path d="M 0 576 
L 648 576 
L 648 0 
L 0 0 
z
" style="fill: #ffffff"/>
  </g>
  <g id="axes_1">
   <g id="patch_2">
    <path d="M 55.51274 362.522738 
L 644.99976 362.522738 
L 644.99976 3.00024 
L 55.51274 3.00024 
z
" style="fill: #ffffff"/>
   </g>
   <g id="matplotlib.axis_1">
    <g id="xtick_1">
     <g id="line2d_1">
      <defs>
       <path id="mbdb50fc7b8" d="M 0 0 
L 0 3.5 
" style="stroke: #000000; stroke-width: 0.8"/>
      </defs>
      <g>
       <use xlink:href="#mbdb50fc7b8" x="82.307605" y="362.522738" style="stroke: #000000; stroke-width: 0.8"/>
      </g>
     </g>
     <g id="text_1">
      <!-- 0 -->
      <g transform="translate(79.126355 377.121176)scale(0.1 -0.1)">
       <defs>
        <path id="DejaVuSans-30" d="M 2034 4250 
Q 1547 4250 1301 3770 
Q 1056 3291 1056 2328 
Q 1056 1369 1301 889 
Q 1547 409 2034 409 
Q 2525 409 2770 889 
Q 3016 1369 3016 2328 
Q 3016 3291 2770 3770 
Q 2525 4250 2034 4250 
z
M 2034 4750 
Q 2819 4750 3233 4129 
Q 3647 3509 3647 2328 
Q 3647 1150 3233 529 
Q 2819 -91 2034 -91 
Q 1250 -91 836 529 
Q 422 1150 422 2328 
Q 422 3509 836 4129 
Q 1250 4750 2034 4750 
z
" transform="scale(0.015625)"/>
       </defs>
       <use xlink:href="#DejaVuSans-30"/>
      </g>
     </g>
    </g>
    <g id="xtick_2">
     <g id="line2d_2">
      <g>
       <use xlink:href="#mbdb50fc7b8" x="118.034091" y="362.522738" style="stroke: #000000; stroke-width: 0.8"/>
      </g>
     </g>
     <g id="text_2">
      <!-- 1 -->
      <g transform="translate(114.852841 377.121176)scale(0.1 -0.1)">
       <defs>
        <path id="DejaVuSans-31" d="M 794 531 
L 1825 531 
L 1825 4091 
L 703 3866 
L 703 4441 
L 1819 4666 
L 2450 4666 
L 2450 531 
L 3481 531 
L 3481 0 
L 794 0 
L 794 531 
z
" transform="scale(0.015625)"/>
       </defs>
       <use xlink:href="#DejaVuSans-31"/>
      </g>
     </g>
    </g>
    <g id="xtick_3">
     <g id="line2d_3">
      <g>
       <use xlink:href="#mbdb50fc7b8" x="153.760577" y="362.522738" style="stroke: #000000; stroke-width: 0.8"/>
      </g>
     </g>
     <g id="text_3">
      <!-- 2 -->
      <g transform="translate(150.579327 377.121176)scale(0.1 -0.1)">
       <defs>
        <path id="DejaVuSans-32" d="M 1228 531 
L 3431 531 
L 3431 0 
L 469 0 
L 469 531 
Q 828 903 1448 1529 
Q 2069 2156 2228 2338 
Q 2531 2678 2651 2914 
Q 2772 3150 2772 3378 
Q 2772 3750 2511 3984 
Q 2250 4219 1831 4219 
Q 1534 4219 1204 4116 
Q 875 4013 500 3803 
L 500 4441 
Q 881 4594 1212 4672 
Q 1544 4750 1819 4750 
Q 2544 4750 2975 4387 
Q 3406 4025 3406 3419 
Q 3406 3131 3298 2873 
Q 3191 2616 2906 2266 
Q 2828 2175 2409 1742 
Q 1991 1309 1228 531 
z
" transform="scale(0.015625)"/>
       </defs>
       <use xlink:href="#DejaVuSans-32"/>
      </g>
     </g>
    </g>
    <g id="xtick_4">
     <g id="line2d_4">
      <g>
       <use xlink:href="#mbdb50fc7b8" x="189.487063" y="362.522738" style="stroke: #000000; stroke-width: 0.8"/>
      </g>
     </g>
     <g id="text_4">
      <!-- 3 -->
      <g transform="translate(186.305813 377.121176)scale(0.1 -0.1)">
       <defs>
        <path id="DejaVuSans-33" d="M 2597 2516 
Q 3050 2419 3304 2112 
Q 3559 1806 3559 1356 
Q 3559 666 3084 287 
Q 2609 -91 1734 -91 
Q 1441 -91 1130 -33 
Q 819 25 488 141 
L 488 750 
Q 750 597 1062 519 
Q 1375 441 1716 441 
Q 2309 441 2620 675 
Q 2931 909 2931 1356 
Q 2931 1769 2642 2001 
Q 2353 2234 1838 2234 
L 1294 2234 
L 1294 2753 
L 1863 2753 
Q 2328 2753 2575 2939 
Q 2822 3125 2822 3475 
Q 2822 3834 2567 4026 
Q 2313 4219 1838 4219 
Q 1578 4219 1281 4162 
Q 984 4106 628 3988 
L 628 4550 
Q 988 4650 1302 4700 
Q 1616 4750 1894 4750 
Q 2613 4750 3031 4423 
Q 3450 4097 3450 3541 
Q 3450 3153 3228 2886 
Q 3006 2619 2597 2516 
z
" transform="scale(0.015625)"/>
       </defs>
       <use xlink:href="#DejaVuSans-33"/>
      </g>
     </g>
    </g>
    <g id="xtick_5">
     <g id="line2d_5">
      <g>
       <use xlink:href="#mbdb50fc7b8" x="225.213549" y="362.522738" style="stroke: #000000; stroke-width: 0.8"/>
      </g>
     </g>
     <g id="text_5">
      <!-- 4 -->
      <g transform="translate(222.032299 377.121176)scale(0.1 -0.1)">
       <defs>
        <path id="DejaVuSans-34" d="M 2419 4116 
L 825 1625 
L 2419 1625 
L 2419 4116 
z
M 2253 4666 
L 3047 4666 
L 3047 1625 
L 3713 1625 
L 3713 1100 
L 3047 1100 
L 3047 0 
L 2419 0 
L 2419 1100 
L 313 1100 
L 313 1709 
L 2253 4666 
z
" transform="scale(0.015625)"/>
       </defs>
       <use xlink:href="#DejaVuSans-34"/>
      </g>
     </g>
    </g>
    <g id="xtick_6">
     <g id="line2d_6">
      <g>
       <use xlink:href="#mbdb50fc7b8" x="260.940035" y="362.522738" style="stroke: #000000; stroke-width: 0.8"/>
      </g>
     </g>
     <g id="text_6">
      <!-- 5 -->
      <g transform="translate(257.758785 377.121176)scale(0.1 -0.1)">
       <defs>
        <path id="DejaVuSans-35" d="M 691 4666 
L 3169 4666 
L 3169 4134 
L 1269 4134 
L 1269 2991 
Q 1406 3038 1543 3061 
Q 1681 3084 1819 3084 
Q 2600 3084 3056 2656 
Q 3513 2228 3513 1497 
Q 3513 744 3044 326 
Q 2575 -91 1722 -91 
Q 1428 -91 1123 -41 
Q 819 9 494 109 
L 494 744 
Q 775 591 1075 516 
Q 1375 441 1709 441 
Q 2250 441 2565 725 
Q 2881 1009 2881 1497 
Q 2881 1984 2565 2268 
Q 2250 2553 1709 2553 
Q 1456 2553 1204 2497 
Q 953 2441 691 2322 
L 691 4666 
z
" transform="scale(0.015625)"/>
       </defs>
       <use xlink:href="#DejaVuSans-35"/>
      </g>
     </g>
    </g>
    <g id="xtick_7">
     <g id="line2d_7">
      <g>
       <use xlink:href="#mbdb50fc7b8" x="296.666521" y="362.522738" style="stroke: #000000; stroke-width: 0.8"/>
      </g>
     </g>
     <g id="text_7">
      <!-- 6 -->
      <g transform="translate(293.485271 377.121176)scale(0.1 -0.1)">
       <defs>
        <path id="DejaVuSans-36" d="M 2113 2584 
Q 1688 2584 1439 2293 
Q 1191 2003 1191 1497 
Q 1191 994 1439 701 
Q 1688 409 2113 409 
Q 2538 409 2786 701 
Q 3034 994 3034 1497 
Q 3034 2003 2786 2293 
Q 2538 2584 2113 2584 
z
M 3366 4563 
L 3366 3988 
Q 3128 4100 2886 4159 
Q 2644 4219 2406 4219 
Q 1781 4219 1451 3797 
Q 1122 3375 1075 2522 
Q 1259 2794 1537 2939 
Q 1816 3084 2150 3084 
Q 2853 3084 3261 2657 
Q 3669 2231 3669 1497 
Q 3669 778 3244 343 
Q 2819 -91 2113 -91 
Q 1303 -91 875 529 
Q 447 1150 447 2328 
Q 447 3434 972 4092 
Q 1497 4750 2381 4750 
Q 2619 4750 2861 4703 
Q 3103 4656 3366 4563 
z
" transform="scale(0.015625)"/>
       </defs>
       <use xlink:href="#DejaVuSans-36"/>
      </g>
     </g>
    </g>
    <g id="xtick_8">
     <g id="line2d_8">
      <g>
       <use xlink:href="#mbdb50fc7b8" x="332.393007" y="362.522738" style="stroke: #000000; stroke-width: 0.8"/>
      </g>
     </g>
     <g id="text_8">
      <!-- 7 -->
      <g transform="translate(329.211757 377.121176)scale(0.1 -0.1)">
       <defs>
        <path id="DejaVuSans-37" d="M 525 4666 
L 3525 4666 
L 3525 4397 
L 1831 0 
L 1172 0 
L 2766 4134 
L 525 4134 
L 525 4666 
z
" transform="scale(0.015625)"/>
       </defs>
       <use xlink:href="#DejaVuSans-37"/>
      </g>
     </g>
    </g>
    <g id="xtick_9">
     <g id="line2d_9">
      <g>
       <use xlink:href="#mbdb50fc7b8" x="368.119493" y="362.522738" style="stroke: #000000; stroke-width: 0.8"/>
      </g>
     </g>
     <g id="text_9">
      <!-- 8 -->
      <g transform="translate(364.938243 377.121176)scale(0.1 -0.1)">
       <defs>
        <path id="DejaVuSans-38" d="M 2034 2216 
Q 1584 2216 1326 1975 
Q 1069 1734 1069 1313 
Q 1069 891 1326 650 
Q 1584 409 2034 409 
Q 2484 409 2743 651 
Q 3003 894 3003 1313 
Q 3003 1734 2745 1975 
Q 2488 2216 2034 2216 
z
M 1403 2484 
Q 997 2584 770 2862 
Q 544 3141 544 3541 
Q 544 4100 942 4425 
Q 1341 4750 2034 4750 
Q 2731 4750 3128 4425 
Q 3525 4100 3525 3541 
Q 3525 3141 3298 2862 
Q 3072 2584 2669 2484 
Q 3125 2378 3379 2068 
Q 3634 1759 3634 1313 
Q 3634 634 3220 271 
Q 2806 -91 2034 -91 
Q 1263 -91 848 271 
Q 434 634 434 1313 
Q 434 1759 690 2068 
Q 947 2378 1403 2484 
z
M 1172 3481 
Q 1172 3119 1398 2916 
Q 1625 2713 2034 2713 
Q 2441 2713 2670 2916 
Q 2900 3119 2900 3481 
Q 2900 3844 2670 4047 
Q 2441 4250 2034 4250 
Q 1625 4250 1398 4047 
Q 1172 3844 1172 3481 
z
" transform="scale(0.015625)"/>
       </defs>
       <use xlink:href="#DejaVuSans-38"/>
      </g>
     </g>
    </g>
    <g id="xtick_10">
     <g id="line2d_10">
      <g>
       <use xlink:href="#mbdb50fc7b8" x="403.845979" y="362.522738" style="stroke: #000000; stroke-width: 0.8"/>
      </g>
     </g>
     <g id="text_10">
      <!-- 9 -->
      <g transform="translate(400.664729 377.121176)scale(0.1 -0.1)">
       <defs>
        <path id="DejaVuSans-39" d="M 703 97 
L 703 672 
Q 941 559 1184 500 
Q 1428 441 1663 441 
Q 2288 441 2617 861 
Q 2947 1281 2994 2138 
Q 2813 1869 2534 1725 
Q 2256 1581 1919 1581 
Q 1219 1581 811 2004 
Q 403 2428 403 3163 
Q 403 3881 828 4315 
Q 1253 4750 1959 4750 
Q 2769 4750 3195 4129 
Q 3622 3509 3622 2328 
Q 3622 1225 3098 567 
Q 2575 -91 1691 -91 
Q 1453 -91 1209 -44 
Q 966 3 703 97 
z
M 1959 2075 
Q 2384 2075 2632 2365 
Q 2881 2656 2881 3163 
Q 2881 3666 2632 3958 
Q 2384 4250 1959 4250 
Q 1534 4250 1286 3958 
Q 1038 3666 1038 3163 
Q 1038 2656 1286 2365 
Q 1534 2075 1959 2075 
z
" transform="scale(0.015625)"/>
       </defs>
       <use xlink:href="#DejaVuSans-39"/>
      </g>
     </g>
    </g>
    <g id="xtick_11">
     <g id="line2d_11">
      <g>
       <use xlink:href="#mbdb50fc7b8" x="439.572465" y="362.522738" style="stroke: #000000; stroke-width: 0.8"/>
      </g>
     </g>
     <g id="text_11">
      <!-- 10 -->
      <g transform="translate(433.209965 377.121176)scale(0.1 -0.1)">
       <use xlink:href="#DejaVuSans-31"/>
       <use xlink:href="#DejaVuSans-30" x="63.623047"/>
      </g>
     </g>
    </g>
    <g id="xtick_12">
     <g id="line2d_12">
      <g>
       <use xlink:href="#mbdb50fc7b8" x="475.298951" y="362.522738" style="stroke: #000000; stroke-width: 0.8"/>
      </g>
     </g>
     <g id="text_12">
      <!-- 11 -->
      <g transform="translate(468.936451 377.121176)scale(0.1 -0.1)">
       <use xlink:href="#DejaVuSans-31"/>
       <use xlink:href="#DejaVuSans-31" x="63.623047"/>
      </g>
     </g>
    </g>
    <g id="xtick_13">
     <g id="line2d_13">
      <g>
       <use xlink:href="#mbdb50fc7b8" x="511.025437" y="362.522738" style="stroke: #000000; stroke-width: 0.8"/>
      </g>
     </g>
     <g id="text_13">
      <!-- 12 -->
      <g transform="translate(504.662937 377.121176)scale(0.1 -0.1)">
       <use xlink:href="#DejaVuSans-31"/>
       <use xlink:href="#DejaVuSans-32" x="63.623047"/>
      </g>
     </g>
    </g>
    <g id="xtick_14">
     <g id="line2d_14">
      <g>
       <use xlink:href="#mbdb50fc7b8" x="546.751923" y="362.522738" style="stroke: #000000; stroke-width: 0.8"/>
      </g>
     </g>
     <g id="text_14">
      <!-- 13 -->
      <g transform="translate(540.389423 377.121176)scale(0.1 -0.1)">
       <use xlink:href="#DejaVuSans-31"/>
       <use xlink:href="#DejaVuSans-33" x="63.623047"/>
      </g>
     </g>
    </g>
    <g id="xtick_15">
     <g id="line2d_15">
      <g>
       <use xlink:href="#mbdb50fc7b8" x="582.478409" y="362.522738" style="stroke: #000000; stroke-width: 0.8"/>
      </g>
     </g>
     <g id="text_15">
      <!-- 14 -->
      <g transform="translate(576.115909 377.121176)scale(0.1 -0.1)">
       <use xlink:href="#DejaVuSans-31"/>
       <use xlink:href="#DejaVuSans-34" x="63.623047"/>
      </g>
     </g>
    </g>
    <g id="xtick_16">
     <g id="line2d_16">
      <g>
       <use xlink:href="#mbdb50fc7b8" x="618.204895" y="362.522738" style="stroke: #000000; stroke-width: 0.8"/>
      </g>
     </g>
     <g id="text_16">
      <!-- 15 -->
      <g transform="translate(611.842395 377.121176)scale(0.1 -0.1)">
       <use xlink:href="#DejaVuSans-31"/>
       <use xlink:href="#DejaVuSans-35" x="63.623047"/>
      </g>
     </g>
    </g>
    <g id="text_17">
     <!-- Roll Pass -->
     <g transform="translate(328.517188 390.799301)scale(0.1 -0.1)">
      <defs>
       <path id="DejaVuSans-52" d="M 2841 2188 
Q 3044 2119 3236 1894 
Q 3428 1669 3622 1275 
L 4263 0 
L 3584 0 
L 2988 1197 
Q 2756 1666 2539 1819 
Q 2322 1972 1947 1972 
L 1259 1972 
L 1259 0 
L 628 0 
L 628 4666 
L 2053 4666 
Q 2853 4666 3247 4331 
Q 3641 3997 3641 3322 
Q 3641 2881 3436 2590 
Q 3231 2300 2841 2188 
z
M 1259 4147 
L 1259 2491 
L 2053 2491 
Q 2509 2491 2742 2702 
Q 2975 2913 2975 3322 
Q 2975 3731 2742 3939 
Q 2509 4147 2053 4147 
L 1259 4147 
z
" transform="scale(0.015625)"/>
       <path id="DejaVuSans-6f" d="M 1959 3097 
Q 1497 3097 1228 2736 
Q 959 2375 959 1747 
Q 959 1119 1226 758 
Q 1494 397 1959 397 
Q 2419 397 2687 759 
Q 2956 1122 2956 1747 
Q 2956 2369 2687 2733 
Q 2419 3097 1959 3097 
z
M 1959 3584 
Q 2709 3584 3137 3096 
Q 3566 2609 3566 1747 
Q 3566 888 3137 398 
Q 2709 -91 1959 -91 
Q 1206 -91 779 398 
Q 353 888 353 1747 
Q 353 2609 779 3096 
Q 1206 3584 1959 3584 
z
" transform="scale(0.015625)"/>
       <path id="DejaVuSans-6c" d="M 603 4863 
L 1178 4863 
L 1178 0 
L 603 0 
L 603 4863 
z
" transform="scale(0.015625)"/>
       <path id="DejaVuSans-20" transform="scale(0.015625)"/>
       <path id="DejaVuSans-50" d="M 1259 4147 
L 1259 2394 
L 2053 2394 
Q 2494 2394 2734 2622 
Q 2975 2850 2975 3272 
Q 2975 3691 2734 3919 
Q 2494 4147 2053 4147 
L 1259 4147 
z
M 628 4666 
L 2053 4666 
Q 2838 4666 3239 4311 
Q 3641 3956 3641 3272 
Q 3641 2581 3239 2228 
Q 2838 1875 2053 1875 
L 1259 1875 
L 1259 0 
L 628 0 
L 628 4666 
z
" transform="scale(0.015625)"/>
       <path id="DejaVuSans-61" d="M 2194 1759 
Q 1497 1759 1228 1600 
Q 959 1441 959 1056 
Q 959 750 1161 570 
Q 1363 391 1709 391 
Q 2188 391 2477 730 
Q 2766 1069 2766 1631 
L 2766 1759 
L 2194 1759 
z
M 3341 1997 
L 3341 0 
L 2766 0 
L 2766 531 
Q 2569 213 2275 61 
Q 1981 -91 1556 -91 
Q 1019 -91 701 211 
Q 384 513 384 1019 
Q 384 1609 779 1909 
Q 1175 2209 1959 2209 
L 2766 2209 
L 2766 2266 
Q 2766 2663 2505 2880 
Q 2244 3097 1772 3097 
Q 1472 3097 1187 3025 
Q 903 2953 641 2809 
L 641 3341 
Q 956 3463 1253 3523 
Q 1550 3584 1831 3584 
Q 2591 3584 2966 3190 
Q 3341 2797 3341 1997 
z
" transform="scale(0.015625)"/>
       <path id="DejaVuSans-73" d="M 2834 3397 
L 2834 2853 
Q 2591 2978 2328 3040 
Q 2066 3103 1784 3103 
Q 1356 3103 1142 2972 
Q 928 2841 928 2578 
Q 928 2378 1081 2264 
Q 1234 2150 1697 2047 
L 1894 2003 
Q 2506 1872 2764 1633 
Q 3022 1394 3022 966 
Q 3022 478 2636 193 
Q 2250 -91 1575 -91 
Q 1294 -91 989 -36 
Q 684 19 347 128 
L 347 722 
Q 666 556 975 473 
Q 1284 391 1588 391 
Q 1994 391 2212 530 
Q 2431 669 2431 922 
Q 2431 1156 2273 1281 
Q 2116 1406 1581 1522 
L 1381 1569 
Q 847 1681 609 1914 
Q 372 2147 372 2553 
Q 372 3047 722 3315 
Q 1072 3584 1716 3584 
Q 2034 3584 2315 3537 
Q 2597 3491 2834 3397 
z
" transform="scale(0.015625)"/>
      </defs>
      <use xlink:href="#DejaVuSans-52"/>
      <use xlink:href="#DejaVuSans-6f" x="64.982422"/>
      <use xlink:href="#DejaVuSans-6c" x="126.164062"/>
      <use xlink:href="#DejaVuSans-6c" x="153.947266"/>
      <use xlink:href="#DejaVuSans-20" x="181.730469"/>
      <use xlink:href="#DejaVuSans-50" x="213.517578"/>
      <use xlink:href="#DejaVuSans-61" x="269.320312"/>
      <use xlink:href="#DejaVuSans-73" x="330.599609"/>
      <use xlink:href="#DejaVuSans-73" x="382.699219"/>
     </g>
    </g>
   </g>
   <g id="matplotlib.axis_2">
    <g id="ytick_1">
     <g id="line2d_17">
      <defs>
       <path id="mb25fe31a4a" d="M 0 0 
L -3.5 0 
" style="stroke: #000000; stroke-width: 0.8"/>
      </defs>
      <g>
       <use xlink:href="#mb25fe31a4a" x="55.51274" y="352.979536" style="stroke: #000000; stroke-width: 0.8"/>
      </g>
     </g>
     <g id="text_18">
      <!-- 0 -->
      <g transform="translate(42.15024 356.778755)scale(0.1 -0.1)">
       <use xlink:href="#DejaVuSans-30"/>
      </g>
     </g>
    </g>
    <g id="ytick_2">
     <g id="line2d_18">
      <g>
       <use xlink:href="#mb25fe31a4a" x="55.51274" y="277.668218" style="stroke: #000000; stroke-width: 0.8"/>
      </g>
     </g>
     <g id="text_19">
      <!-- 20000 -->
      <g transform="translate(16.70024 281.467437)scale(0.1 -0.1)">
       <use xlink:href="#DejaVuSans-32"/>
       <use xlink:href="#DejaVuSans-30" x="63.623047"/>
       <use xlink:href="#DejaVuSans-30" x="127.246094"/>
       <use xlink:href="#DejaVuSans-30" x="190.869141"/>
       <use xlink:href="#DejaVuSans-30" x="254.492188"/>
      </g>
     </g>
    </g>
    <g id="ytick_3">
     <g id="line2d_19">
      <g>
       <use xlink:href="#mb25fe31a4a" x="55.51274" y="202.3569" style="stroke: #000000; stroke-width: 0.8"/>
      </g>
     </g>
     <g id="text_20">
      <!-- 40000 -->
      <g transform="translate(16.70024 206.156119)scale(0.1 -0.1)">
       <use xlink:href="#DejaVuSans-34"/>
       <use xlink:href="#DejaVuSans-30" x="63.623047"/>
       <use xlink:href="#DejaVuSans-30" x="127.246094"/>
       <use xlink:href="#DejaVuSans-30" x="190.869141"/>
       <use xlink:href="#DejaVuSans-30" x="254.492188"/>
      </g>
     </g>
    </g>
    <g id="ytick_4">
     <g id="line2d_20">
      <g>
       <use xlink:href="#mb25fe31a4a" x="55.51274" y="127.045583" style="stroke: #000000; stroke-width: 0.8"/>
      </g>
     </g>
     <g id="text_21">
      <!-- 60000 -->
      <g transform="translate(16.70024 130.844801)scale(0.1 -0.1)">
       <use xlink:href="#DejaVuSans-36"/>
       <use xlink:href="#DejaVuSans-30" x="63.623047"/>
       <use xlink:href="#DejaVuSans-30" x="127.246094"/>
       <use xlink:href="#DejaVuSans-30" x="190.869141"/>
       <use xlink:href="#DejaVuSans-30" x="254.492188"/>
      </g>
     </g>
    </g>
    <g id="ytick_5">
     <g id="line2d_21">
      <g>
       <use xlink:href="#mb25fe31a4a" x="55.51274" y="51.734265" style="stroke: #000000; stroke-width: 0.8"/>
      </g>
     </g>
     <g id="text_22">
      <!-- 80000 -->
      <g transform="translate(16.70024 55.533484)scale(0.1 -0.1)">
       <use xlink:href="#DejaVuSans-38"/>
       <use xlink:href="#DejaVuSans-30" x="63.623047"/>
       <use xlink:href="#DejaVuSans-30" x="127.246094"/>
       <use xlink:href="#DejaVuSans-30" x="190.869141"/>
       <use xlink:href="#DejaVuSans-30" x="254.492188"/>
      </g>
     </g>
    </g>
    <g id="text_23">
     <!-- Roll Torque $M$ in $\mathrm{Nm}$ -->
     <g transform="translate(10.60024 233.511489)rotate(-90)scale(0.1 -0.1)">
      <defs>
       <path id="DejaVuSans-54" d="M -19 4666 
L 3928 4666 
L 3928 4134 
L 2272 4134 
L 2272 0 
L 1638 0 
L 1638 4134 
L -19 4134 
L -19 4666 
z
" transform="scale(0.015625)"/>
       <path id="DejaVuSans-72" d="M 2631 2963 
Q 2534 3019 2420 3045 
Q 2306 3072 2169 3072 
Q 1681 3072 1420 2755 
Q 1159 2438 1159 1844 
L 1159 0 
L 581 0 
L 581 3500 
L 1159 3500 
L 1159 2956 
Q 1341 3275 1631 3429 
Q 1922 3584 2338 3584 
Q 2397 3584 2469 3576 
Q 2541 3569 2628 3553 
L 2631 2963 
z
" transform="scale(0.015625)"/>
       <path id="DejaVuSans-71" d="M 947 1747 
Q 947 1113 1208 752 
Q 1469 391 1925 391 
Q 2381 391 2643 752 
Q 2906 1113 2906 1747 
Q 2906 2381 2643 2742 
Q 2381 3103 1925 3103 
Q 1469 3103 1208 2742 
Q 947 2381 947 1747 
z
M 2906 525 
Q 2725 213 2448 61 
Q 2172 -91 1784 -91 
Q 1150 -91 751 415 
Q 353 922 353 1747 
Q 353 2572 751 3078 
Q 1150 3584 1784 3584 
Q 2172 3584 2448 3432 
Q 2725 3281 2906 2969 
L 2906 3500 
L 3481 3500 
L 3481 -1331 
L 2906 -1331 
L 2906 525 
z
" transform="scale(0.015625)"/>
       <path id="DejaVuSans-75" d="M 544 1381 
L 544 3500 
L 1119 3500 
L 1119 1403 
Q 1119 906 1312 657 
Q 1506 409 1894 409 
Q 2359 409 2629 706 
Q 2900 1003 2900 1516 
L 2900 3500 
L 3475 3500 
L 3475 0 
L 2900 0 
L 2900 538 
Q 2691 219 2414 64 
Q 2138 -91 1772 -91 
Q 1169 -91 856 284 
Q 544 659 544 1381 
z
M 1991 3584 
L 1991 3584 
z
" transform="scale(0.015625)"/>
       <path id="DejaVuSans-65" d="M 3597 1894 
L 3597 1613 
L 953 1613 
Q 991 1019 1311 708 
Q 1631 397 2203 397 
Q 2534 397 2845 478 
Q 3156 559 3463 722 
L 3463 178 
Q 3153 47 2828 -22 
Q 2503 -91 2169 -91 
Q 1331 -91 842 396 
Q 353 884 353 1716 
Q 353 2575 817 3079 
Q 1281 3584 2069 3584 
Q 2775 3584 3186 3129 
Q 3597 2675 3597 1894 
z
M 3022 2063 
Q 3016 2534 2758 2815 
Q 2500 3097 2075 3097 
Q 1594 3097 1305 2825 
Q 1016 2553 972 2059 
L 3022 2063 
z
" transform="scale(0.015625)"/>
       <path id="DejaVuSans-Oblique-4d" d="M 1081 4666 
L 2028 4666 
L 2572 1522 
L 4378 4666 
L 5350 4666 
L 4441 0 
L 3828 0 
L 4622 4091 
L 2791 897 
L 2175 897 
L 1581 4103 
L 788 0 
L 172 0 
L 1081 4666 
z
" transform="scale(0.015625)"/>
       <path id="DejaVuSans-69" d="M 603 3500 
L 1178 3500 
L 1178 0 
L 603 0 
L 603 3500 
z
M 603 4863 
L 1178 4863 
L 1178 4134 
L 603 4134 
L 603 4863 
z
" transform="scale(0.015625)"/>
       <path id="DejaVuSans-6e" d="M 3513 2113 
L 3513 0 
L 2938 0 
L 2938 2094 
Q 2938 2591 2744 2837 
Q 2550 3084 2163 3084 
Q 1697 3084 1428 2787 
Q 1159 2491 1159 1978 
L 1159 0 
L 581 0 
L 581 3500 
L 1159 3500 
L 1159 2956 
Q 1366 3272 1645 3428 
Q 1925 3584 2291 3584 
Q 2894 3584 3203 3211 
Q 3513 2838 3513 2113 
z
" transform="scale(0.015625)"/>
       <path id="DejaVuSans-4e" d="M 628 4666 
L 1478 4666 
L 3547 763 
L 3547 4666 
L 4159 4666 
L 4159 0 
L 3309 0 
L 1241 3903 
L 1241 0 
L 628 0 
L 628 4666 
z
" transform="scale(0.015625)"/>
       <path id="DejaVuSans-6d" d="M 3328 2828 
Q 3544 3216 3844 3400 
Q 4144 3584 4550 3584 
Q 5097 3584 5394 3201 
Q 5691 2819 5691 2113 
L 5691 0 
L 5113 0 
L 5113 2094 
Q 5113 2597 4934 2840 
Q 4756 3084 4391 3084 
Q 3944 3084 3684 2787 
Q 3425 2491 3425 1978 
L 3425 0 
L 2847 0 
L 2847 2094 
Q 2847 2600 2669 2842 
Q 2491 3084 2119 3084 
Q 1678 3084 1418 2786 
Q 1159 2488 1159 1978 
L 1159 0 
L 581 0 
L 581 3500 
L 1159 3500 
L 1159 2956 
Q 1356 3278 1631 3431 
Q 1906 3584 2284 3584 
Q 2666 3584 2933 3390 
Q 3200 3197 3328 2828 
z
" transform="scale(0.015625)"/>
      </defs>
      <use xlink:href="#DejaVuSans-52" transform="translate(0 0.015625)"/>
      <use xlink:href="#DejaVuSans-6f" transform="translate(69.482422 0.015625)"/>
      <use xlink:href="#DejaVuSans-6c" transform="translate(130.664062 0.015625)"/>
      <use xlink:href="#DejaVuSans-6c" transform="translate(158.447266 0.015625)"/>
      <use xlink:href="#DejaVuSans-20" transform="translate(186.230469 0.015625)"/>
      <use xlink:href="#DejaVuSans-54" transform="translate(218.017578 0.015625)"/>
      <use xlink:href="#DejaVuSans-6f" transform="translate(279.101562 0.015625)"/>
      <use xlink:href="#DejaVuSans-72" transform="translate(340.283203 0.015625)"/>
      <use xlink:href="#DejaVuSans-71" transform="translate(381.396484 0.015625)"/>
      <use xlink:href="#DejaVuSans-75" transform="translate(444.873047 0.015625)"/>
      <use xlink:href="#DejaVuSans-65" transform="translate(508.251953 0.015625)"/>
      <use xlink:href="#DejaVuSans-20" transform="translate(569.775391 0.015625)"/>
      <use xlink:href="#DejaVuSans-Oblique-4d" transform="translate(601.5625 0.015625)"/>
      <use xlink:href="#DejaVuSans-20" transform="translate(687.841797 0.015625)"/>
      <use xlink:href="#DejaVuSans-69" transform="translate(719.628906 0.015625)"/>
      <use xlink:href="#DejaVuSans-6e" transform="translate(747.412109 0.015625)"/>
      <use xlink:href="#DejaVuSans-20" transform="translate(810.791016 0.015625)"/>
      <use xlink:href="#DejaVuSans-4e" transform="translate(842.578125 0.015625)"/>
      <use xlink:href="#DejaVuSans-6d" transform="translate(917.382812 0.015625)"/>
     </g>
    </g>
   </g>
   <g id="line2d_22">
    <path d="M 82.307605 71.697412 
L 118.034091 101.552702 
L 153.760577 105.169528 
L 189.487063 207.704004 
L 225.213549 178.03511 
L 260.940035 250.83103 
L 296.666521 258.945824 
L 332.393007 282.909886 
L 368.119493 267.254546 
L 403.845979 297.328238 
L 439.572465 300.707833 
L 475.298951 308.999609 
L 511.025437 331.412257 
L 546.751923 341.552926 
L 582.478409 338.657206 
L 618.204895 344.397811 
" clip-path="url(#p3f9dd464a4)" style="fill: none; stroke: #808080; stroke-width: 1.5; stroke-linecap: square"/>
   </g>
   <g id="line2d_23">
    <path d="M 82.307605 78.545094 
L 118.034091 101.353127 
L 153.760577 108.771291 
L 189.487063 209.686574 
L 225.213549 184.400799 
L 260.940035 252.116971 
L 296.666521 261.19575 
L 332.393007 282.65571 
L 368.119493 282.670772 
L 403.845979 300.585452 
L 439.572465 306.86265 
L 475.298951 312.567483 
L 511.025437 331.16373 
L 546.751923 341.21026 
L 582.478409 346.180807 
L 618.204895 337.260181 
" clip-path="url(#p3f9dd464a4)" style="fill: none; stroke-dasharray: 5.55,2.4; stroke-dashoffset: 0; stroke: #808080; stroke-width: 1.5"/>
   </g>
   <g id="line2d_24">
    <path d="M 82.307605 104.452187 
L 118.034091 136.459497 
L 153.760577 125.1628 
L 189.487063 192.566429 
L 225.213549 179.19867 
L 260.940035 249.614752 
L 296.666521 253.568596 
L 332.393007 279.551001 
L 368.119493 271.831591 
L 403.845979 301.579561 
L 439.572465 281.810341 
L 475.298951 303.462344 
L 511.025437 323.984678 
L 546.751923 333.398593 
L 582.478409 332.833758 
L 618.204895 339.404671 
" clip-path="url(#p3f9dd464a4)" style="fill: none; stroke: #000000; stroke-width: 1.5; stroke-linecap: square"/>
   </g>
   <g id="line2d_25">
    <path d="M 82.307605 99.854204 
L 118.034091 124.696274 
L 153.760577 119.62691 
L 189.487063 226.477932 
L 225.213549 209.979337 
L 260.940035 251.177168 
L 296.666521 282.917089 
L 332.393007 277.50589 
L 368.119493 294.724055 
L 403.845979 310.725099 
L 439.572465 310.508274 
L 475.298951 323.551066 
L 511.025437 338.441905 
L 546.751923 341.085705 
L 582.478409 342.767618 
L 618.204895 344.869996 
" clip-path="url(#p3f9dd464a4)" style="fill: none; stroke: #1f77b4; stroke-width: 1.5; stroke-linecap: square"/>
   </g>
   <g id="line2d_26">
    <path d="M 82.307605 99.992703 
L 118.034091 126.895448 
L 153.760577 129.370746 
L 189.487063 233.551765 
L 225.213549 213.569517 
L 260.940035 257.384401 
L 296.666521 288.862638 
L 332.393007 281.303017 
L 368.119493 299.582103 
L 403.845979 314.093093 
L 439.572465 313.525554 
L 475.298951 325.377846 
L 511.025437 339.555051 
L 546.751923 341.599239 
L 582.478409 343.2486 
L 618.204895 345.218108 
" clip-path="url(#p3f9dd464a4)" style="fill: none; stroke: #ff7f0e; stroke-width: 1.5; stroke-linecap: square"/>
   </g>
   <g id="line2d_27">
    <path d="M 82.307605 99.937081 
L 118.034091 127.115705 
L 153.760577 130.581749 
L 189.487063 222.081027 
L 225.213549 212.187398 
L 260.940035 242.49197 
L 296.666521 286.513836 
L 332.393007 273.237355 
L 368.119493 293.371905 
L 403.845979 304.357867 
L 439.572465 308.270874 
L 475.298951 317.030195 
L 511.025437 337.505255 
L 546.751923 338.953713 
L 582.478409 342.218436 
L 618.204895 343.169733 
" clip-path="url(#p3f9dd464a4)" style="fill: none; stroke: #2ca02c; stroke-width: 1.5; stroke-linecap: square"/>
   </g>
   <g id="line2d_28">
    <path d="M 82.307605 100.156499 
L 118.034091 129.750565 
L 153.760577 139.261 
L 189.487063 227.444947 
L 225.213549 213.625774 
L 260.940035 249.692346 
L 296.666521 290.978381 
L 332.393007 276.771404 
L 368.119493 297.768034 
L 403.845979 308.454577 
L 439.572465 311.350891 
L 475.298951 319.527893 
L 511.025437 338.619437 
L 546.751923 339.603192 
L 582.478409 342.657484 
L 618.204895 343.60642 
" clip-path="url(#p3f9dd464a4)" style="fill: none; stroke: #d62728; stroke-width: 1.5; stroke-linecap: square"/>
   </g>
   <g id="line2d_29">
    <path d="M 82.307605 100.458481 
L 118.034091 130.537497 
L 153.760577 117.454328 
L 189.487063 211.746307 
L 225.213549 196.602031 
L 260.940035 232.528655 
L 296.666521 265.510131 
L 332.393007 257.630723 
L 368.119493 273.286075 
L 403.845979 288.862017 
L 439.572465 287.186664 
L 475.298951 298.338531 
L 511.025437 320.759142 
L 546.751923 328.13995 
L 582.478409 332.002171 
L 618.204895 335.61149 
" clip-path="url(#p3f9dd464a4)" style="fill: none; stroke: #9467bd; stroke-width: 1.5; stroke-linecap: square"/>
   </g>
   <g id="line2d_30">
    <path d="M 82.307605 100.656463 
L 118.034091 133.206298 
L 153.760577 130.446956 
L 189.487063 223.485953 
L 225.213549 205.386989 
L 260.940035 248.033377 
L 296.666521 280.695664 
L 332.393007 272.042792 
L 368.119493 290.453525 
L 403.845979 304.647421 
L 439.572465 304.116368 
L 475.298951 313.672277 
L 511.025437 332.225447 
L 546.751923 336.678481 
L 582.478409 339.413396 
L 618.204895 341.543892 
" clip-path="url(#p3f9dd464a4)" style="fill: none; stroke: #8c564b; stroke-width: 1.5; stroke-linecap: square"/>
   </g>
   <g id="line2d_31">
    <path d="M 82.307605 19.342172 
L 118.034091 55.652999 
L 153.760577 63.83476 
L 189.487063 190.921766 
L 225.213549 177.408833 
L 260.940035 227.803296 
L 296.666521 266.995466 
L 332.393007 261.511629 
L 368.119493 282.420526 
L 403.845979 301.922234 
L 439.572465 300.488148 
L 475.298951 317.005344 
L 511.025437 335.518884 
L 546.751923 338.689092 
L 582.478409 340.574133 
L 618.204895 343.135093 
" clip-path="url(#p3f9dd464a4)" style="fill: none; stroke: #e377c2; stroke-width: 1.5; stroke-linecap: square"/>
   </g>
   <g id="line2d_32">
    <path d="M 82.307605 19.504936 
L 118.034091 58.100843 
L 153.760577 75.340894 
L 189.487063 199.135819 
L 225.213549 181.6289 
L 260.940035 235.061529 
L 296.666521 273.914789 
L 332.393007 266.163651 
L 368.119493 288.427894 
L 403.845979 306.069035 
L 439.572465 304.51455 
L 475.298951 319.382861 
L 511.025437 336.890765 
L 546.751923 339.33055 
L 582.478409 341.198941 
L 618.204895 343.588283 
" clip-path="url(#p3f9dd464a4)" style="fill: none; stroke: #7f7f7f; stroke-width: 1.5; stroke-linecap: square"/>
   </g>
   <g id="line2d_33">
    <path d="M 82.307605 19.433429 
L 118.034091 58.307043 
L 153.760577 76.697718 
L 189.487063 185.781828 
L 225.213549 180.096884 
L 260.940035 217.601827 
L 296.666521 271.206825 
L 332.393007 256.262582 
L 368.119493 280.678682 
L 403.845979 293.991273 
L 439.572465 297.370468 
L 475.298951 308.380229 
L 511.025437 334.34306 
L 546.751923 336.003007 
L 582.478409 339.839722 
L 618.204895 340.894739 
" clip-path="url(#p3f9dd464a4)" style="fill: none; stroke: #bcbd22; stroke-width: 1.5; stroke-linecap: square"/>
   </g>
   <g id="line2d_34">
    <path d="M 82.307605 19.69564 
L 118.034091 61.302777 
L 153.760577 86.918066 
L 189.487063 192.043808 
L 225.213549 181.753848 
L 260.940035 226.073477 
L 296.666521 276.393095 
L 332.393007 260.634957 
L 368.119493 286.167786 
L 403.845979 299.133277 
L 439.572465 301.551858 
L 475.298951 311.73266 
L 511.025437 335.73343 
L 546.751923 336.832541 
L 582.478409 340.419075 
L 618.204895 341.481134 
" clip-path="url(#p3f9dd464a4)" style="fill: none; stroke: #17becf; stroke-width: 1.5; stroke-linecap: square"/>
   </g>
   <g id="line2d_35">
    <path d="M 82.307605 20.042253 
L 118.034091 62.402652 
L 153.760577 61.146791 
L 189.487063 173.863862 
L 225.213549 161.520625 
L 260.940035 205.765685 
L 296.666521 246.442244 
L 332.393007 236.198427 
L 368.119493 254.278025 
L 403.845979 273.50089 
L 439.572465 266.340994 
L 475.298951 280.813404 
L 511.025437 311.064128 
L 546.751923 321.047512 
L 582.478409 324.841065 
L 618.204895 329.766469 
" clip-path="url(#p3f9dd464a4)" style="fill: none; stroke: #1f77b4; stroke-width: 1.5; stroke-linecap: square"/>
   </g>
   <g id="line2d_36">
    <path d="M 82.307605 20.286827 
L 118.034091 65.386093 
L 153.760577 76.498648 
L 189.487063 187.477914 
L 225.213549 171.946271 
L 260.940035 224.092853 
L 296.666521 264.405019 
L 332.393007 254.744174 
L 368.119493 277.010813 
L 403.845979 294.308792 
L 439.572465 291.624396 
L 475.298951 303.663002 
L 511.025437 327.519561 
L 546.751923 333.029742 
L 582.478409 336.031783 
L 618.204895 338.648232 
" clip-path="url(#p3f9dd464a4)" style="fill: none; stroke: #ff7f0e; stroke-width: 1.5; stroke-linecap: square"/>
   </g>
   <g id="line2d_37">
    <path d="M 82.307605 27.023064 
L 118.034091 61.695972 
L 153.760577 68.978647 
L 189.487063 182.571501 
L 225.213549 163.632013 
L 260.940035 235.509582 
L 296.666521 244.083841 
L 332.393007 264.889905 
L 368.119493 270.555695 
L 403.845979 304.649575 
L 439.572465 286.789364 
L 475.298951 314.233692 
L 511.025437 328.19062 
L 546.751923 337.089772 
L 582.478409 334.224115 
L 618.204895 341.687553 
" clip-path="url(#p3f9dd464a4)" style="fill: none; stroke: #2ca02c; stroke-width: 1.5; stroke-linecap: square"/>
   </g>
   <g id="line2d_38">
    <path d="M 82.307605 29.80693 
L 118.034091 78.131077 
L 153.760577 75.982601 
L 189.487063 166.235275 
L 225.213549 165.334397 
L 260.940035 235.135618 
L 296.666521 242.372058 
L 332.393007 266.206093 
L 368.119493 271.517615 
L 403.845979 304.850966 
L 439.572465 286.870965 
L 475.298951 313.51127 
L 511.025437 327.094007 
L 546.751923 336.096979 
L 582.478409 333.200856 
L 618.204895 340.963428 
" clip-path="url(#p3f9dd464a4)" style="fill: none; stroke: #d62728; stroke-width: 1.5; stroke-linecap: square"/>
   </g>
   <g id="line2d_39">
    <path d="M 82.307605 27.329442 
L 118.034091 67.386147 
L 153.760577 74.240581 
L 189.487063 181.329498 
L 225.213549 162.529633 
L 260.940035 231.694576 
L 296.666521 246.124545 
L 332.393007 262.519403 
L 368.119493 267.685839 
L 403.845979 300.057268 
L 439.572465 283.223141 
L 475.298951 308.501949 
L 511.025437 326.721488 
L 546.751923 335.105343 
L 582.478409 333.164223 
L 618.204895 340.01108 
" clip-path="url(#p3f9dd464a4)" style="fill: none; stroke: #9467bd; stroke-width: 1.5; stroke-linecap: square"/>
   </g>
   <g id="line2d_40">
    <path d="M 82.307605 30.112717 
L 118.034091 81.376803 
L 153.760577 78.261853 
L 189.487063 162.789559 
L 225.213549 163.925061 
L 260.940035 232.610468 
L 296.666521 243.572112 
L 332.393007 264.300452 
L 368.119493 269.426356 
L 403.845979 301.309344 
L 439.572465 284.028744 
L 475.298951 308.620072 
L 511.025437 326.030088 
L 546.751923 334.420666 
L 582.478409 332.450741 
L 618.204895 339.572442 
" clip-path="url(#p3f9dd464a4)" style="fill: none; stroke: #8c564b; stroke-width: 1.5; stroke-linecap: square"/>
   </g>
   <g id="line2d_41">
    <path d="M 82.307605 29.133675 
L 118.034091 66.362765 
L 153.760577 63.073681 
L 189.487063 167.984998 
L 225.213549 148.19205 
L 260.940035 220.207146 
L 296.666521 223.460461 
L 332.393007 245.809782 
L 368.119493 251.8718 
L 403.845979 284.86631 
L 439.572465 265.102831 
L 475.298951 289.576851 
L 511.025437 312.247617 
L 546.751923 324.353855 
L 582.478409 323.005797 
L 618.204895 332.186184 
" clip-path="url(#p3f9dd464a4)" style="fill: none; stroke: #e377c2; stroke-width: 1.5; stroke-linecap: square"/>
   </g>
   <g id="line2d_42">
    <path d="M 82.307605 31.052365 
L 118.034091 82.375964 
L 153.760577 74.414036 
L 189.487063 158.914139 
L 225.213549 159.422911 
L 260.940035 230.25388 
L 296.666521 235.322247 
L 332.393007 260.968308 
L 368.119493 265.823338 
L 403.845979 298.220037 
L 439.572465 278.869069 
L 475.298951 302.550619 
L 511.025437 321.353828 
L 546.751923 331.826371 
L 582.478409 329.836424 
L 618.204895 337.737084 
" clip-path="url(#p3f9dd464a4)" style="fill: none; stroke: #7f7f7f; stroke-width: 1.5; stroke-linecap: square"/>
   </g>
   <g id="patch_3">
    <path d="M 55.51274 362.522738 
L 55.51274 3.00024 
" style="fill: none; stroke: #000000; stroke-width: 0.8; stroke-linejoin: miter; stroke-linecap: square"/>
   </g>
   <g id="patch_4">
    <path d="M 644.99976 362.522738 
L 644.99976 3.00024 
" style="fill: none; stroke: #000000; stroke-width: 0.8; stroke-linejoin: miter; stroke-linecap: square"/>
   </g>
   <g id="patch_5">
    <path d="M 55.51274 362.522738 
L 644.99976 362.522738 
" style="fill: none; stroke: #000000; stroke-width: 0.8; stroke-linejoin: miter; stroke-linecap: square"/>
   </g>
   <g id="patch_6">
    <path d="M 55.51274 3.00024 
L 644.99976 3.00024 
" style="fill: none; stroke: #000000; stroke-width: 0.8; stroke-linejoin: miter; stroke-linecap: square"/>
   </g>
  </g>
  <g id="legend_1">
   <g id="patch_7">
    <path d="M 43.055469 570.424 
L 604.944531 570.424 
Q 606.944531 570.424 606.944531 568.424 
L 606.944531 466.677125 
Q 606.944531 464.677125 604.944531 464.677125 
L 43.055469 464.677125 
Q 41.055469 464.677125 41.055469 466.677125 
L 41.055469 568.424 
Q 41.055469 570.424 43.055469 570.424 
z
" style="fill: #ffffff; opacity: 0.8; stroke: #cccccc; stroke-linejoin: miter"/>
   </g>
   <g id="line2d_43">
    <path d="M 45.055469 472.775562 
L 55.055469 472.775562 
L 65.055469 472.775562 
" style="fill: none; stroke: #808080; stroke-width: 1.5; stroke-linecap: square"/>
   </g>
   <g id="text_24">
    <!-- Exp. Set 1 -->
    <g transform="translate(73.055469 476.275562)scale(0.1 -0.1)">
     <defs>
      <path id="DejaVuSans-45" d="M 628 4666 
L 3578 4666 
L 3578 4134 
L 1259 4134 
L 1259 2753 
L 3481 2753 
L 3481 2222 
L 1259 2222 
L 1259 531 
L 3634 531 
L 3634 0 
L 628 0 
L 628 4666 
z
" transform="scale(0.015625)"/>
      <path id="DejaVuSans-78" d="M 3513 3500 
L 2247 1797 
L 3578 0 
L 2900 0 
L 1881 1375 
L 863 0 
L 184 0 
L 1544 1831 
L 300 3500 
L 978 3500 
L 1906 2253 
L 2834 3500 
L 3513 3500 
z
" transform="scale(0.015625)"/>
      <path id="DejaVuSans-70" d="M 1159 525 
L 1159 -1331 
L 581 -1331 
L 581 3500 
L 1159 3500 
L 1159 2969 
Q 1341 3281 1617 3432 
Q 1894 3584 2278 3584 
Q 2916 3584 3314 3078 
Q 3713 2572 3713 1747 
Q 3713 922 3314 415 
Q 2916 -91 2278 -91 
Q 1894 -91 1617 61 
Q 1341 213 1159 525 
z
M 3116 1747 
Q 3116 2381 2855 2742 
Q 2594 3103 2138 3103 
Q 1681 3103 1420 2742 
Q 1159 2381 1159 1747 
Q 1159 1113 1420 752 
Q 1681 391 2138 391 
Q 2594 391 2855 752 
Q 3116 1113 3116 1747 
z
" transform="scale(0.015625)"/>
      <path id="DejaVuSans-2e" d="M 684 794 
L 1344 794 
L 1344 0 
L 684 0 
L 684 794 
z
" transform="scale(0.015625)"/>
      <path id="DejaVuSans-53" d="M 3425 4513 
L 3425 3897 
Q 3066 4069 2747 4153 
Q 2428 4238 2131 4238 
Q 1616 4238 1336 4038 
Q 1056 3838 1056 3469 
Q 1056 3159 1242 3001 
Q 1428 2844 1947 2747 
L 2328 2669 
Q 3034 2534 3370 2195 
Q 3706 1856 3706 1288 
Q 3706 609 3251 259 
Q 2797 -91 1919 -91 
Q 1588 -91 1214 -16 
Q 841 59 441 206 
L 441 856 
Q 825 641 1194 531 
Q 1563 422 1919 422 
Q 2459 422 2753 634 
Q 3047 847 3047 1241 
Q 3047 1584 2836 1778 
Q 2625 1972 2144 2069 
L 1759 2144 
Q 1053 2284 737 2584 
Q 422 2884 422 3419 
Q 422 4038 858 4394 
Q 1294 4750 2059 4750 
Q 2388 4750 2728 4690 
Q 3069 4631 3425 4513 
z
" transform="scale(0.015625)"/>
      <path id="DejaVuSans-74" d="M 1172 4494 
L 1172 3500 
L 2356 3500 
L 2356 3053 
L 1172 3053 
L 1172 1153 
Q 1172 725 1289 603 
Q 1406 481 1766 481 
L 2356 481 
L 2356 0 
L 1766 0 
Q 1100 0 847 248 
Q 594 497 594 1153 
L 594 3053 
L 172 3053 
L 172 3500 
L 594 3500 
L 594 4494 
L 1172 4494 
z
" transform="scale(0.015625)"/>
     </defs>
     <use xlink:href="#DejaVuSans-45"/>
     <use xlink:href="#DejaVuSans-78" x="63.183594"/>
     <use xlink:href="#DejaVuSans-70" x="122.363281"/>
     <use xlink:href="#DejaVuSans-2e" x="185.839844"/>
     <use xlink:href="#DejaVuSans-20" x="217.626953"/>
     <use xlink:href="#DejaVuSans-53" x="249.414062"/>
     <use xlink:href="#DejaVuSans-65" x="312.890625"/>
     <use xlink:href="#DejaVuSans-74" x="374.414062"/>
     <use xlink:href="#DejaVuSans-20" x="413.623047"/>
     <use xlink:href="#DejaVuSans-31" x="445.410156"/>
    </g>
   </g>
   <g id="line2d_44">
    <path d="M 45.055469 487.453688 
L 55.055469 487.453688 
L 65.055469 487.453688 
" style="fill: none; stroke-dasharray: 5.55,2.4; stroke-dashoffset: 0; stroke: #808080; stroke-width: 1.5"/>
   </g>
   <g id="text_25">
    <!-- Exp. Set 2 -->
    <g transform="translate(73.055469 490.953688)scale(0.1 -0.1)">
     <use xlink:href="#DejaVuSans-45"/>
     <use xlink:href="#DejaVuSans-78" x="63.183594"/>
     <use xlink:href="#DejaVuSans-70" x="122.363281"/>
     <use xlink:href="#DejaVuSans-2e" x="185.839844"/>
     <use xlink:href="#DejaVuSans-20" x="217.626953"/>
     <use xlink:href="#DejaVuSans-53" x="249.414062"/>
     <use xlink:href="#DejaVuSans-65" x="312.890625"/>
     <use xlink:href="#DejaVuSans-74" x="374.414062"/>
     <use xlink:href="#DejaVuSans-20" x="413.623047"/>
     <use xlink:href="#DejaVuSans-32" x="445.410156"/>
    </g>
   </g>
   <g id="line2d_45">
    <path d="M 45.055469 502.131813 
L 55.055469 502.131813 
L 65.055469 502.131813 
" style="fill: none; stroke: #000000; stroke-width: 1.5; stroke-linecap: square"/>
   </g>
   <g id="text_26">
    <!-- WICON -->
    <g transform="translate(73.055469 505.631813)scale(0.1 -0.1)">
     <defs>
      <path id="DejaVuSans-57" d="M 213 4666 
L 850 4666 
L 1831 722 
L 2809 4666 
L 3519 4666 
L 4500 722 
L 5478 4666 
L 6119 4666 
L 4947 0 
L 4153 0 
L 3169 4050 
L 2175 0 
L 1381 0 
L 213 4666 
z
" transform="scale(0.015625)"/>
      <path id="DejaVuSans-49" d="M 628 4666 
L 1259 4666 
L 1259 0 
L 628 0 
L 628 4666 
z
" transform="scale(0.015625)"/>
      <path id="DejaVuSans-43" d="M 4122 4306 
L 4122 3641 
Q 3803 3938 3442 4084 
Q 3081 4231 2675 4231 
Q 1875 4231 1450 3742 
Q 1025 3253 1025 2328 
Q 1025 1406 1450 917 
Q 1875 428 2675 428 
Q 3081 428 3442 575 
Q 3803 722 4122 1019 
L 4122 359 
Q 3791 134 3420 21 
Q 3050 -91 2638 -91 
Q 1578 -91 968 557 
Q 359 1206 359 2328 
Q 359 3453 968 4101 
Q 1578 4750 2638 4750 
Q 3056 4750 3426 4639 
Q 3797 4528 4122 4306 
z
" transform="scale(0.015625)"/>
      <path id="DejaVuSans-4f" d="M 2522 4238 
Q 1834 4238 1429 3725 
Q 1025 3213 1025 2328 
Q 1025 1447 1429 934 
Q 1834 422 2522 422 
Q 3209 422 3611 934 
Q 4013 1447 4013 2328 
Q 4013 3213 3611 3725 
Q 3209 4238 2522 4238 
z
M 2522 4750 
Q 3503 4750 4090 4092 
Q 4678 3434 4678 2328 
Q 4678 1225 4090 567 
Q 3503 -91 2522 -91 
Q 1538 -91 948 565 
Q 359 1222 359 2328 
Q 359 3434 948 4092 
Q 1538 4750 2522 4750 
z
" transform="scale(0.015625)"/>
     </defs>
     <use xlink:href="#DejaVuSans-57"/>
     <use xlink:href="#DejaVuSans-49" x="98.876953"/>
     <use xlink:href="#DejaVuSans-43" x="128.369141"/>
     <use xlink:href="#DejaVuSans-4f" x="198.193359"/>
     <use xlink:href="#DejaVuSans-4e" x="276.904297"/>
    </g>
   </g>
   <g id="line2d_46">
    <path d="M 45.055469 516.809938 
L 55.055469 516.809938 
L 65.055469 516.809938 
" style="fill: none; stroke: #1f77b4; stroke-width: 1.5; stroke-linecap: square"/>
   </g>
   <g id="text_27">
    <!-- PyRoll Base/Base/Base -->
    <g transform="translate(73.055469 520.309938)scale(0.1 -0.1)">
     <defs>
      <path id="DejaVuSans-79" d="M 2059 -325 
Q 1816 -950 1584 -1140 
Q 1353 -1331 966 -1331 
L 506 -1331 
L 506 -850 
L 844 -850 
Q 1081 -850 1212 -737 
Q 1344 -625 1503 -206 
L 1606 56 
L 191 3500 
L 800 3500 
L 1894 763 
L 2988 3500 
L 3597 3500 
L 2059 -325 
z
" transform="scale(0.015625)"/>
      <path id="DejaVuSans-42" d="M 1259 2228 
L 1259 519 
L 2272 519 
Q 2781 519 3026 730 
Q 3272 941 3272 1375 
Q 3272 1813 3026 2020 
Q 2781 2228 2272 2228 
L 1259 2228 
z
M 1259 4147 
L 1259 2741 
L 2194 2741 
Q 2656 2741 2882 2914 
Q 3109 3088 3109 3444 
Q 3109 3797 2882 3972 
Q 2656 4147 2194 4147 
L 1259 4147 
z
M 628 4666 
L 2241 4666 
Q 2963 4666 3353 4366 
Q 3744 4066 3744 3513 
Q 3744 3084 3544 2831 
Q 3344 2578 2956 2516 
Q 3422 2416 3680 2098 
Q 3938 1781 3938 1306 
Q 3938 681 3513 340 
Q 3088 0 2303 0 
L 628 0 
L 628 4666 
z
" transform="scale(0.015625)"/>
      <path id="DejaVuSans-2f" d="M 1625 4666 
L 2156 4666 
L 531 -594 
L 0 -594 
L 1625 4666 
z
" transform="scale(0.015625)"/>
     </defs>
     <use xlink:href="#DejaVuSans-50"/>
     <use xlink:href="#DejaVuSans-79" x="60.302734"/>
     <use xlink:href="#DejaVuSans-52" x="119.482422"/>
     <use xlink:href="#DejaVuSans-6f" x="184.464844"/>
     <use xlink:href="#DejaVuSans-6c" x="245.646484"/>
     <use xlink:href="#DejaVuSans-6c" x="273.429688"/>
     <use xlink:href="#DejaVuSans-20" x="301.212891"/>
     <use xlink:href="#DejaVuSans-42" x="333"/>
     <use xlink:href="#DejaVuSans-61" x="401.603516"/>
     <use xlink:href="#DejaVuSans-73" x="462.882812"/>
     <use xlink:href="#DejaVuSans-65" x="514.982422"/>
     <use xlink:href="#DejaVuSans-2f" x="576.505859"/>
     <use xlink:href="#DejaVuSans-42" x="610.197266"/>
     <use xlink:href="#DejaVuSans-61" x="678.800781"/>
     <use xlink:href="#DejaVuSans-73" x="740.080078"/>
     <use xlink:href="#DejaVuSans-65" x="792.179688"/>
     <use xlink:href="#DejaVuSans-2f" x="853.703125"/>
     <use xlink:href="#DejaVuSans-42" x="887.394531"/>
     <use xlink:href="#DejaVuSans-61" x="955.998047"/>
     <use xlink:href="#DejaVuSans-73" x="1017.277344"/>
     <use xlink:href="#DejaVuSans-65" x="1069.376953"/>
    </g>
   </g>
   <g id="line2d_47">
    <path d="M 45.055469 531.488063 
L 55.055469 531.488063 
L 65.055469 531.488063 
" style="fill: none; stroke: #ff7f0e; stroke-width: 1.5; stroke-linecap: square"/>
   </g>
   <g id="text_28">
    <!-- PyRoll Base/Base/Lendl -->
    <g transform="translate(73.055469 534.988063)scale(0.1 -0.1)">
     <defs>
      <path id="DejaVuSans-4c" d="M 628 4666 
L 1259 4666 
L 1259 531 
L 3531 531 
L 3531 0 
L 628 0 
L 628 4666 
z
" transform="scale(0.015625)"/>
      <path id="DejaVuSans-64" d="M 2906 2969 
L 2906 4863 
L 3481 4863 
L 3481 0 
L 2906 0 
L 2906 525 
Q 2725 213 2448 61 
Q 2172 -91 1784 -91 
Q 1150 -91 751 415 
Q 353 922 353 1747 
Q 353 2572 751 3078 
Q 1150 3584 1784 3584 
Q 2172 3584 2448 3432 
Q 2725 3281 2906 2969 
z
M 947 1747 
Q 947 1113 1208 752 
Q 1469 391 1925 391 
Q 2381 391 2643 752 
Q 2906 1113 2906 1747 
Q 2906 2381 2643 2742 
Q 2381 3103 1925 3103 
Q 1469 3103 1208 2742 
Q 947 2381 947 1747 
z
" transform="scale(0.015625)"/>
     </defs>
     <use xlink:href="#DejaVuSans-50"/>
     <use xlink:href="#DejaVuSans-79" x="60.302734"/>
     <use xlink:href="#DejaVuSans-52" x="119.482422"/>
     <use xlink:href="#DejaVuSans-6f" x="184.464844"/>
     <use xlink:href="#DejaVuSans-6c" x="245.646484"/>
     <use xlink:href="#DejaVuSans-6c" x="273.429688"/>
     <use xlink:href="#DejaVuSans-20" x="301.212891"/>
     <use xlink:href="#DejaVuSans-42" x="333"/>
     <use xlink:href="#DejaVuSans-61" x="401.603516"/>
     <use xlink:href="#DejaVuSans-73" x="462.882812"/>
     <use xlink:href="#DejaVuSans-65" x="514.982422"/>
     <use xlink:href="#DejaVuSans-2f" x="576.505859"/>
     <use xlink:href="#DejaVuSans-42" x="610.197266"/>
     <use xlink:href="#DejaVuSans-61" x="678.800781"/>
     <use xlink:href="#DejaVuSans-73" x="740.080078"/>
     <use xlink:href="#DejaVuSans-65" x="792.179688"/>
     <use xlink:href="#DejaVuSans-2f" x="853.703125"/>
     <use xlink:href="#DejaVuSans-4c" x="887.394531"/>
     <use xlink:href="#DejaVuSans-65" x="941.357422"/>
     <use xlink:href="#DejaVuSans-6e" x="1002.880859"/>
     <use xlink:href="#DejaVuSans-64" x="1066.259766"/>
     <use xlink:href="#DejaVuSans-6c" x="1129.736328"/>
    </g>
   </g>
   <g id="line2d_48">
    <path d="M 45.055469 546.166187 
L 55.055469 546.166187 
L 65.055469 546.166187 
" style="fill: none; stroke: #2ca02c; stroke-width: 1.5; stroke-linecap: square"/>
   </g>
   <g id="text_29">
    <!-- PyRoll Base/Hill/Base -->
    <g transform="translate(73.055469 549.666187)scale(0.1 -0.1)">
     <defs>
      <path id="DejaVuSans-48" d="M 628 4666 
L 1259 4666 
L 1259 2753 
L 3553 2753 
L 3553 4666 
L 4184 4666 
L 4184 0 
L 3553 0 
L 3553 2222 
L 1259 2222 
L 1259 0 
L 628 0 
L 628 4666 
z
" transform="scale(0.015625)"/>
     </defs>
     <use xlink:href="#DejaVuSans-50"/>
     <use xlink:href="#DejaVuSans-79" x="60.302734"/>
     <use xlink:href="#DejaVuSans-52" x="119.482422"/>
     <use xlink:href="#DejaVuSans-6f" x="184.464844"/>
     <use xlink:href="#DejaVuSans-6c" x="245.646484"/>
     <use xlink:href="#DejaVuSans-6c" x="273.429688"/>
     <use xlink:href="#DejaVuSans-20" x="301.212891"/>
     <use xlink:href="#DejaVuSans-42" x="333"/>
     <use xlink:href="#DejaVuSans-61" x="401.603516"/>
     <use xlink:href="#DejaVuSans-73" x="462.882812"/>
     <use xlink:href="#DejaVuSans-65" x="514.982422"/>
     <use xlink:href="#DejaVuSans-2f" x="576.505859"/>
     <use xlink:href="#DejaVuSans-48" x="610.197266"/>
     <use xlink:href="#DejaVuSans-69" x="685.392578"/>
     <use xlink:href="#DejaVuSans-6c" x="713.175781"/>
     <use xlink:href="#DejaVuSans-6c" x="740.958984"/>
     <use xlink:href="#DejaVuSans-2f" x="768.742188"/>
     <use xlink:href="#DejaVuSans-42" x="802.433594"/>
     <use xlink:href="#DejaVuSans-61" x="871.037109"/>
     <use xlink:href="#DejaVuSans-73" x="932.316406"/>
     <use xlink:href="#DejaVuSans-65" x="984.416016"/>
    </g>
   </g>
   <g id="line2d_49">
    <path d="M 45.055469 560.844313 
L 55.055469 560.844313 
L 65.055469 560.844313 
" style="fill: none; stroke: #d62728; stroke-width: 1.5; stroke-linecap: square"/>
   </g>
   <g id="text_30">
    <!-- PyRoll Base/Hill/Lendl -->
    <g transform="translate(73.055469 564.344313)scale(0.1 -0.1)">
     <use xlink:href="#DejaVuSans-50"/>
     <use xlink:href="#DejaVuSans-79" x="60.302734"/>
     <use xlink:href="#DejaVuSans-52" x="119.482422"/>
     <use xlink:href="#DejaVuSans-6f" x="184.464844"/>
     <use xlink:href="#DejaVuSans-6c" x="245.646484"/>
     <use xlink:href="#DejaVuSans-6c" x="273.429688"/>
     <use xlink:href="#DejaVuSans-20" x="301.212891"/>
     <use xlink:href="#DejaVuSans-42" x="333"/>
     <use xlink:href="#DejaVuSans-61" x="401.603516"/>
     <use xlink:href="#DejaVuSans-73" x="462.882812"/>
     <use xlink:href="#DejaVuSans-65" x="514.982422"/>
     <use xlink:href="#DejaVuSans-2f" x="576.505859"/>
     <use xlink:href="#DejaVuSans-48" x="610.197266"/>
     <use xlink:href="#DejaVuSans-69" x="685.392578"/>
     <use xlink:href="#DejaVuSans-6c" x="713.175781"/>
     <use xlink:href="#DejaVuSans-6c" x="740.958984"/>
     <use xlink:href="#DejaVuSans-2f" x="768.742188"/>
     <use xlink:href="#DejaVuSans-4c" x="802.433594"/>
     <use xlink:href="#DejaVuSans-65" x="856.396484"/>
     <use xlink:href="#DejaVuSans-6e" x="917.919922"/>
     <use xlink:href="#DejaVuSans-64" x="981.298828"/>
     <use xlink:href="#DejaVuSans-6c" x="1044.775391"/>
    </g>
   </g>
   <g id="line2d_50">
    <path d="M 208.810156 472.775562 
L 218.810156 472.775562 
L 228.810156 472.775562 
" style="fill: none; stroke: #9467bd; stroke-width: 1.5; stroke-linecap: square"/>
   </g>
   <g id="text_31">
    <!-- PyRoll Base/Wusatowski/Base -->
    <g transform="translate(236.810156 476.275562)scale(0.1 -0.1)">
     <defs>
      <path id="DejaVuSans-77" d="M 269 3500 
L 844 3500 
L 1563 769 
L 2278 3500 
L 2956 3500 
L 3675 769 
L 4391 3500 
L 4966 3500 
L 4050 0 
L 3372 0 
L 2619 2869 
L 1863 0 
L 1184 0 
L 269 3500 
z
" transform="scale(0.015625)"/>
      <path id="DejaVuSans-6b" d="M 581 4863 
L 1159 4863 
L 1159 1991 
L 2875 3500 
L 3609 3500 
L 1753 1863 
L 3688 0 
L 2938 0 
L 1159 1709 
L 1159 0 
L 581 0 
L 581 4863 
z
" transform="scale(0.015625)"/>
     </defs>
     <use xlink:href="#DejaVuSans-50"/>
     <use xlink:href="#DejaVuSans-79" x="60.302734"/>
     <use xlink:href="#DejaVuSans-52" x="119.482422"/>
     <use xlink:href="#DejaVuSans-6f" x="184.464844"/>
     <use xlink:href="#DejaVuSans-6c" x="245.646484"/>
     <use xlink:href="#DejaVuSans-6c" x="273.429688"/>
     <use xlink:href="#DejaVuSans-20" x="301.212891"/>
     <use xlink:href="#DejaVuSans-42" x="333"/>
     <use xlink:href="#DejaVuSans-61" x="401.603516"/>
     <use xlink:href="#DejaVuSans-73" x="462.882812"/>
     <use xlink:href="#DejaVuSans-65" x="514.982422"/>
     <use xlink:href="#DejaVuSans-2f" x="576.505859"/>
     <use xlink:href="#DejaVuSans-57" x="610.197266"/>
     <use xlink:href="#DejaVuSans-75" x="705.449219"/>
     <use xlink:href="#DejaVuSans-73" x="768.828125"/>
     <use xlink:href="#DejaVuSans-61" x="820.927734"/>
     <use xlink:href="#DejaVuSans-74" x="882.207031"/>
     <use xlink:href="#DejaVuSans-6f" x="921.416016"/>
     <use xlink:href="#DejaVuSans-77" x="982.597656"/>
     <use xlink:href="#DejaVuSans-73" x="1064.384766"/>
     <use xlink:href="#DejaVuSans-6b" x="1116.484375"/>
     <use xlink:href="#DejaVuSans-69" x="1174.394531"/>
     <use xlink:href="#DejaVuSans-2f" x="1202.177734"/>
     <use xlink:href="#DejaVuSans-42" x="1235.869141"/>
     <use xlink:href="#DejaVuSans-61" x="1304.472656"/>
     <use xlink:href="#DejaVuSans-73" x="1365.751953"/>
     <use xlink:href="#DejaVuSans-65" x="1417.851562"/>
    </g>
   </g>
   <g id="line2d_51">
    <path d="M 208.810156 487.453688 
L 218.810156 487.453688 
L 228.810156 487.453688 
" style="fill: none; stroke: #8c564b; stroke-width: 1.5; stroke-linecap: square"/>
   </g>
   <g id="text_32">
    <!-- PyRoll Base/Wusatowski/Lendl -->
    <g transform="translate(236.810156 490.953688)scale(0.1 -0.1)">
     <use xlink:href="#DejaVuSans-50"/>
     <use xlink:href="#DejaVuSans-79" x="60.302734"/>
     <use xlink:href="#DejaVuSans-52" x="119.482422"/>
     <use xlink:href="#DejaVuSans-6f" x="184.464844"/>
     <use xlink:href="#DejaVuSans-6c" x="245.646484"/>
     <use xlink:href="#DejaVuSans-6c" x="273.429688"/>
     <use xlink:href="#DejaVuSans-20" x="301.212891"/>
     <use xlink:href="#DejaVuSans-42" x="333"/>
     <use xlink:href="#DejaVuSans-61" x="401.603516"/>
     <use xlink:href="#DejaVuSans-73" x="462.882812"/>
     <use xlink:href="#DejaVuSans-65" x="514.982422"/>
     <use xlink:href="#DejaVuSans-2f" x="576.505859"/>
     <use xlink:href="#DejaVuSans-57" x="610.197266"/>
     <use xlink:href="#DejaVuSans-75" x="705.449219"/>
     <use xlink:href="#DejaVuSans-73" x="768.828125"/>
     <use xlink:href="#DejaVuSans-61" x="820.927734"/>
     <use xlink:href="#DejaVuSans-74" x="882.207031"/>
     <use xlink:href="#DejaVuSans-6f" x="921.416016"/>
     <use xlink:href="#DejaVuSans-77" x="982.597656"/>
     <use xlink:href="#DejaVuSans-73" x="1064.384766"/>
     <use xlink:href="#DejaVuSans-6b" x="1116.484375"/>
     <use xlink:href="#DejaVuSans-69" x="1174.394531"/>
     <use xlink:href="#DejaVuSans-2f" x="1202.177734"/>
     <use xlink:href="#DejaVuSans-4c" x="1235.869141"/>
     <use xlink:href="#DejaVuSans-65" x="1289.832031"/>
     <use xlink:href="#DejaVuSans-6e" x="1351.355469"/>
     <use xlink:href="#DejaVuSans-64" x="1414.734375"/>
     <use xlink:href="#DejaVuSans-6c" x="1478.210938"/>
    </g>
   </g>
   <g id="line2d_52">
    <path d="M 208.810156 502.131813 
L 218.810156 502.131813 
L 228.810156 502.131813 
" style="fill: none; stroke: #e377c2; stroke-width: 1.5; stroke-linecap: square"/>
   </g>
   <g id="text_33">
    <!-- PyRoll Hensel/Base/Base -->
    <g transform="translate(236.810156 505.631813)scale(0.1 -0.1)">
     <use xlink:href="#DejaVuSans-50"/>
     <use xlink:href="#DejaVuSans-79" x="60.302734"/>
     <use xlink:href="#DejaVuSans-52" x="119.482422"/>
     <use xlink:href="#DejaVuSans-6f" x="184.464844"/>
     <use xlink:href="#DejaVuSans-6c" x="245.646484"/>
     <use xlink:href="#DejaVuSans-6c" x="273.429688"/>
     <use xlink:href="#DejaVuSans-20" x="301.212891"/>
     <use xlink:href="#DejaVuSans-48" x="333"/>
     <use xlink:href="#DejaVuSans-65" x="408.195312"/>
     <use xlink:href="#DejaVuSans-6e" x="469.71875"/>
     <use xlink:href="#DejaVuSans-73" x="533.097656"/>
     <use xlink:href="#DejaVuSans-65" x="585.197266"/>
     <use xlink:href="#DejaVuSans-6c" x="646.720703"/>
     <use xlink:href="#DejaVuSans-2f" x="674.503906"/>
     <use xlink:href="#DejaVuSans-42" x="708.195312"/>
     <use xlink:href="#DejaVuSans-61" x="776.798828"/>
     <use xlink:href="#DejaVuSans-73" x="838.078125"/>
     <use xlink:href="#DejaVuSans-65" x="890.177734"/>
     <use xlink:href="#DejaVuSans-2f" x="951.701172"/>
     <use xlink:href="#DejaVuSans-42" x="985.392578"/>
     <use xlink:href="#DejaVuSans-61" x="1053.996094"/>
     <use xlink:href="#DejaVuSans-73" x="1115.275391"/>
     <use xlink:href="#DejaVuSans-65" x="1167.375"/>
    </g>
   </g>
   <g id="line2d_53">
    <path d="M 208.810156 516.809938 
L 218.810156 516.809938 
L 228.810156 516.809938 
" style="fill: none; stroke: #7f7f7f; stroke-width: 1.5; stroke-linecap: square"/>
   </g>
   <g id="text_34">
    <!-- PyRoll Hensel/Base/Lendl -->
    <g transform="translate(236.810156 520.309938)scale(0.1 -0.1)">
     <use xlink:href="#DejaVuSans-50"/>
     <use xlink:href="#DejaVuSans-79" x="60.302734"/>
     <use xlink:href="#DejaVuSans-52" x="119.482422"/>
     <use xlink:href="#DejaVuSans-6f" x="184.464844"/>
     <use xlink:href="#DejaVuSans-6c" x="245.646484"/>
     <use xlink:href="#DejaVuSans-6c" x="273.429688"/>
     <use xlink:href="#DejaVuSans-20" x="301.212891"/>
     <use xlink:href="#DejaVuSans-48" x="333"/>
     <use xlink:href="#DejaVuSans-65" x="408.195312"/>
     <use xlink:href="#DejaVuSans-6e" x="469.71875"/>
     <use xlink:href="#DejaVuSans-73" x="533.097656"/>
     <use xlink:href="#DejaVuSans-65" x="585.197266"/>
     <use xlink:href="#DejaVuSans-6c" x="646.720703"/>
     <use xlink:href="#DejaVuSans-2f" x="674.503906"/>
     <use xlink:href="#DejaVuSans-42" x="708.195312"/>
     <use xlink:href="#DejaVuSans-61" x="776.798828"/>
     <use xlink:href="#DejaVuSans-73" x="838.078125"/>
     <use xlink:href="#DejaVuSans-65" x="890.177734"/>
     <use xlink:href="#DejaVuSans-2f" x="951.701172"/>
     <use xlink:href="#DejaVuSans-4c" x="985.392578"/>
     <use xlink:href="#DejaVuSans-65" x="1039.355469"/>
     <use xlink:href="#DejaVuSans-6e" x="1100.878906"/>
     <use xlink:href="#DejaVuSans-64" x="1164.257812"/>
     <use xlink:href="#DejaVuSans-6c" x="1227.734375"/>
    </g>
   </g>
   <g id="line2d_54">
    <path d="M 208.810156 531.488063 
L 218.810156 531.488063 
L 228.810156 531.488063 
" style="fill: none; stroke: #bcbd22; stroke-width: 1.5; stroke-linecap: square"/>
   </g>
   <g id="text_35">
    <!-- PyRoll Hensel/Hill/Base -->
    <g transform="translate(236.810156 534.988063)scale(0.1 -0.1)">
     <use xlink:href="#DejaVuSans-50"/>
     <use xlink:href="#DejaVuSans-79" x="60.302734"/>
     <use xlink:href="#DejaVuSans-52" x="119.482422"/>
     <use xlink:href="#DejaVuSans-6f" x="184.464844"/>
     <use xlink:href="#DejaVuSans-6c" x="245.646484"/>
     <use xlink:href="#DejaVuSans-6c" x="273.429688"/>
     <use xlink:href="#DejaVuSans-20" x="301.212891"/>
     <use xlink:href="#DejaVuSans-48" x="333"/>
     <use xlink:href="#DejaVuSans-65" x="408.195312"/>
     <use xlink:href="#DejaVuSans-6e" x="469.71875"/>
     <use xlink:href="#DejaVuSans-73" x="533.097656"/>
     <use xlink:href="#DejaVuSans-65" x="585.197266"/>
     <use xlink:href="#DejaVuSans-6c" x="646.720703"/>
     <use xlink:href="#DejaVuSans-2f" x="674.503906"/>
     <use xlink:href="#DejaVuSans-48" x="708.195312"/>
     <use xlink:href="#DejaVuSans-69" x="783.390625"/>
     <use xlink:href="#DejaVuSans-6c" x="811.173828"/>
     <use xlink:href="#DejaVuSans-6c" x="838.957031"/>
     <use xlink:href="#DejaVuSans-2f" x="866.740234"/>
     <use xlink:href="#DejaVuSans-42" x="900.431641"/>
     <use xlink:href="#DejaVuSans-61" x="969.035156"/>
     <use xlink:href="#DejaVuSans-73" x="1030.314453"/>
     <use xlink:href="#DejaVuSans-65" x="1082.414062"/>
    </g>
   </g>
   <g id="line2d_55">
    <path d="M 208.810156 546.166187 
L 218.810156 546.166187 
L 228.810156 546.166187 
" style="fill: none; stroke: #17becf; stroke-width: 1.5; stroke-linecap: square"/>
   </g>
   <g id="text_36">
    <!-- PyRoll Hensel/Hill/Lendl -->
    <g transform="translate(236.810156 549.666187)scale(0.1 -0.1)">
     <use xlink:href="#DejaVuSans-50"/>
     <use xlink:href="#DejaVuSans-79" x="60.302734"/>
     <use xlink:href="#DejaVuSans-52" x="119.482422"/>
     <use xlink:href="#DejaVuSans-6f" x="184.464844"/>
     <use xlink:href="#DejaVuSans-6c" x="245.646484"/>
     <use xlink:href="#DejaVuSans-6c" x="273.429688"/>
     <use xlink:href="#DejaVuSans-20" x="301.212891"/>
     <use xlink:href="#DejaVuSans-48" x="333"/>
     <use xlink:href="#DejaVuSans-65" x="408.195312"/>
     <use xlink:href="#DejaVuSans-6e" x="469.71875"/>
     <use xlink:href="#DejaVuSans-73" x="533.097656"/>
     <use xlink:href="#DejaVuSans-65" x="585.197266"/>
     <use xlink:href="#DejaVuSans-6c" x="646.720703"/>
     <use xlink:href="#DejaVuSans-2f" x="674.503906"/>
     <use xlink:href="#DejaVuSans-48" x="708.195312"/>
     <use xlink:href="#DejaVuSans-69" x="783.390625"/>
     <use xlink:href="#DejaVuSans-6c" x="811.173828"/>
     <use xlink:href="#DejaVuSans-6c" x="838.957031"/>
     <use xlink:href="#DejaVuSans-2f" x="866.740234"/>
     <use xlink:href="#DejaVuSans-4c" x="900.431641"/>
     <use xlink:href="#DejaVuSans-65" x="954.394531"/>
     <use xlink:href="#DejaVuSans-6e" x="1015.917969"/>
     <use xlink:href="#DejaVuSans-64" x="1079.296875"/>
     <use xlink:href="#DejaVuSans-6c" x="1142.773438"/>
    </g>
   </g>
   <g id="line2d_56">
    <path d="M 208.810156 560.844313 
L 218.810156 560.844313 
L 228.810156 560.844313 
" style="fill: none; stroke: #1f77b4; stroke-width: 1.5; stroke-linecap: square"/>
   </g>
   <g id="text_37">
    <!-- PyRoll Hensel/Wusatowski/Base -->
    <g transform="translate(236.810156 564.344313)scale(0.1 -0.1)">
     <use xlink:href="#DejaVuSans-50"/>
     <use xlink:href="#DejaVuSans-79" x="60.302734"/>
     <use xlink:href="#DejaVuSans-52" x="119.482422"/>
     <use xlink:href="#DejaVuSans-6f" x="184.464844"/>
     <use xlink:href="#DejaVuSans-6c" x="245.646484"/>
     <use xlink:href="#DejaVuSans-6c" x="273.429688"/>
     <use xlink:href="#DejaVuSans-20" x="301.212891"/>
     <use xlink:href="#DejaVuSans-48" x="333"/>
     <use xlink:href="#DejaVuSans-65" x="408.195312"/>
     <use xlink:href="#DejaVuSans-6e" x="469.71875"/>
     <use xlink:href="#DejaVuSans-73" x="533.097656"/>
     <use xlink:href="#DejaVuSans-65" x="585.197266"/>
     <use xlink:href="#DejaVuSans-6c" x="646.720703"/>
     <use xlink:href="#DejaVuSans-2f" x="674.503906"/>
     <use xlink:href="#DejaVuSans-57" x="708.195312"/>
     <use xlink:href="#DejaVuSans-75" x="803.447266"/>
     <use xlink:href="#DejaVuSans-73" x="866.826172"/>
     <use xlink:href="#DejaVuSans-61" x="918.925781"/>
     <use xlink:href="#DejaVuSans-74" x="980.205078"/>
     <use xlink:href="#DejaVuSans-6f" x="1019.414062"/>
     <use xlink:href="#DejaVuSans-77" x="1080.595703"/>
     <use xlink:href="#DejaVuSans-73" x="1162.382812"/>
     <use xlink:href="#DejaVuSans-6b" x="1214.482422"/>
     <use xlink:href="#DejaVuSans-69" x="1272.392578"/>
     <use xlink:href="#DejaVuSans-2f" x="1300.175781"/>
     <use xlink:href="#DejaVuSans-42" x="1333.867188"/>
     <use xlink:href="#DejaVuSans-61" x="1402.470703"/>
     <use xlink:href="#DejaVuSans-73" x="1463.75"/>
     <use xlink:href="#DejaVuSans-65" x="1515.849609"/>
    </g>
   </g>
   <g id="line2d_57">
    <path d="M 414.546094 472.775562 
L 424.546094 472.775562 
L 434.546094 472.775562 
" style="fill: none; stroke: #ff7f0e; stroke-width: 1.5; stroke-linecap: square"/>
   </g>
   <g id="text_38">
    <!-- PyRoll Hensel/Wusatowski/Lendl -->
    <g transform="translate(442.546094 476.275562)scale(0.1 -0.1)">
     <use xlink:href="#DejaVuSans-50"/>
     <use xlink:href="#DejaVuSans-79" x="60.302734"/>
     <use xlink:href="#DejaVuSans-52" x="119.482422"/>
     <use xlink:href="#DejaVuSans-6f" x="184.464844"/>
     <use xlink:href="#DejaVuSans-6c" x="245.646484"/>
     <use xlink:href="#DejaVuSans-6c" x="273.429688"/>
     <use xlink:href="#DejaVuSans-20" x="301.212891"/>
     <use xlink:href="#DejaVuSans-48" x="333"/>
     <use xlink:href="#DejaVuSans-65" x="408.195312"/>
     <use xlink:href="#DejaVuSans-6e" x="469.71875"/>
     <use xlink:href="#DejaVuSans-73" x="533.097656"/>
     <use xlink:href="#DejaVuSans-65" x="585.197266"/>
     <use xlink:href="#DejaVuSans-6c" x="646.720703"/>
     <use xlink:href="#DejaVuSans-2f" x="674.503906"/>
     <use xlink:href="#DejaVuSans-57" x="708.195312"/>
     <use xlink:href="#DejaVuSans-75" x="803.447266"/>
     <use xlink:href="#DejaVuSans-73" x="866.826172"/>
     <use xlink:href="#DejaVuSans-61" x="918.925781"/>
     <use xlink:href="#DejaVuSans-74" x="980.205078"/>
     <use xlink:href="#DejaVuSans-6f" x="1019.414062"/>
     <use xlink:href="#DejaVuSans-77" x="1080.595703"/>
     <use xlink:href="#DejaVuSans-73" x="1162.382812"/>
     <use xlink:href="#DejaVuSans-6b" x="1214.482422"/>
     <use xlink:href="#DejaVuSans-69" x="1272.392578"/>
     <use xlink:href="#DejaVuSans-2f" x="1300.175781"/>
     <use xlink:href="#DejaVuSans-4c" x="1333.867188"/>
     <use xlink:href="#DejaVuSans-65" x="1387.830078"/>
     <use xlink:href="#DejaVuSans-6e" x="1449.353516"/>
     <use xlink:href="#DejaVuSans-64" x="1512.732422"/>
     <use xlink:href="#DejaVuSans-6c" x="1576.208984"/>
    </g>
   </g>
   <g id="line2d_58">
    <path d="M 414.546094 487.453688 
L 424.546094 487.453688 
L 434.546094 487.453688 
" style="fill: none; stroke: #2ca02c; stroke-width: 1.5; stroke-linecap: square"/>
   </g>
   <g id="text_39">
    <!-- PyRoll Sims/Base/Base -->
    <g transform="translate(442.546094 490.953688)scale(0.1 -0.1)">
     <use xlink:href="#DejaVuSans-50"/>
     <use xlink:href="#DejaVuSans-79" x="60.302734"/>
     <use xlink:href="#DejaVuSans-52" x="119.482422"/>
     <use xlink:href="#DejaVuSans-6f" x="184.464844"/>
     <use xlink:href="#DejaVuSans-6c" x="245.646484"/>
     <use xlink:href="#DejaVuSans-6c" x="273.429688"/>
     <use xlink:href="#DejaVuSans-20" x="301.212891"/>
     <use xlink:href="#DejaVuSans-53" x="333"/>
     <use xlink:href="#DejaVuSans-69" x="396.476562"/>
     <use xlink:href="#DejaVuSans-6d" x="424.259766"/>
     <use xlink:href="#DejaVuSans-73" x="521.671875"/>
     <use xlink:href="#DejaVuSans-2f" x="573.771484"/>
     <use xlink:href="#DejaVuSans-42" x="607.462891"/>
     <use xlink:href="#DejaVuSans-61" x="676.066406"/>
     <use xlink:href="#DejaVuSans-73" x="737.345703"/>
     <use xlink:href="#DejaVuSans-65" x="789.445312"/>
     <use xlink:href="#DejaVuSans-2f" x="850.96875"/>
     <use xlink:href="#DejaVuSans-42" x="884.660156"/>
     <use xlink:href="#DejaVuSans-61" x="953.263672"/>
     <use xlink:href="#DejaVuSans-73" x="1014.542969"/>
     <use xlink:href="#DejaVuSans-65" x="1066.642578"/>
    </g>
   </g>
   <g id="line2d_59">
    <path d="M 414.546094 502.131813 
L 424.546094 502.131813 
L 434.546094 502.131813 
" style="fill: none; stroke: #d62728; stroke-width: 1.5; stroke-linecap: square"/>
   </g>
   <g id="text_40">
    <!-- PyRoll Sims/Base/Lendl -->
    <g transform="translate(442.546094 505.631813)scale(0.1 -0.1)">
     <use xlink:href="#DejaVuSans-50"/>
     <use xlink:href="#DejaVuSans-79" x="60.302734"/>
     <use xlink:href="#DejaVuSans-52" x="119.482422"/>
     <use xlink:href="#DejaVuSans-6f" x="184.464844"/>
     <use xlink:href="#DejaVuSans-6c" x="245.646484"/>
     <use xlink:href="#DejaVuSans-6c" x="273.429688"/>
     <use xlink:href="#DejaVuSans-20" x="301.212891"/>
     <use xlink:href="#DejaVuSans-53" x="333"/>
     <use xlink:href="#DejaVuSans-69" x="396.476562"/>
     <use xlink:href="#DejaVuSans-6d" x="424.259766"/>
     <use xlink:href="#DejaVuSans-73" x="521.671875"/>
     <use xlink:href="#DejaVuSans-2f" x="573.771484"/>
     <use xlink:href="#DejaVuSans-42" x="607.462891"/>
     <use xlink:href="#DejaVuSans-61" x="676.066406"/>
     <use xlink:href="#DejaVuSans-73" x="737.345703"/>
     <use xlink:href="#DejaVuSans-65" x="789.445312"/>
     <use xlink:href="#DejaVuSans-2f" x="850.96875"/>
     <use xlink:href="#DejaVuSans-4c" x="884.660156"/>
     <use xlink:href="#DejaVuSans-65" x="938.623047"/>
     <use xlink:href="#DejaVuSans-6e" x="1000.146484"/>
     <use xlink:href="#DejaVuSans-64" x="1063.525391"/>
     <use xlink:href="#DejaVuSans-6c" x="1127.001953"/>
    </g>
   </g>
   <g id="line2d_60">
    <path d="M 414.546094 516.809938 
L 424.546094 516.809938 
L 434.546094 516.809938 
" style="fill: none; stroke: #9467bd; stroke-width: 1.5; stroke-linecap: square"/>
   </g>
   <g id="text_41">
    <!-- PyRoll Sims/Hill/Base -->
    <g transform="translate(442.546094 520.309938)scale(0.1 -0.1)">
     <use xlink:href="#DejaVuSans-50"/>
     <use xlink:href="#DejaVuSans-79" x="60.302734"/>
     <use xlink:href="#DejaVuSans-52" x="119.482422"/>
     <use xlink:href="#DejaVuSans-6f" x="184.464844"/>
     <use xlink:href="#DejaVuSans-6c" x="245.646484"/>
     <use xlink:href="#DejaVuSans-6c" x="273.429688"/>
     <use xlink:href="#DejaVuSans-20" x="301.212891"/>
     <use xlink:href="#DejaVuSans-53" x="333"/>
     <use xlink:href="#DejaVuSans-69" x="396.476562"/>
     <use xlink:href="#DejaVuSans-6d" x="424.259766"/>
     <use xlink:href="#DejaVuSans-73" x="521.671875"/>
     <use xlink:href="#DejaVuSans-2f" x="573.771484"/>
     <use xlink:href="#DejaVuSans-48" x="607.462891"/>
     <use xlink:href="#DejaVuSans-69" x="682.658203"/>
     <use xlink:href="#DejaVuSans-6c" x="710.441406"/>
     <use xlink:href="#DejaVuSans-6c" x="738.224609"/>
     <use xlink:href="#DejaVuSans-2f" x="766.007812"/>
     <use xlink:href="#DejaVuSans-42" x="799.699219"/>
     <use xlink:href="#DejaVuSans-61" x="868.302734"/>
     <use xlink:href="#DejaVuSans-73" x="929.582031"/>
     <use xlink:href="#DejaVuSans-65" x="981.681641"/>
    </g>
   </g>
   <g id="line2d_61">
    <path d="M 414.546094 531.488063 
L 424.546094 531.488063 
L 434.546094 531.488063 
" style="fill: none; stroke: #8c564b; stroke-width: 1.5; stroke-linecap: square"/>
   </g>
   <g id="text_42">
    <!-- PyRoll Sims/Hill/Lendl -->
    <g transform="translate(442.546094 534.988063)scale(0.1 -0.1)">
     <use xlink:href="#DejaVuSans-50"/>
     <use xlink:href="#DejaVuSans-79" x="60.302734"/>
     <use xlink:href="#DejaVuSans-52" x="119.482422"/>
     <use xlink:href="#DejaVuSans-6f" x="184.464844"/>
     <use xlink:href="#DejaVuSans-6c" x="245.646484"/>
     <use xlink:href="#DejaVuSans-6c" x="273.429688"/>
     <use xlink:href="#DejaVuSans-20" x="301.212891"/>
     <use xlink:href="#DejaVuSans-53" x="333"/>
     <use xlink:href="#DejaVuSans-69" x="396.476562"/>
     <use xlink:href="#DejaVuSans-6d" x="424.259766"/>
     <use xlink:href="#DejaVuSans-73" x="521.671875"/>
     <use xlink:href="#DejaVuSans-2f" x="573.771484"/>
     <use xlink:href="#DejaVuSans-48" x="607.462891"/>
     <use xlink:href="#DejaVuSans-69" x="682.658203"/>
     <use xlink:href="#DejaVuSans-6c" x="710.441406"/>
     <use xlink:href="#DejaVuSans-6c" x="738.224609"/>
     <use xlink:href="#DejaVuSans-2f" x="766.007812"/>
     <use xlink:href="#DejaVuSans-4c" x="799.699219"/>
     <use xlink:href="#DejaVuSans-65" x="853.662109"/>
     <use xlink:href="#DejaVuSans-6e" x="915.185547"/>
     <use xlink:href="#DejaVuSans-64" x="978.564453"/>
     <use xlink:href="#DejaVuSans-6c" x="1042.041016"/>
    </g>
   </g>
   <g id="line2d_62">
    <path d="M 414.546094 546.166187 
L 424.546094 546.166187 
L 434.546094 546.166187 
" style="fill: none; stroke: #e377c2; stroke-width: 1.5; stroke-linecap: square"/>
   </g>
   <g id="text_43">
    <!-- PyRoll Sims/Wusatowski/Base -->
    <g transform="translate(442.546094 549.666187)scale(0.1 -0.1)">
     <use xlink:href="#DejaVuSans-50"/>
     <use xlink:href="#DejaVuSans-79" x="60.302734"/>
     <use xlink:href="#DejaVuSans-52" x="119.482422"/>
     <use xlink:href="#DejaVuSans-6f" x="184.464844"/>
     <use xlink:href="#DejaVuSans-6c" x="245.646484"/>
     <use xlink:href="#DejaVuSans-6c" x="273.429688"/>
     <use xlink:href="#DejaVuSans-20" x="301.212891"/>
     <use xlink:href="#DejaVuSans-53" x="333"/>
     <use xlink:href="#DejaVuSans-69" x="396.476562"/>
     <use xlink:href="#DejaVuSans-6d" x="424.259766"/>
     <use xlink:href="#DejaVuSans-73" x="521.671875"/>
     <use xlink:href="#DejaVuSans-2f" x="573.771484"/>
     <use xlink:href="#DejaVuSans-57" x="607.462891"/>
     <use xlink:href="#DejaVuSans-75" x="702.714844"/>
     <use xlink:href="#DejaVuSans-73" x="766.09375"/>
     <use xlink:href="#DejaVuSans-61" x="818.193359"/>
     <use xlink:href="#DejaVuSans-74" x="879.472656"/>
     <use xlink:href="#DejaVuSans-6f" x="918.681641"/>
     <use xlink:href="#DejaVuSans-77" x="979.863281"/>
     <use xlink:href="#DejaVuSans-73" x="1061.650391"/>
     <use xlink:href="#DejaVuSans-6b" x="1113.75"/>
     <use xlink:href="#DejaVuSans-69" x="1171.660156"/>
     <use xlink:href="#DejaVuSans-2f" x="1199.443359"/>
     <use xlink:href="#DejaVuSans-42" x="1233.134766"/>
     <use xlink:href="#DejaVuSans-61" x="1301.738281"/>
     <use xlink:href="#DejaVuSans-73" x="1363.017578"/>
     <use xlink:href="#DejaVuSans-65" x="1415.117188"/>
    </g>
   </g>
   <g id="line2d_63">
    <path d="M 414.546094 560.844313 
L 424.546094 560.844313 
L 434.546094 560.844313 
" style="fill: none; stroke: #7f7f7f; stroke-width: 1.5; stroke-linecap: square"/>
   </g>
   <g id="text_44">
    <!-- PyRoll Sims/Wusatowski/Lendl -->
    <g transform="translate(442.546094 564.344313)scale(0.1 -0.1)">
     <use xlink:href="#DejaVuSans-50"/>
     <use xlink:href="#DejaVuSans-79" x="60.302734"/>
     <use xlink:href="#DejaVuSans-52" x="119.482422"/>
     <use xlink:href="#DejaVuSans-6f" x="184.464844"/>
     <use xlink:href="#DejaVuSans-6c" x="245.646484"/>
     <use xlink:href="#DejaVuSans-6c" x="273.429688"/>
     <use xlink:href="#DejaVuSans-20" x="301.212891"/>
     <use xlink:href="#DejaVuSans-53" x="333"/>
     <use xlink:href="#DejaVuSans-69" x="396.476562"/>
     <use xlink:href="#DejaVuSans-6d" x="424.259766"/>
     <use xlink:href="#DejaVuSans-73" x="521.671875"/>
     <use xlink:href="#DejaVuSans-2f" x="573.771484"/>
     <use xlink:href="#DejaVuSans-57" x="607.462891"/>
     <use xlink:href="#DejaVuSans-75" x="702.714844"/>
     <use xlink:href="#DejaVuSans-73" x="766.09375"/>
     <use xlink:href="#DejaVuSans-61" x="818.193359"/>
     <use xlink:href="#DejaVuSans-74" x="879.472656"/>
     <use xlink:href="#DejaVuSans-6f" x="918.681641"/>
     <use xlink:href="#DejaVuSans-77" x="979.863281"/>
     <use xlink:href="#DejaVuSans-73" x="1061.650391"/>
     <use xlink:href="#DejaVuSans-6b" x="1113.75"/>
     <use xlink:href="#DejaVuSans-69" x="1171.660156"/>
     <use xlink:href="#DejaVuSans-2f" x="1199.443359"/>
     <use xlink:href="#DejaVuSans-4c" x="1233.134766"/>
     <use xlink:href="#DejaVuSans-65" x="1287.097656"/>
     <use xlink:href="#DejaVuSans-6e" x="1348.621094"/>
     <use xlink:href="#DejaVuSans-64" x="1412"/>
     <use xlink:href="#DejaVuSans-6c" x="1475.476562"/>
    </g>
   </g>
  </g>
 </g>
 <defs>
  <clipPath id="p3f9dd464a4">
   <rect x="55.51274" y="3.00024" width="589.48702" height="359.522498"/>
  </clipPath>
 </defs>
</svg>
